%TF.GenerationSoftware,KiCad,Pcbnew,(5.99.0-2195-g476558ece)*%
%TF.CreationDate,2022-04-08T17:32:19-07:00*%
%TF.ProjectId,wwu_pico1,7777755f-7069-4636-9f31-2e6b69636164,rev?*%
%TF.SameCoordinates,Original*%
%TF.FileFunction,Paste,Top*%
%TF.FilePolarity,Positive*%
%FSLAX46Y46*%
G04 Gerber Fmt 4.6, Leading zero omitted, Abs format (unit mm)*
G04 Created by KiCad (PCBNEW (5.99.0-2195-g476558ece)) date 2022-04-08 17:32:19*
%MOMM*%
%LPD*%
G01*
G04 APERTURE LIST*
%ADD10R,0.800000X0.900000*%
%ADD11R,0.400000X0.650000*%
%ADD12R,1.400000X0.300000*%
%ADD13C,0.250000*%
%ADD14R,1.450000X0.450000*%
%ADD15R,0.650000X1.060000*%
%ADD16R,0.500000X0.900000*%
%ADD17R,0.900000X0.500000*%
%ADD18R,0.700000X0.450000*%
%ADD19R,0.450000X0.700000*%
%ADD20R,1.000000X2.750000*%
%ADD21R,2.750000X1.000000*%
%ADD22R,1.000000X1.000000*%
%ADD23R,0.800000X0.800000*%
%ADD24R,0.750000X0.800000*%
%ADD25R,0.800000X0.750000*%
G04 APERTURE END LIST*
D10*
%TO.C,Y1*%
X141400000Y-80500000D03*
X141400000Y-81900000D03*
X142500000Y-81900000D03*
X142500000Y-80500000D03*
%TD*%
D11*
%TO.C,U5*%
X139225000Y-85375000D03*
X139875000Y-85375000D03*
X140525000Y-85375000D03*
X141175000Y-85375000D03*
X141175000Y-83625000D03*
X140525000Y-83625000D03*
X139875000Y-83625000D03*
X139225000Y-83625000D03*
%TD*%
D12*
%TO.C,U4*%
X148800000Y-80400000D03*
X148800000Y-80900000D03*
X148800000Y-81400000D03*
X148800000Y-81900000D03*
X148800000Y-82400000D03*
X144400000Y-82400000D03*
X144400000Y-81900000D03*
X144400000Y-81400000D03*
X144400000Y-80900000D03*
X144400000Y-80400000D03*
%TD*%
D13*
%TO.C,U3*%
X123300000Y-77895000D03*
X124300000Y-77895000D03*
X124300000Y-78305000D03*
X123300000Y-78305000D03*
%TD*%
D14*
%TO.C,U2*%
X131230000Y-77965000D03*
X131230000Y-78615000D03*
X131230000Y-79265000D03*
X131230000Y-79915000D03*
X131230000Y-80565000D03*
X131230000Y-81215000D03*
X131230000Y-81865000D03*
X131230000Y-82515000D03*
X131230000Y-83165000D03*
X131230000Y-83815000D03*
X137130000Y-83815000D03*
X137130000Y-83165000D03*
X137130000Y-82515000D03*
X137130000Y-81865000D03*
X137130000Y-81215000D03*
X137130000Y-80565000D03*
X137130000Y-79915000D03*
X137130000Y-79265000D03*
X137130000Y-78615000D03*
X137130000Y-77965000D03*
%TD*%
D15*
%TO.C,U1*%
X124400000Y-73700000D03*
X123450000Y-73700000D03*
X122500000Y-73700000D03*
X122500000Y-75900000D03*
X124400000Y-75900000D03*
%TD*%
D16*
%TO.C,R7*%
X138650000Y-76400000D03*
X137150000Y-76400000D03*
%TD*%
D17*
%TO.C,R6*%
X129200000Y-73600000D03*
X129200000Y-75100000D03*
%TD*%
%TO.C,R5*%
X127600000Y-75100000D03*
X127600000Y-73600000D03*
%TD*%
D16*
%TO.C,R4*%
X124850000Y-84400000D03*
X126350000Y-84400000D03*
%TD*%
D17*
%TO.C,R3*%
X129100000Y-83950000D03*
X129100000Y-82450000D03*
%TD*%
%TO.C,R2*%
X133200000Y-86750000D03*
X133200000Y-85250000D03*
%TD*%
%TO.C,R1*%
X131600000Y-69650000D03*
X131600000Y-71150000D03*
%TD*%
D18*
%TO.C,Q4*%
X140000000Y-76400000D03*
X140000000Y-77700000D03*
X142000000Y-77050000D03*
%TD*%
D19*
%TO.C,Q3*%
X126250000Y-80800000D03*
X124950000Y-80800000D03*
X125600000Y-82800000D03*
%TD*%
%TO.C,Q2*%
X131550000Y-85400000D03*
X130250000Y-85400000D03*
X130900000Y-87400000D03*
%TD*%
%TO.C,Q1*%
X136150000Y-85400000D03*
X134850000Y-85400000D03*
X135500000Y-87400000D03*
%TD*%
D20*
%TO.C,L2*%
X149425000Y-73175000D03*
X147125000Y-73175000D03*
%TD*%
D21*
%TO.C,L1*%
X150325000Y-78575000D03*
X150325000Y-76275000D03*
%TD*%
D16*
%TO.C,FB1*%
X133200000Y-76400000D03*
X134700000Y-76400000D03*
%TD*%
D22*
%TO.C,D4*%
X120650000Y-84800000D03*
X123150000Y-84800000D03*
%TD*%
%TO.C,D3*%
X120650000Y-82700000D03*
X123150000Y-82700000D03*
%TD*%
%TO.C,D2*%
X120650000Y-80600000D03*
X123150000Y-80600000D03*
%TD*%
D23*
%TO.C,D1*%
X131600000Y-66800000D03*
X131600000Y-68400000D03*
%TD*%
D24*
%TO.C,C12*%
X145225000Y-73175000D03*
X145225000Y-74675000D03*
%TD*%
%TO.C,C11*%
X151325000Y-73975000D03*
X151325000Y-72475000D03*
%TD*%
%TO.C,C10*%
X147525000Y-77325000D03*
X147525000Y-78825000D03*
%TD*%
D25*
%TO.C,C9*%
X139500000Y-86600000D03*
X141000000Y-86600000D03*
%TD*%
%TO.C,C8*%
X144575000Y-78875000D03*
X146075000Y-78875000D03*
%TD*%
D24*
%TO.C,C7*%
X129300000Y-80300000D03*
X129300000Y-78800000D03*
%TD*%
%TO.C,C6*%
X139000000Y-80650000D03*
X139000000Y-82150000D03*
%TD*%
D25*
%TO.C,C5*%
X128200000Y-76400000D03*
X126700000Y-76400000D03*
%TD*%
D24*
%TO.C,C3*%
X126000000Y-74950000D03*
X126000000Y-73450000D03*
%TD*%
%TO.C,C2*%
X127800000Y-79500000D03*
X127800000Y-78000000D03*
%TD*%
D25*
%TO.C,C1*%
X124600000Y-72100000D03*
X123100000Y-72100000D03*
%TD*%
M02*
