%TF.GenerationSoftware,KiCad,Pcbnew,(5.99.0-2195-g476558ece)*%
%TF.CreationDate,2022-04-08T17:32:19-07:00*%
%TF.ProjectId,wwu_pico1,7777755f-7069-4636-9f31-2e6b69636164,rev?*%
%TF.SameCoordinates,Original*%
%TF.FileFunction,Profile,NP*%
%FSLAX46Y46*%
G04 Gerber Fmt 4.6, Leading zero omitted, Abs format (unit mm)*
G04 Created by KiCad (PCBNEW (5.99.0-2195-g476558ece)) date 2022-04-08 17:32:19*
%MOMM*%
%LPD*%
G01*
G04 APERTURE LIST*
%TA.AperFunction,Profile*%
%ADD10C,0.100000*%
%TD*%
G04 APERTURE END LIST*
D10*
X144500000Y-71500000D02*
X144500000Y-71400000D01*
X143400000Y-72600000D02*
X144500000Y-71500000D01*
X139000000Y-72600000D02*
X143400000Y-72600000D01*
X139000000Y-72500000D02*
X139000000Y-72600000D01*
X143400000Y-72500000D02*
X139000000Y-72500000D01*
X144500000Y-71400000D02*
X143400000Y-72500000D01*
X137100000Y-72600000D02*
X133800000Y-72600000D01*
X137100000Y-72500000D02*
X137100000Y-72600000D01*
X133800000Y-72500000D02*
X137100000Y-72500000D01*
X133800000Y-72600000D02*
X133800000Y-72500000D01*
X128200000Y-70800000D02*
X128200000Y-70900000D01*
X130000000Y-72600000D02*
X128200000Y-70800000D01*
X132000000Y-72600000D02*
X130000000Y-72600000D01*
X132000000Y-72700000D02*
X132000000Y-72600000D01*
X130000000Y-72700000D02*
X132000000Y-72700000D01*
X128200000Y-70900000D02*
X130000000Y-72700000D01*
X144900000Y-66000000D02*
X144900000Y-71000000D01*
X127800000Y-66000000D02*
X144900000Y-66000000D01*
X127800000Y-70400000D02*
X127800000Y-66000000D01*
X119100000Y-70400000D02*
X127800000Y-70400000D01*
X119100000Y-88500000D02*
X119100000Y-70400000D01*
X145700000Y-88500000D02*
X119100000Y-88500000D01*
X152200000Y-82000000D02*
X145700000Y-88500000D01*
X152200000Y-71000000D02*
X152200000Y-82000000D01*
X144900000Y-71000000D02*
X152200000Y-71000000D01*
M02*
