%TF.GenerationSoftware,KiCad,Pcbnew,(5.99.0-2195-g476558ece)*%
%TF.CreationDate,2021-12-21T14:22:00-08:00*%
%TF.ProjectId,wwu_pico1,7777755f-7069-4636-9f31-2e6b69636164,rev?*%
%TF.SameCoordinates,Original*%
%TF.FileFunction,Copper,L1,Top*%
%TF.FilePolarity,Positive*%
%FSLAX46Y46*%
G04 Gerber Fmt 4.6, Leading zero omitted, Abs format (unit mm)*
G04 Created by KiCad (PCBNEW (5.99.0-2195-g476558ece)) date 2021-12-21 14:22:00*
%MOMM*%
%LPD*%
G01*
G04 APERTURE LIST*
%TA.AperFunction,ComponentPad*%
%ADD10C,1.998980*%
%TD*%
%TA.AperFunction,SMDPad,CuDef*%
%ADD11R,0.800000X0.900000*%
%TD*%
%TA.AperFunction,SMDPad,CuDef*%
%ADD12R,0.400000X0.650000*%
%TD*%
%TA.AperFunction,SMDPad,CuDef*%
%ADD13R,1.400000X0.300000*%
%TD*%
%TA.AperFunction,SMDPad,CuDef*%
%ADD14C,0.250000*%
%TD*%
%TA.AperFunction,SMDPad,CuDef*%
%ADD15R,1.450000X0.450000*%
%TD*%
%TA.AperFunction,SMDPad,CuDef*%
%ADD16R,0.650000X1.060000*%
%TD*%
%TA.AperFunction,SMDPad,CuDef*%
%ADD17R,0.500000X0.900000*%
%TD*%
%TA.AperFunction,SMDPad,CuDef*%
%ADD18R,0.900000X0.500000*%
%TD*%
%TA.AperFunction,SMDPad,CuDef*%
%ADD19R,0.700000X0.450000*%
%TD*%
%TA.AperFunction,SMDPad,CuDef*%
%ADD20R,0.450000X0.700000*%
%TD*%
%TA.AperFunction,SMDPad,CuDef*%
%ADD21R,1.000000X2.750000*%
%TD*%
%TA.AperFunction,SMDPad,CuDef*%
%ADD22R,2.750000X1.000000*%
%TD*%
%TA.AperFunction,ComponentPad*%
%ADD23R,1.000000X1.000000*%
%TD*%
%TA.AperFunction,ComponentPad*%
%ADD24O,1.000000X1.000000*%
%TD*%
%TA.AperFunction,SMDPad,CuDef*%
%ADD25R,1.000000X1.000000*%
%TD*%
%TA.AperFunction,SMDPad,CuDef*%
%ADD26R,0.800000X0.800000*%
%TD*%
%TA.AperFunction,SMDPad,CuDef*%
%ADD27R,0.750000X0.800000*%
%TD*%
%TA.AperFunction,SMDPad,CuDef*%
%ADD28R,0.800000X0.750000*%
%TD*%
%TA.AperFunction,ComponentPad*%
%ADD29R,2.400000X2.400000*%
%TD*%
%TA.AperFunction,ComponentPad*%
%ADD30C,2.400000*%
%TD*%
%TA.AperFunction,ViaPad*%
%ADD31C,0.600000*%
%TD*%
%TA.AperFunction,Conductor*%
%ADD32C,0.300000*%
%TD*%
%TA.AperFunction,Conductor*%
%ADD33C,0.600000*%
%TD*%
%TA.AperFunction,Conductor*%
%ADD34C,0.203200*%
%TD*%
%TA.AperFunction,Conductor*%
%ADD35C,0.152400*%
%TD*%
%TA.AperFunction,Conductor*%
%ADD36C,0.400000*%
%TD*%
%TA.AperFunction,Conductor*%
%ADD37C,0.500000*%
%TD*%
%TA.AperFunction,Conductor*%
%ADD38C,0.250000*%
%TD*%
%TA.AperFunction,Conductor*%
%ADD39C,0.210000*%
%TD*%
G04 APERTURE END LIST*
D10*
%TO.P,J7,1,Pin_1*%
%TO.N,GND*%
X127300000Y-86600000D03*
%TD*%
%TO.P,J6,1,Pin_1*%
%TO.N,Net-(D4-Pad2)*%
X124600000Y-86600000D03*
%TD*%
%TO.P,J5,1,Pin_1*%
%TO.N,GND*%
X143400000Y-85500000D03*
%TD*%
%TO.P,J4,1,Pin_1*%
%TO.N,Net-(D3-Pad2)*%
X121900000Y-86600000D03*
%TD*%
%TO.P,J3,1,Pin_1*%
%TO.N,GND*%
X146000000Y-85500000D03*
%TD*%
%TO.P,J2,1,Pin_1*%
%TO.N,Net-(D2-Pad2)*%
X120900000Y-78400000D03*
%TD*%
D11*
%TO.P,Y1,1,1*%
%TO.N,Net-(U4-Pad2)*%
X141400000Y-80500000D03*
%TO.P,Y1,2,2*%
%TO.N,GND*%
X141400000Y-81900000D03*
%TO.P,Y1,3,3*%
%TO.N,Net-(U4-Pad3)*%
X142500000Y-81900000D03*
%TO.P,Y1,4,4*%
%TO.N,GND*%
X142500000Y-80500000D03*
%TD*%
D12*
%TO.P,U5,8,VDD*%
%TO.N,VDD*%
X139225000Y-85375000D03*
%TO.P,U5,7,INT_DRDY*%
%TO.N,Net-(U2-Pad14)*%
X139875000Y-85375000D03*
%TO.P,U5,6,VDDIO*%
%TO.N,VDD*%
X140525000Y-85375000D03*
%TO.P,U5,5,SA0*%
%TO.N,GND*%
X141175000Y-85375000D03*
%TO.P,U5,4,SCL*%
%TO.N,Net-(U2-Pad17)*%
X141175000Y-83625000D03*
%TO.P,U5,3,SDA*%
%TO.N,Net-(U2-Pad18)*%
X140525000Y-83625000D03*
%TO.P,U5,2,CS*%
%TO.N,VDD*%
X139875000Y-83625000D03*
%TO.P,U5,1,GND*%
%TO.N,GND*%
X139225000Y-83625000D03*
%TD*%
D13*
%TO.P,U4,10,CLK0*%
%TO.N,Net-(C10-Pad2)*%
X148800000Y-80400000D03*
%TO.P,U4,9,CLK1*%
%TO.N,Net-(U4-Pad9)*%
X148800000Y-80900000D03*
%TO.P,U4,8,GND*%
%TO.N,GND*%
X148800000Y-81400000D03*
%TO.P,U4,7,VDDO*%
%TO.N,Net-(C8-Pad2)*%
X148800000Y-81900000D03*
%TO.P,U4,6,CLK2*%
%TO.N,Net-(U4-Pad6)*%
X148800000Y-82400000D03*
%TO.P,U4,5,SDA*%
%TO.N,Net-(U2-Pad18)*%
X144400000Y-82400000D03*
%TO.P,U4,4,SCL*%
%TO.N,Net-(U2-Pad17)*%
X144400000Y-81900000D03*
%TO.P,U4,3,XB*%
%TO.N,Net-(U4-Pad3)*%
X144400000Y-81400000D03*
%TO.P,U4,2,XA*%
%TO.N,Net-(U4-Pad2)*%
X144400000Y-80900000D03*
%TO.P,U4,1,VDD*%
%TO.N,Net-(C8-Pad2)*%
X144400000Y-80400000D03*
%TD*%
D14*
%TO.P,U3,4,GND*%
%TO.N,GND*%
X123300000Y-77895000D03*
%TO.P,U3,3,VDD*%
%TO.N,Net-(C3-Pad2)*%
X124300000Y-77895000D03*
%TO.P,U3,2,CLK*%
%TO.N,Net-(C5-Pad1)*%
X124300000Y-78305000D03*
%TO.P,U3,1,NC*%
%TO.N,Net-(U3-Pad1)*%
X123300000Y-78305000D03*
%TD*%
D15*
%TO.P,U2,1,BOOT0*%
%TO.N,GND*%
X131230000Y-77965000D03*
%TO.P,U2,2,OSC32_IN*%
%TO.N,Net-(C5-Pad2)*%
X131230000Y-78615000D03*
%TO.P,U2,3,PC15*%
%TO.N,Net-(U2-Pad3)*%
X131230000Y-79265000D03*
%TO.P,U2,4,NRST*%
%TO.N,/~RESET*%
X131230000Y-79915000D03*
%TO.P,U2,5,VDDA*%
%TO.N,Net-(C7-Pad2)*%
X131230000Y-80565000D03*
%TO.P,U2,6,PA0*%
%TO.N,Net-(Q3-Pad1)*%
X131230000Y-81215000D03*
%TO.P,U2,7,PA1_ADC1*%
%TO.N,Net-(D2-Pad2)*%
X131230000Y-81865000D03*
%TO.P,U2,8,PA2_ADC2*%
%TO.N,Net-(D3-Pad2)*%
X131230000Y-82515000D03*
%TO.P,U2,9,PA3_ADC3*%
%TO.N,Net-(D4-Pad2)*%
X131230000Y-83165000D03*
%TO.P,U2,10,PA4*%
%TO.N,Net-(Q2-Pad1)*%
X131230000Y-83815000D03*
%TO.P,U2,11,PA5*%
%TO.N,Net-(Q1-Pad1)*%
X137130000Y-83815000D03*
%TO.P,U2,12,PA6*%
%TO.N,Net-(R1-Pad2)*%
X137130000Y-83165000D03*
%TO.P,U2,13,PA7*%
%TO.N,Net-(R7-Pad2)*%
X137130000Y-82515000D03*
%TO.P,U2,14,PB1*%
%TO.N,Net-(U2-Pad14)*%
X137130000Y-81865000D03*
%TO.P,U2,15,VSS*%
%TO.N,GND*%
X137130000Y-81215000D03*
%TO.P,U2,16,VDD*%
%TO.N,VDD*%
X137130000Y-80565000D03*
%TO.P,U2,17,I2C_SCL*%
%TO.N,Net-(U2-Pad17)*%
X137130000Y-79915000D03*
%TO.P,U2,18,I2C_SDA*%
%TO.N,Net-(U2-Pad18)*%
X137130000Y-79265000D03*
%TO.P,U2,19,SWDIO*%
%TO.N,/SWDIO*%
X137130000Y-78615000D03*
%TO.P,U2,20,SWCLK*%
%TO.N,/SWDCLK*%
X137130000Y-77965000D03*
%TD*%
D16*
%TO.P,U1,1,IN*%
%TO.N,VDD*%
X124400000Y-73700000D03*
%TO.P,U1,2,GND*%
%TO.N,GND*%
X123450000Y-73700000D03*
%TO.P,U1,3,EN*%
%TO.N,VDD*%
X122500000Y-73700000D03*
%TO.P,U1,4,NC*%
%TO.N,Net-(U1-Pad4)*%
X122500000Y-75900000D03*
%TO.P,U1,5,OUT*%
%TO.N,Net-(C3-Pad2)*%
X124400000Y-75900000D03*
%TD*%
D17*
%TO.P,R7,1*%
%TO.N,Net-(Q4-Pad1)*%
X138650000Y-76400000D03*
%TO.P,R7,2*%
%TO.N,Net-(R7-Pad2)*%
X137150000Y-76400000D03*
%TD*%
D18*
%TO.P,R6,1*%
%TO.N,GND*%
X129200000Y-73600000D03*
%TO.P,R6,2*%
%TO.N,Net-(C5-Pad2)*%
X129200000Y-75100000D03*
%TD*%
%TO.P,R5,1*%
%TO.N,Net-(C5-Pad2)*%
X127600000Y-75100000D03*
%TO.P,R5,2*%
%TO.N,VDD*%
X127600000Y-73600000D03*
%TD*%
D17*
%TO.P,R4,1*%
%TO.N,Net-(Q3-Pad3)*%
X124850000Y-84400000D03*
%TO.P,R4,2*%
%TO.N,Net-(D4-Pad2)*%
X126350000Y-84400000D03*
%TD*%
D18*
%TO.P,R3,1*%
%TO.N,Net-(Q2-Pad3)*%
X129100000Y-83950000D03*
%TO.P,R3,2*%
%TO.N,Net-(D3-Pad2)*%
X129100000Y-82450000D03*
%TD*%
%TO.P,R2,1*%
%TO.N,Net-(Q1-Pad3)*%
X133200000Y-86750000D03*
%TO.P,R2,2*%
%TO.N,Net-(D2-Pad2)*%
X133200000Y-85250000D03*
%TD*%
%TO.P,R1,1*%
%TO.N,Net-(D1-Pad1)*%
X131600000Y-69650000D03*
%TO.P,R1,2*%
%TO.N,Net-(R1-Pad2)*%
X131600000Y-71150000D03*
%TD*%
D19*
%TO.P,Q4,1,G*%
%TO.N,Net-(Q4-Pad1)*%
X140000000Y-76400000D03*
%TO.P,Q4,2,S*%
%TO.N,VDD*%
X140000000Y-77700000D03*
%TO.P,Q4,3,D*%
%TO.N,Net-(C8-Pad2)*%
X142000000Y-77050000D03*
%TD*%
D20*
%TO.P,Q3,1,G*%
%TO.N,Net-(Q3-Pad1)*%
X126250000Y-80800000D03*
%TO.P,Q3,2,S*%
%TO.N,GND*%
X124950000Y-80800000D03*
%TO.P,Q3,3,D*%
%TO.N,Net-(Q3-Pad3)*%
X125600000Y-82800000D03*
%TD*%
%TO.P,Q2,1,G*%
%TO.N,Net-(Q2-Pad1)*%
X131550000Y-85400000D03*
%TO.P,Q2,2,S*%
%TO.N,GND*%
X130250000Y-85400000D03*
%TO.P,Q2,3,D*%
%TO.N,Net-(Q2-Pad3)*%
X130900000Y-87400000D03*
%TD*%
%TO.P,Q1,1,G*%
%TO.N,Net-(Q1-Pad1)*%
X136150000Y-85400000D03*
%TO.P,Q1,2,S*%
%TO.N,GND*%
X134850000Y-85400000D03*
%TO.P,Q1,3,D*%
%TO.N,Net-(Q1-Pad3)*%
X135500000Y-87400000D03*
%TD*%
D21*
%TO.P,L2,1*%
%TO.N,Net-(C11-Pad2)*%
X149425000Y-73175000D03*
%TO.P,L2,2*%
%TO.N,Net-(C12-Pad2)*%
X147125000Y-73175000D03*
%TD*%
D22*
%TO.P,L1,1*%
%TO.N,Net-(C10-Pad2)*%
X150325000Y-78575000D03*
%TO.P,L1,2*%
%TO.N,Net-(C11-Pad2)*%
X150325000Y-76275000D03*
%TD*%
D23*
%TO.P,J1,1,Pin_1*%
%TO.N,VDD*%
X138694134Y-68471908D03*
D24*
%TO.P,J1,2,Pin_2*%
%TO.N,/SWDIO*%
X138694134Y-69741908D03*
%TO.P,J1,3,Pin_3*%
%TO.N,GND*%
X137424134Y-68471908D03*
%TO.P,J1,4,Pin_4*%
%TO.N,/SWDCLK*%
X137424134Y-69741908D03*
%TO.P,J1,5,Pin_5*%
%TO.N,GND*%
X136154134Y-68471908D03*
%TO.P,J1,6,Pin_6*%
%TO.N,/SWO*%
X136154134Y-69741908D03*
%TO.P,J1,7,Pin_7*%
%TO.N,Net-(J1-Pad7)*%
X134884134Y-68471908D03*
%TO.P,J1,8,Pin_8*%
%TO.N,Net-(J1-Pad8)*%
X134884134Y-69741908D03*
%TO.P,J1,9,Pin_9*%
%TO.N,GND*%
X133614134Y-68471908D03*
%TO.P,J1,10,Pin_10*%
%TO.N,/~RESET*%
X133614134Y-69741908D03*
%TD*%
D10*
%TO.P,H2,1,1*%
%TO.N,GND*%
X145500000Y-76900000D03*
%TD*%
%TO.P,H1,1,1*%
%TO.N,Net-(C12-Pad2)*%
X143000000Y-74600000D03*
%TD*%
D17*
%TO.P,FB1,1*%
%TO.N,Net-(C7-Pad2)*%
X133200000Y-76400000D03*
%TO.P,FB1,2*%
%TO.N,VDD*%
X134700000Y-76400000D03*
%TD*%
D25*
%TO.P,D4,1,K*%
%TO.N,VDD*%
X120650000Y-84800000D03*
%TO.P,D4,2,A*%
%TO.N,Net-(D4-Pad2)*%
X123150000Y-84800000D03*
%TD*%
%TO.P,D3,1,K*%
%TO.N,VDD*%
X120650000Y-82700000D03*
%TO.P,D3,2,A*%
%TO.N,Net-(D3-Pad2)*%
X123150000Y-82700000D03*
%TD*%
%TO.P,D2,1,K*%
%TO.N,VDD*%
X120650000Y-80600000D03*
%TO.P,D2,2,A*%
%TO.N,Net-(D2-Pad2)*%
X123150000Y-80600000D03*
%TD*%
D26*
%TO.P,D1,2,A*%
%TO.N,VDD*%
X131600000Y-66800000D03*
%TO.P,D1,1,K*%
%TO.N,Net-(D1-Pad1)*%
X131600000Y-68400000D03*
%TD*%
D27*
%TO.P,C12,2*%
%TO.N,Net-(C12-Pad2)*%
X145225000Y-73175000D03*
%TO.P,C12,1*%
%TO.N,GND*%
X145225000Y-74675000D03*
%TD*%
%TO.P,C11,2*%
%TO.N,Net-(C11-Pad2)*%
X151325000Y-73975000D03*
%TO.P,C11,1*%
%TO.N,GND*%
X151325000Y-72475000D03*
%TD*%
%TO.P,C10,2*%
%TO.N,Net-(C10-Pad2)*%
X147525000Y-77325000D03*
%TO.P,C10,1*%
%TO.N,GND*%
X147525000Y-78825000D03*
%TD*%
D28*
%TO.P,C9,2*%
%TO.N,VDD*%
X139500000Y-86600000D03*
%TO.P,C9,1*%
%TO.N,GND*%
X141000000Y-86600000D03*
%TD*%
%TO.P,C8,2*%
%TO.N,Net-(C8-Pad2)*%
X144575000Y-78875000D03*
%TO.P,C8,1*%
%TO.N,GND*%
X146075000Y-78875000D03*
%TD*%
D27*
%TO.P,C7,2*%
%TO.N,Net-(C7-Pad2)*%
X129300000Y-80300000D03*
%TO.P,C7,1*%
%TO.N,GND*%
X129300000Y-78800000D03*
%TD*%
%TO.P,C6,2*%
%TO.N,VDD*%
X139000000Y-80650000D03*
%TO.P,C6,1*%
%TO.N,GND*%
X139000000Y-82150000D03*
%TD*%
D28*
%TO.P,C5,2*%
%TO.N,Net-(C5-Pad2)*%
X128200000Y-76400000D03*
%TO.P,C5,1*%
%TO.N,Net-(C5-Pad1)*%
X126700000Y-76400000D03*
%TD*%
D29*
%TO.P,C4,1*%
%TO.N,VDD*%
X140000000Y-74100000D03*
D30*
%TO.P,C4,2*%
%TO.N,GND*%
X135000000Y-74100000D03*
%TD*%
D27*
%TO.P,C3,2*%
%TO.N,Net-(C3-Pad2)*%
X126000000Y-74950000D03*
%TO.P,C3,1*%
%TO.N,GND*%
X126000000Y-73450000D03*
%TD*%
%TO.P,C2,2*%
%TO.N,/~RESET*%
X127800000Y-79500000D03*
%TO.P,C2,1*%
%TO.N,GND*%
X127800000Y-78000000D03*
%TD*%
D28*
%TO.P,C1,2*%
%TO.N,VDD*%
X124600000Y-72100000D03*
%TO.P,C1,1*%
%TO.N,GND*%
X123100000Y-72100000D03*
%TD*%
D31*
%TO.N,GND*%
X129000000Y-73100000D03*
X149925000Y-81425000D03*
X150700000Y-72500000D03*
X151400000Y-71800000D03*
X145200000Y-75300000D03*
X145800000Y-74700000D03*
X144600000Y-74700000D03*
X147250000Y-79950000D03*
X146450000Y-79950000D03*
X146850000Y-79400000D03*
X146850000Y-78750000D03*
X125400000Y-73400000D03*
X126000000Y-72800000D03*
X122500000Y-72100000D03*
X123100000Y-71500000D03*
X127200000Y-78000000D03*
X130050000Y-78050000D03*
X128700000Y-78200000D03*
X125000000Y-80100000D03*
X130200000Y-84700000D03*
X134800000Y-84700000D03*
X141000000Y-87200000D03*
X141600000Y-86600000D03*
X135900000Y-81300000D03*
X139000000Y-82900000D03*
X140700000Y-81600000D03*
X142500000Y-79800000D03*
%TO.N,Net-(U2-Pad18)*%
X140500000Y-82500000D03*
X138500000Y-79000000D03*
%TO.N,Net-(U2-Pad17)*%
X138400000Y-79800000D03*
X141300000Y-84200000D03*
%TO.N,GND*%
X122500000Y-77900000D03*
X123300000Y-77200000D03*
%TD*%
D32*
%TO.N,GND*%
X129200000Y-73600000D02*
X129000000Y-73100000D01*
X148800000Y-81400000D02*
X149900000Y-81400000D01*
X149900000Y-81400000D02*
X149925000Y-81425000D01*
X148800000Y-81400000D02*
X147900000Y-81400000D01*
X147900000Y-81400000D02*
X146450000Y-79950000D01*
D33*
X147250000Y-79950000D02*
X147250000Y-79150000D01*
X147250000Y-79150000D02*
X146925000Y-78825000D01*
X146450000Y-79950000D02*
X146450000Y-79150000D01*
X146450000Y-79150000D02*
X146725000Y-78875000D01*
X147525000Y-78825000D02*
X146925000Y-78825000D01*
X146925000Y-78825000D02*
X146850000Y-78750000D01*
X146075000Y-78875000D02*
X146725000Y-78875000D01*
X146725000Y-78875000D02*
X146850000Y-78750000D01*
X147250000Y-79950000D02*
X146450000Y-79950000D01*
X146850000Y-79400000D02*
X146850000Y-79550000D01*
X146850000Y-79550000D02*
X147250000Y-79950000D01*
X146850000Y-79550000D02*
X146450000Y-79950000D01*
X146850000Y-78750000D02*
X146850000Y-79400000D01*
D34*
%TO.N,/~RESET*%
X132500000Y-71900000D02*
X132800000Y-72200000D01*
X130700000Y-70800000D02*
X130700000Y-71600000D01*
X131000000Y-70500000D02*
X130700000Y-70800000D01*
X133614134Y-69741908D02*
X132856042Y-70500000D01*
X130700000Y-71600000D02*
X130900000Y-71800000D01*
X132856042Y-70500000D02*
X131000000Y-70500000D01*
X130900000Y-71800000D02*
X132400000Y-71800000D01*
X132400000Y-71800000D02*
X132500000Y-71900000D01*
X131230000Y-79915000D02*
X132158200Y-79915000D01*
X132158200Y-79915000D02*
X132695999Y-79377201D01*
X132695999Y-79377201D02*
X132695999Y-77095999D01*
X132695999Y-73604001D02*
X132600000Y-73700000D01*
X132695999Y-77095999D02*
X132600000Y-77000000D01*
X132800000Y-73200000D02*
X132800000Y-73491998D01*
X132600000Y-73700000D02*
X132600000Y-77000000D01*
X132800000Y-73491998D02*
X132695999Y-73595999D01*
X132800000Y-72200000D02*
X132800000Y-73200000D01*
X132695999Y-73595999D02*
X132695999Y-73604001D01*
%TO.N,Net-(R1-Pad2)*%
X133200000Y-75100000D02*
X133200000Y-72000000D01*
X136265000Y-83165000D02*
X133704001Y-80604001D01*
X133704001Y-75604001D02*
X133200000Y-75100000D01*
X137130000Y-83165000D02*
X136265000Y-83165000D01*
X133704001Y-80604001D02*
X133704001Y-75604001D01*
X133200000Y-72000000D02*
X132350000Y-71150000D01*
X132350000Y-71150000D02*
X131600000Y-71150000D01*
D33*
%TO.N,GND*%
X145500000Y-76900000D02*
X145500000Y-74950000D01*
X145500000Y-74950000D02*
X145225000Y-74675000D01*
%TO.N,Net-(C12-Pad2)*%
X145225000Y-73175000D02*
X144425000Y-73175000D01*
X144425000Y-73175000D02*
X143000000Y-74600000D01*
%TO.N,Net-(D2-Pad2)*%
X123150000Y-80600000D02*
X123100000Y-80600000D01*
X123100000Y-80600000D02*
X120900000Y-78400000D01*
%TO.N,Net-(D3-Pad2)*%
X121900000Y-86600000D02*
X121900000Y-83950000D01*
X121900000Y-83950000D02*
X123150000Y-82700000D01*
%TO.N,Net-(D4-Pad2)*%
X124600000Y-86600000D02*
X124600000Y-86250000D01*
X124600000Y-86250000D02*
X123150000Y-84800000D01*
%TO.N,GND*%
X151325000Y-72475000D02*
X150725000Y-72475000D01*
X150725000Y-72475000D02*
X150700000Y-72500000D01*
X151325000Y-72475000D02*
X151325000Y-71875000D01*
X151325000Y-71875000D02*
X151400000Y-71800000D01*
X145225000Y-74675000D02*
X145225000Y-75275000D01*
X145225000Y-75275000D02*
X145200000Y-75300000D01*
X145225000Y-74675000D02*
X145775000Y-74675000D01*
X145775000Y-74675000D02*
X145800000Y-74700000D01*
X145225000Y-74675000D02*
X144625000Y-74675000D01*
X144625000Y-74675000D02*
X144600000Y-74700000D01*
D32*
X126000000Y-73450000D02*
X125450000Y-73450000D01*
X125450000Y-73450000D02*
X125400000Y-73400000D01*
X126000000Y-73450000D02*
X126000000Y-72800000D01*
X123100000Y-72100000D02*
X122500000Y-72100000D01*
X123100000Y-72100000D02*
X123100000Y-71500000D01*
D35*
X123300000Y-77895000D02*
X123300000Y-77200000D01*
X123300000Y-77895000D02*
X122505000Y-77895000D01*
X122505000Y-77895000D02*
X122500000Y-77900000D01*
D32*
X127800000Y-78000000D02*
X127200000Y-78000000D01*
D36*
X130050000Y-78050000D02*
X129300000Y-78800000D01*
X128700000Y-78200000D02*
X129300000Y-78800000D01*
D32*
X124950000Y-80150000D02*
X125000000Y-80100000D01*
X124950000Y-80800000D02*
X124950000Y-80150000D01*
X130250000Y-85400000D02*
X130250000Y-84750000D01*
X130250000Y-84750000D02*
X130200000Y-84700000D01*
X134850000Y-85400000D02*
X134850000Y-84750000D01*
X134850000Y-84750000D02*
X134800000Y-84700000D01*
X141000000Y-86600000D02*
X141000000Y-87200000D01*
X141000000Y-86600000D02*
X141600000Y-86600000D01*
X137130000Y-81215000D02*
X135985000Y-81215000D01*
X135985000Y-81215000D02*
X135900000Y-81300000D01*
X139000000Y-82900000D02*
X139000000Y-83400000D01*
X139000000Y-83400000D02*
X139225000Y-83625000D01*
X139000000Y-82150000D02*
X139000000Y-82900000D01*
D34*
X141400000Y-81900000D02*
X141000000Y-81900000D01*
D33*
X141000000Y-81900000D02*
X140700000Y-81600000D01*
D34*
X142500000Y-80500000D02*
X142500000Y-79800000D01*
%TO.N,Net-(U2-Pad18)*%
X138500000Y-79000000D02*
X137965000Y-79265000D01*
X137965000Y-79265000D02*
X137130000Y-79265000D01*
X140800000Y-82800000D02*
X140500000Y-82500000D01*
X140800000Y-82900000D02*
X140800000Y-82800000D01*
%TO.N,Net-(U2-Pad17)*%
X141175000Y-83625000D02*
X141175000Y-84075000D01*
X141175000Y-84075000D02*
X141300000Y-84200000D01*
X138185000Y-79915000D02*
X137130000Y-79915000D01*
X138400000Y-79800000D02*
X138300000Y-79800000D01*
X138300000Y-79800000D02*
X138185000Y-79915000D01*
X141175000Y-83625000D02*
X141825000Y-83625000D01*
X141825000Y-83625000D02*
X144675000Y-83625000D01*
%TO.N,Net-(U2-Pad18)*%
X140800000Y-82900000D02*
X140600000Y-83100000D01*
X140600000Y-83100000D02*
X140525000Y-83175000D01*
D35*
%TO.N,Net-(C5-Pad1)*%
X124300000Y-78305000D02*
X124795000Y-78305000D01*
X124795000Y-78305000D02*
X126700000Y-76400000D01*
%TO.N,Net-(C3-Pad2)*%
X124300000Y-77895000D02*
X124300000Y-76000000D01*
X124300000Y-76000000D02*
X124400000Y-75900000D01*
D37*
X126000000Y-74950000D02*
X125350000Y-74950000D01*
X125350000Y-74950000D02*
X124400000Y-75900000D01*
%TO.N,VDD*%
X120650000Y-82700000D02*
X120650000Y-84800000D01*
X120650000Y-80600000D02*
X120650000Y-82700000D01*
D32*
%TO.N,Net-(Q3-Pad3)*%
X124850000Y-84400000D02*
X124850000Y-83550000D01*
X124850000Y-83550000D02*
X125600000Y-82800000D01*
%TO.N,Net-(Q2-Pad3)*%
X129100000Y-83950000D02*
X129100000Y-85600000D01*
X129100000Y-85600000D02*
X130900000Y-87400000D01*
%TO.N,Net-(Q1-Pad1)*%
X136150000Y-85400000D02*
X136150000Y-84250000D01*
X136150000Y-84250000D02*
X136585000Y-83815000D01*
X136585000Y-83815000D02*
X137130000Y-83815000D01*
%TO.N,Net-(Q1-Pad3)*%
X133200000Y-86750000D02*
X134850000Y-86750000D01*
X134850000Y-86750000D02*
X135500000Y-87400000D01*
%TO.N,Net-(D2-Pad2)*%
X131230000Y-81865000D02*
X132265000Y-81865000D01*
X132265000Y-81865000D02*
X133200000Y-82800000D01*
X133200000Y-82800000D02*
X133200000Y-85250000D01*
%TO.N,Net-(Q2-Pad1)*%
X131230000Y-83815000D02*
X131230000Y-85080000D01*
X131230000Y-85080000D02*
X131550000Y-85400000D01*
%TO.N,Net-(D4-Pad2)*%
X123150000Y-84800000D02*
X123750000Y-85400000D01*
X123750000Y-85400000D02*
X125350000Y-85400000D01*
X125350000Y-85400000D02*
X126350000Y-84400000D01*
%TO.N,Net-(D2-Pad2)*%
X126565000Y-81865000D02*
X126200000Y-81500000D01*
X131230000Y-81865000D02*
X126565000Y-81865000D01*
X126200000Y-81500000D02*
X124050000Y-81500000D01*
X124050000Y-81500000D02*
X123150000Y-80600000D01*
%TO.N,Net-(D3-Pad2)*%
X123150000Y-82700000D02*
X123750000Y-82100000D01*
X123750000Y-82100000D02*
X126100000Y-82100000D01*
X126100000Y-82100000D02*
X126450000Y-82450000D01*
X126450000Y-82450000D02*
X129100000Y-82450000D01*
%TO.N,Net-(D4-Pad2)*%
X131230000Y-83165000D02*
X127585000Y-83165000D01*
X127585000Y-83165000D02*
X126350000Y-84400000D01*
%TO.N,Net-(D3-Pad2)*%
X131230000Y-82515000D02*
X129165000Y-82515000D01*
X129165000Y-82515000D02*
X129100000Y-82450000D01*
%TO.N,Net-(Q3-Pad1)*%
X131230000Y-81215000D02*
X126665000Y-81215000D01*
X126665000Y-81215000D02*
X126250000Y-80800000D01*
D36*
%TO.N,Net-(C12-Pad2)*%
X147125000Y-73175000D02*
X145225000Y-73175000D01*
%TO.N,Net-(C11-Pad2)*%
X151325000Y-73975000D02*
X150025000Y-73975000D01*
X150025000Y-73975000D02*
X149425000Y-73375000D01*
X149425000Y-73375000D02*
X149425000Y-73175000D01*
X151325000Y-73975000D02*
X151325000Y-75675000D01*
X151325000Y-75675000D02*
X150725000Y-76275000D01*
X150725000Y-76275000D02*
X150325000Y-76275000D01*
%TO.N,Net-(C10-Pad2)*%
X147525000Y-77325000D02*
X148025000Y-77325000D01*
X148025000Y-77325000D02*
X149275000Y-78575000D01*
X149275000Y-78575000D02*
X150325000Y-78575000D01*
D32*
X148800000Y-80400000D02*
X148800000Y-80100000D01*
X148800000Y-80100000D02*
X150325000Y-78575000D01*
D34*
%TO.N,Net-(U2-Pad14)*%
X138300000Y-84100000D02*
X138900000Y-84700000D01*
X139875000Y-84975000D02*
X139875000Y-85375000D01*
X138300000Y-82200000D02*
X138300000Y-84100000D01*
X137130000Y-81865000D02*
X137965000Y-81865000D01*
X138900000Y-84700000D02*
X139600000Y-84700000D01*
X137965000Y-81865000D02*
X138300000Y-82200000D01*
X139600000Y-84700000D02*
X139875000Y-84975000D01*
%TO.N,Net-(U2-Pad18)*%
X143600000Y-82400000D02*
X143100000Y-82900000D01*
X140525000Y-83175000D02*
X140525000Y-83625000D01*
X143100000Y-82900000D02*
X140800000Y-82900000D01*
X144400000Y-82400000D02*
X143600000Y-82400000D01*
%TO.N,Net-(U2-Pad17)*%
X144675000Y-83625000D02*
X145500000Y-82800000D01*
X145300000Y-81900000D02*
X144400000Y-81900000D01*
X145500000Y-82800000D02*
X145500000Y-82100000D01*
X145500000Y-82100000D02*
X145300000Y-81900000D01*
%TO.N,Net-(Q4-Pad1)*%
X138650000Y-76400000D02*
X140000000Y-76400000D01*
D36*
%TO.N,GND*%
X137130000Y-81215000D02*
X138064322Y-81215000D01*
X138600678Y-81750678D02*
X139000000Y-82150000D01*
X138064322Y-81215000D02*
X138600000Y-81750678D01*
X138600000Y-81750678D02*
X138600678Y-81750678D01*
%TO.N,VDD*%
X137130000Y-80565000D02*
X138915000Y-80565000D01*
X138915000Y-80565000D02*
X139000000Y-80650000D01*
D32*
%TO.N,Net-(C8-Pad2)*%
X148800000Y-81900000D02*
X146850000Y-81900000D01*
X146850000Y-81900000D02*
X146150000Y-81200000D01*
X144400000Y-80400000D02*
X144400000Y-79050000D01*
X144400000Y-79050000D02*
X144575000Y-78875000D01*
D36*
X144575000Y-78875000D02*
X143825000Y-78875000D01*
X143825000Y-78875000D02*
X142000000Y-77050000D01*
D34*
%TO.N,Net-(C5-Pad2)*%
X132135000Y-78615000D02*
X132300000Y-78450000D01*
X131230000Y-78615000D02*
X132135000Y-78615000D01*
X132300000Y-77600000D02*
X131100000Y-76400000D01*
X132300000Y-78450000D02*
X132300000Y-77600000D01*
X131100000Y-76400000D02*
X128200000Y-76400000D01*
D32*
%TO.N,Net-(D1-Pad1)*%
X131600000Y-68400000D02*
X131600000Y-69650000D01*
%TO.N,VDD*%
X138694134Y-68471908D02*
X138694134Y-67594134D01*
X138694134Y-67594134D02*
X137900000Y-66800000D01*
X137900000Y-66800000D02*
X131600000Y-66800000D01*
D34*
%TO.N,/SWDIO*%
X138694134Y-69741908D02*
X138100000Y-70336042D01*
X138100000Y-70336042D02*
X138100000Y-77250000D01*
X138250000Y-78350000D02*
X137985000Y-78615000D01*
X138100000Y-77250000D02*
X138250000Y-77400000D01*
X138250000Y-77400000D02*
X138250000Y-78350000D01*
X137985000Y-78615000D02*
X137130000Y-78615000D01*
%TO.N,/SWDCLK*%
X137424134Y-69741908D02*
X137700000Y-70017774D01*
X137700000Y-70017774D02*
X137700000Y-77750000D01*
X137485000Y-77965000D02*
X137130000Y-77965000D01*
X137700000Y-77750000D02*
X137485000Y-77965000D01*
%TO.N,Net-(R7-Pad2)*%
X134150000Y-75750000D02*
X134300000Y-75600000D01*
X134150000Y-80463200D02*
X134150000Y-75750000D01*
X137130000Y-82515000D02*
X136201800Y-82515000D01*
X134300000Y-75600000D02*
X136350000Y-75600000D01*
X136201800Y-82515000D02*
X134150000Y-80463200D01*
X136350000Y-75600000D02*
X137150000Y-76400000D01*
%TO.N,/~RESET*%
X127850000Y-79550000D02*
X129850000Y-79550000D01*
X127800000Y-79500000D02*
X127850000Y-79550000D01*
X129850000Y-79550000D02*
X130215000Y-79915000D01*
X130215000Y-79915000D02*
X131230000Y-79915000D01*
D32*
%TO.N,Net-(C8-Pad2)*%
X146150000Y-81200000D02*
X145350000Y-80400000D01*
X145350000Y-80400000D02*
X144400000Y-80400000D01*
D34*
%TO.N,Net-(C5-Pad2)*%
X128200000Y-75700000D02*
X128800000Y-75100000D01*
X128800000Y-75100000D02*
X129200000Y-75100000D01*
X128200000Y-76400000D02*
X128200000Y-75700000D01*
X128200000Y-75700000D02*
X127600000Y-75100000D01*
D35*
%TO.N,Net-(C5-Pad1)*%
X126600000Y-76500000D02*
X126700000Y-76400000D01*
D32*
%TO.N,Net-(C8-Pad2)*%
X144400000Y-80400000D02*
X144050000Y-80400000D01*
D38*
%TO.N,Net-(U4-Pad3)*%
X144400000Y-81400000D02*
X143450000Y-81400000D01*
X142950000Y-81900000D02*
X142500000Y-81900000D01*
X143450000Y-81400000D02*
X142950000Y-81900000D01*
D35*
%TO.N,Net-(U4-Pad2)*%
X141400000Y-80650000D02*
X141950000Y-81200000D01*
X143050000Y-81200000D02*
X143350000Y-80900000D01*
X141950000Y-81200000D02*
X143050000Y-81200000D01*
X143350000Y-80900000D02*
X144400000Y-80900000D01*
D34*
X141400000Y-80500000D02*
X141400000Y-80650000D01*
D32*
%TO.N,VDD*%
X140525000Y-85375000D02*
X140525000Y-85794322D01*
X139719322Y-86600000D02*
X139500000Y-86600000D01*
X140525000Y-85794322D02*
X139719322Y-86600000D01*
D36*
X139875000Y-83625000D02*
X139875000Y-84175000D01*
X139875000Y-84175000D02*
X140400000Y-84700000D01*
X140400000Y-84700000D02*
X140525000Y-84825000D01*
X140525000Y-84825000D02*
X140525000Y-85375000D01*
X134700000Y-76400000D02*
X134700000Y-79400000D01*
X134700000Y-79400000D02*
X135865000Y-80565000D01*
X135865000Y-80565000D02*
X137130000Y-80565000D01*
D34*
X122500000Y-74300000D02*
X122800000Y-74600000D01*
X122800000Y-74600000D02*
X124000000Y-74600000D01*
X122500000Y-73700000D02*
X122500000Y-74300000D01*
X124000000Y-74600000D02*
X124400000Y-74200000D01*
X124400000Y-74200000D02*
X124400000Y-73700000D01*
D36*
%TO.N,GND*%
X123450000Y-73700000D02*
X123450000Y-72450000D01*
X123450000Y-72450000D02*
X123100000Y-72100000D01*
%TO.N,VDD*%
X124400000Y-73700000D02*
X124400000Y-72300000D01*
X124400000Y-72300000D02*
X124600000Y-72100000D01*
%TO.N,GND*%
X141000000Y-86600000D02*
X141175000Y-86425000D01*
X141175000Y-86425000D02*
X141175000Y-85375000D01*
%TO.N,VDD*%
X139225000Y-85375000D02*
X139225000Y-86325000D01*
X139225000Y-86325000D02*
X139500000Y-86600000D01*
%TO.N,Net-(C7-Pad2)*%
X131230000Y-80565000D02*
X132355000Y-80565000D01*
X132355000Y-80565000D02*
X133200000Y-79720000D01*
X133200000Y-79720000D02*
X133200000Y-76400000D01*
%TO.N,GND*%
X127800000Y-78000000D02*
X128500000Y-78000000D01*
X128500000Y-78000000D02*
X128700000Y-78200000D01*
%TO.N,Net-(C7-Pad2)*%
X131230000Y-80565000D02*
X129565000Y-80565000D01*
X129565000Y-80565000D02*
X129300000Y-80300000D01*
%TO.N,GND*%
X131230000Y-77965000D02*
X130135000Y-77965000D01*
X130135000Y-77965000D02*
X130050000Y-78050000D01*
%TD*%
%TO.N,VDD*%
D39*
X130689166Y-66384721D02*
X130688164Y-66394891D01*
X130688164Y-66643078D01*
X130749086Y-66704000D01*
X131443079Y-66704001D01*
X131443080Y-66704000D01*
X132450914Y-66704001D01*
X132511836Y-66643079D01*
X132511836Y-66394891D01*
X132510834Y-66384721D01*
X132496767Y-66314000D01*
X144586000Y-66314000D01*
X144586001Y-70992231D01*
X144585943Y-71059343D01*
X144591132Y-71082184D01*
X144599349Y-71099296D01*
X144582722Y-71091276D01*
X144559892Y-71086047D01*
X144553663Y-71086041D01*
X144547789Y-71083979D01*
X144524520Y-71081328D01*
X144482721Y-71085979D01*
X144440657Y-71085943D01*
X144417816Y-71091133D01*
X144412208Y-71093826D01*
X144405998Y-71094517D01*
X144383837Y-71102245D01*
X144348463Y-71124435D01*
X144310336Y-71142744D01*
X144292005Y-71157325D01*
X144265618Y-71190319D01*
X143269938Y-72186000D01*
X139006621Y-72186000D01*
X138940657Y-72185943D01*
X138917816Y-72191132D01*
X138895826Y-72201692D01*
X138872043Y-72207117D01*
X138850937Y-72217274D01*
X138832075Y-72232304D01*
X138810334Y-72242744D01*
X138792004Y-72257325D01*
X138776768Y-72276376D01*
X138757688Y-72291580D01*
X138743076Y-72309885D01*
X138732598Y-72331608D01*
X138717519Y-72350464D01*
X138707315Y-72371598D01*
X138701895Y-72395262D01*
X138691276Y-72417278D01*
X138686046Y-72440111D01*
X138686020Y-72470344D01*
X138686000Y-72470520D01*
X138686000Y-72493378D01*
X138685943Y-72559330D01*
X138686000Y-72559581D01*
X138686000Y-72593378D01*
X138685943Y-72659343D01*
X138691132Y-72682184D01*
X138701691Y-72704173D01*
X138707117Y-72727958D01*
X138717275Y-72749064D01*
X138732304Y-72767924D01*
X138742743Y-72789665D01*
X138757325Y-72807997D01*
X138776381Y-72823236D01*
X138791581Y-72842311D01*
X138809886Y-72856924D01*
X138831605Y-72867401D01*
X138850462Y-72882480D01*
X138871596Y-72892685D01*
X138895264Y-72898105D01*
X138917279Y-72908725D01*
X138940112Y-72913954D01*
X138970343Y-72913980D01*
X138970519Y-72914000D01*
X138993379Y-72914000D01*
X139059330Y-72914057D01*
X139059581Y-72914000D01*
X143346453Y-72914000D01*
X143352208Y-72916021D01*
X143375480Y-72918672D01*
X143417466Y-72914000D01*
X143429511Y-72914000D01*
X143441112Y-72912693D01*
X143452450Y-72910107D01*
X143494001Y-72905483D01*
X143516160Y-72897756D01*
X143521628Y-72894326D01*
X143527959Y-72892882D01*
X143549064Y-72882725D01*
X143582146Y-72856363D01*
X143592049Y-72850151D01*
X143601215Y-72842847D01*
X143609480Y-72834582D01*
X143642312Y-72808420D01*
X143656925Y-72790114D01*
X143659699Y-72784363D01*
X144684166Y-71759897D01*
X144689666Y-71757256D01*
X144707997Y-71742675D01*
X144734386Y-71709677D01*
X144742898Y-71701165D01*
X144750179Y-71692036D01*
X144756367Y-71682191D01*
X144782478Y-71649540D01*
X144792684Y-71628407D01*
X144794126Y-71622113D01*
X144797579Y-71616618D01*
X144805320Y-71594513D01*
X144810072Y-71552485D01*
X144812683Y-71541085D01*
X144814000Y-71529438D01*
X144814000Y-71517744D01*
X144818715Y-71476036D01*
X144816104Y-71452758D01*
X144814000Y-71446733D01*
X144814000Y-71417744D01*
X144818715Y-71376036D01*
X144816104Y-71352758D01*
X144802237Y-71313050D01*
X144799269Y-71300037D01*
X144817279Y-71308725D01*
X144840112Y-71313954D01*
X144870343Y-71313980D01*
X144870519Y-71314000D01*
X144893379Y-71314000D01*
X144959330Y-71314057D01*
X144959581Y-71314000D01*
X151009778Y-71314000D01*
X151005936Y-71316218D01*
X150991996Y-71327915D01*
X150945396Y-71383450D01*
X150908444Y-71420402D01*
X150852916Y-71466996D01*
X150841219Y-71480936D01*
X150804975Y-71543713D01*
X150763403Y-71603084D01*
X150755712Y-71619576D01*
X150750980Y-71637234D01*
X150741841Y-71653064D01*
X150735617Y-71670165D01*
X150723032Y-71741542D01*
X150704270Y-71811559D01*
X150702684Y-71829688D01*
X150704889Y-71854889D01*
X150679688Y-71852684D01*
X150661559Y-71854270D01*
X150591554Y-71873028D01*
X150520164Y-71885616D01*
X150503064Y-71891840D01*
X150487233Y-71900980D01*
X150469577Y-71905711D01*
X150453084Y-71913402D01*
X150393719Y-71954970D01*
X150330936Y-71991218D01*
X150316997Y-72002914D01*
X150305591Y-72016507D01*
X150291995Y-72027916D01*
X150245396Y-72083450D01*
X150243114Y-72085732D01*
X150243114Y-71794891D01*
X150242112Y-71784722D01*
X150222819Y-71687726D01*
X150214979Y-71668799D01*
X150157183Y-71582302D01*
X150142698Y-71567817D01*
X150056201Y-71510021D01*
X150037274Y-71502181D01*
X149940278Y-71482888D01*
X149930109Y-71481886D01*
X148919891Y-71481886D01*
X148909722Y-71482888D01*
X148812726Y-71502181D01*
X148793799Y-71510021D01*
X148707302Y-71567817D01*
X148692817Y-71582302D01*
X148635021Y-71668799D01*
X148627181Y-71687726D01*
X148607888Y-71784722D01*
X148606886Y-71794891D01*
X148606886Y-74555109D01*
X148607888Y-74565278D01*
X148627181Y-74662274D01*
X148635021Y-74681201D01*
X148692817Y-74767698D01*
X148707302Y-74782183D01*
X148793799Y-74839979D01*
X148812726Y-74847819D01*
X148909722Y-74867112D01*
X148919891Y-74868114D01*
X149930109Y-74868114D01*
X149940278Y-74867112D01*
X150037274Y-74847819D01*
X150056201Y-74839979D01*
X150142698Y-74782183D01*
X150157183Y-74767698D01*
X150214979Y-74681201D01*
X150222819Y-74662274D01*
X150242112Y-74565278D01*
X150243114Y-74555109D01*
X150243114Y-74491000D01*
X150653725Y-74491000D01*
X150660021Y-74506201D01*
X150717817Y-74592698D01*
X150732302Y-74607183D01*
X150809000Y-74658432D01*
X150809001Y-75456886D01*
X148944891Y-75456886D01*
X148934722Y-75457888D01*
X148837726Y-75477181D01*
X148818799Y-75485021D01*
X148732302Y-75542817D01*
X148717817Y-75557302D01*
X148660021Y-75643799D01*
X148652181Y-75662726D01*
X148632888Y-75759722D01*
X148631886Y-75769891D01*
X148631886Y-76780109D01*
X148632888Y-76790278D01*
X148652181Y-76887274D01*
X148660021Y-76906201D01*
X148717817Y-76992698D01*
X148732302Y-77007183D01*
X148818799Y-77064979D01*
X148837726Y-77072819D01*
X148934722Y-77092112D01*
X148944891Y-77093114D01*
X151705109Y-77093114D01*
X151715278Y-77092112D01*
X151812274Y-77072819D01*
X151831201Y-77064979D01*
X151886001Y-77028363D01*
X151886001Y-77821637D01*
X151831201Y-77785021D01*
X151812274Y-77777181D01*
X151715278Y-77757888D01*
X151705109Y-77756886D01*
X149186620Y-77756886D01*
X148425803Y-76996070D01*
X148402817Y-76961669D01*
X148388331Y-76947183D01*
X148235017Y-76844741D01*
X148216090Y-76836902D01*
X148202073Y-76834114D01*
X148197819Y-76812727D01*
X148189979Y-76793799D01*
X148132183Y-76707302D01*
X148117698Y-76692817D01*
X148031201Y-76635021D01*
X148012274Y-76627181D01*
X147915278Y-76607888D01*
X147905109Y-76606886D01*
X147144891Y-76606886D01*
X147134722Y-76607888D01*
X147037726Y-76627181D01*
X147018799Y-76635021D01*
X146932302Y-76692817D01*
X146917817Y-76707302D01*
X146860021Y-76793799D01*
X146852181Y-76812726D01*
X146832888Y-76909722D01*
X146831886Y-76919891D01*
X146831886Y-77730109D01*
X146832888Y-77740278D01*
X146852181Y-77837274D01*
X146860021Y-77856201D01*
X146917817Y-77942698D01*
X146932302Y-77957183D01*
X147018799Y-78014979D01*
X147037726Y-78022819D01*
X147134722Y-78042112D01*
X147144891Y-78043114D01*
X147905109Y-78043114D01*
X147915278Y-78042112D01*
X147996269Y-78026002D01*
X148631886Y-78661620D01*
X148631886Y-79080109D01*
X148632888Y-79090278D01*
X148652181Y-79187274D01*
X148660021Y-79206201D01*
X148717817Y-79292698D01*
X148732302Y-79307183D01*
X148818799Y-79364979D01*
X148837726Y-79372819D01*
X148863109Y-79377868D01*
X148502939Y-79738038D01*
X148472718Y-79758231D01*
X148458232Y-79772717D01*
X148366841Y-79909492D01*
X148359001Y-79928419D01*
X148358311Y-79931886D01*
X148094891Y-79931886D01*
X148084722Y-79932888D01*
X147987726Y-79952181D01*
X147968799Y-79960021D01*
X147882302Y-80017817D01*
X147867817Y-80032302D01*
X147866000Y-80035021D01*
X147866000Y-79976878D01*
X147872316Y-79904687D01*
X147870730Y-79886559D01*
X147866000Y-79868906D01*
X147866000Y-79543114D01*
X147905109Y-79543114D01*
X147915278Y-79542112D01*
X148012274Y-79522819D01*
X148031201Y-79514979D01*
X148117698Y-79457183D01*
X148132183Y-79442698D01*
X148189979Y-79356201D01*
X148197819Y-79337274D01*
X148217112Y-79240278D01*
X148218114Y-79230109D01*
X148218114Y-78419891D01*
X148217112Y-78409722D01*
X148197819Y-78312726D01*
X148189979Y-78293799D01*
X148132183Y-78207302D01*
X148117698Y-78192817D01*
X148031201Y-78135021D01*
X148012274Y-78127181D01*
X147915278Y-78107888D01*
X147905109Y-78106886D01*
X147144891Y-78106886D01*
X147134722Y-78107888D01*
X147037726Y-78127181D01*
X147018799Y-78135021D01*
X147003522Y-78145229D01*
X147002686Y-78145005D01*
X146984477Y-78143413D01*
X146967299Y-78137160D01*
X146949377Y-78134000D01*
X146931093Y-78134000D01*
X146913441Y-78129270D01*
X146895313Y-78127684D01*
X146877104Y-78129277D01*
X146859098Y-78126102D01*
X146840902Y-78126102D01*
X146822896Y-78129277D01*
X146804687Y-78127684D01*
X146786559Y-78129270D01*
X146768907Y-78134000D01*
X146750622Y-78134000D01*
X146732700Y-78137160D01*
X146715518Y-78143414D01*
X146697314Y-78145007D01*
X146679737Y-78149716D01*
X146663170Y-78157441D01*
X146645162Y-78160617D01*
X146628063Y-78166840D01*
X146612230Y-78175982D01*
X146594577Y-78180712D01*
X146578084Y-78188402D01*
X146564792Y-78197709D01*
X146490278Y-78182888D01*
X146480109Y-78181886D01*
X145793415Y-78181886D01*
X145961681Y-78134906D01*
X145970346Y-78131632D01*
X146173067Y-78033632D01*
X146181016Y-78028875D01*
X146363179Y-77896526D01*
X146370159Y-77890437D01*
X146526007Y-77727921D01*
X146531799Y-77720691D01*
X146656403Y-77533146D01*
X146660823Y-77525005D01*
X146750247Y-77318359D01*
X146753156Y-77309564D01*
X146804729Y-77089682D01*
X146806088Y-77079141D01*
X146813673Y-76789459D01*
X146812867Y-76778862D01*
X146772873Y-76556583D01*
X146770429Y-76547648D01*
X146691943Y-76336604D01*
X146687955Y-76328243D01*
X146573335Y-76134433D01*
X146567930Y-76126910D01*
X146420802Y-75956461D01*
X146414150Y-75950015D01*
X146239163Y-75808313D01*
X146231474Y-75803147D01*
X146116000Y-75739664D01*
X146116000Y-75232327D01*
X146150400Y-75216286D01*
X146165306Y-75205848D01*
X146178231Y-75192923D01*
X146194064Y-75183782D01*
X146208004Y-75172085D01*
X146254603Y-75116551D01*
X146305848Y-75065307D01*
X146316285Y-75050401D01*
X146324010Y-75033834D01*
X146335763Y-75019828D01*
X146344861Y-75004069D01*
X146369656Y-74935945D01*
X146400283Y-74870265D01*
X146404993Y-74852687D01*
X146406586Y-74834482D01*
X146412840Y-74817300D01*
X146416000Y-74799378D01*
X146416000Y-74787995D01*
X146493799Y-74839979D01*
X146512726Y-74847819D01*
X146609722Y-74867112D01*
X146619891Y-74868114D01*
X147630109Y-74868114D01*
X147640278Y-74867112D01*
X147737274Y-74847819D01*
X147756201Y-74839979D01*
X147842698Y-74782183D01*
X147857183Y-74767698D01*
X147914979Y-74681201D01*
X147922819Y-74662274D01*
X147942112Y-74565278D01*
X147943114Y-74555109D01*
X147943114Y-71794891D01*
X147942112Y-71784722D01*
X147922819Y-71687726D01*
X147914979Y-71668799D01*
X147857183Y-71582302D01*
X147842698Y-71567817D01*
X147756201Y-71510021D01*
X147737274Y-71502181D01*
X147640278Y-71482888D01*
X147630109Y-71481886D01*
X146619891Y-71481886D01*
X146609722Y-71482888D01*
X146512726Y-71502181D01*
X146493799Y-71510021D01*
X146407302Y-71567817D01*
X146392817Y-71582302D01*
X146335021Y-71668799D01*
X146327181Y-71687726D01*
X146307888Y-71784722D01*
X146306886Y-71794891D01*
X146306886Y-72659000D01*
X145896275Y-72659000D01*
X145889979Y-72643799D01*
X145832183Y-72557302D01*
X145817698Y-72542817D01*
X145731201Y-72485021D01*
X145712274Y-72477181D01*
X145615278Y-72457888D01*
X145605109Y-72456886D01*
X144844891Y-72456886D01*
X144834722Y-72457888D01*
X144737726Y-72477181D01*
X144718799Y-72485021D01*
X144632303Y-72542817D01*
X144617818Y-72557302D01*
X144616683Y-72559000D01*
X144451878Y-72559000D01*
X144379687Y-72552684D01*
X144361559Y-72554270D01*
X144291553Y-72573028D01*
X144220164Y-72585616D01*
X144203065Y-72591840D01*
X144187233Y-72600980D01*
X144169574Y-72605712D01*
X144153082Y-72613403D01*
X144093715Y-72654973D01*
X144030937Y-72691218D01*
X144016996Y-72702915D01*
X143970401Y-72758444D01*
X143385180Y-73343666D01*
X143312273Y-73319130D01*
X143303265Y-73316967D01*
X143080514Y-73284075D01*
X143071267Y-73283542D01*
X142846212Y-73290614D01*
X142837016Y-73291727D01*
X142616771Y-73338542D01*
X142607917Y-73341265D01*
X142399442Y-73426343D01*
X142391211Y-73430591D01*
X142201097Y-73551241D01*
X142193748Y-73556880D01*
X142028004Y-73709289D01*
X142021769Y-73716140D01*
X141885634Y-73895492D01*
X141880712Y-73903339D01*
X141778489Y-74103964D01*
X141775034Y-74112559D01*
X141709953Y-74328115D01*
X141708075Y-74337186D01*
X141682195Y-74560859D01*
X141681952Y-74570119D01*
X141696091Y-74794841D01*
X141697492Y-74803998D01*
X141751202Y-75022663D01*
X141754202Y-75031427D01*
X141845785Y-75237127D01*
X141850290Y-75245221D01*
X141976852Y-75431451D01*
X141982719Y-75438620D01*
X142140261Y-75599494D01*
X142147304Y-75605510D01*
X142330843Y-75735945D01*
X142338841Y-75740619D01*
X142542577Y-75836489D01*
X142551276Y-75839673D01*
X142768770Y-75897950D01*
X142777895Y-75899543D01*
X143002271Y-75918384D01*
X143011534Y-75918335D01*
X143235701Y-75897146D01*
X143244809Y-75895457D01*
X143461681Y-75834906D01*
X143470346Y-75831632D01*
X143673067Y-75733632D01*
X143681016Y-75728875D01*
X143863179Y-75596526D01*
X143870159Y-75590437D01*
X144026007Y-75427921D01*
X144031799Y-75420691D01*
X144156403Y-75233146D01*
X144160823Y-75225005D01*
X144186538Y-75165581D01*
X144191996Y-75172085D01*
X144205936Y-75183782D01*
X144221769Y-75192923D01*
X144234694Y-75205848D01*
X144249600Y-75216286D01*
X144315281Y-75246913D01*
X144378063Y-75283160D01*
X144395162Y-75289384D01*
X144413172Y-75292560D01*
X144429737Y-75300284D01*
X144447314Y-75304993D01*
X144519507Y-75311309D01*
X144583627Y-75322616D01*
X144584000Y-75326879D01*
X144584000Y-75399378D01*
X144587160Y-75417300D01*
X144593414Y-75434482D01*
X144595007Y-75452687D01*
X144599717Y-75470265D01*
X144630344Y-75535945D01*
X144655139Y-75604069D01*
X144664237Y-75619828D01*
X144675990Y-75633834D01*
X144683715Y-75650401D01*
X144694152Y-75665307D01*
X144745397Y-75716551D01*
X144791996Y-75772085D01*
X144805936Y-75783782D01*
X144806700Y-75784223D01*
X144701097Y-75851241D01*
X144693748Y-75856880D01*
X144528004Y-76009289D01*
X144521769Y-76016140D01*
X144385634Y-76195492D01*
X144380712Y-76203339D01*
X144278489Y-76403964D01*
X144275034Y-76412559D01*
X144209953Y-76628115D01*
X144208075Y-76637186D01*
X144182195Y-76860859D01*
X144181952Y-76870119D01*
X144196091Y-77094841D01*
X144197492Y-77103998D01*
X144251202Y-77322663D01*
X144254202Y-77331427D01*
X144345785Y-77537127D01*
X144350290Y-77545221D01*
X144476852Y-77731451D01*
X144482719Y-77738620D01*
X144640261Y-77899494D01*
X144647304Y-77905510D01*
X144830843Y-78035945D01*
X144838841Y-78040619D01*
X145042577Y-78136489D01*
X145051276Y-78139673D01*
X145268770Y-78197950D01*
X145277895Y-78199543D01*
X145502271Y-78218384D01*
X145511534Y-78218335D01*
X145534623Y-78216153D01*
X145457302Y-78267817D01*
X145442817Y-78282302D01*
X145385021Y-78368799D01*
X145377181Y-78387726D01*
X145357888Y-78484722D01*
X145356886Y-78494891D01*
X145356886Y-79255109D01*
X145357888Y-79265278D01*
X145377181Y-79362274D01*
X145385021Y-79381201D01*
X145442817Y-79467698D01*
X145457302Y-79482183D01*
X145543799Y-79539979D01*
X145562726Y-79547819D01*
X145659722Y-79567112D01*
X145669891Y-79568114D01*
X145834001Y-79568114D01*
X145834000Y-79859721D01*
X145834000Y-79868907D01*
X145829270Y-79886560D01*
X145827684Y-79904688D01*
X145834000Y-79976879D01*
X145834000Y-80049378D01*
X145837160Y-80067300D01*
X145843414Y-80084482D01*
X145845007Y-80102687D01*
X145849717Y-80120266D01*
X145857442Y-80136831D01*
X145860616Y-80154834D01*
X145866840Y-80171935D01*
X145889582Y-80211326D01*
X145905139Y-80254069D01*
X145914237Y-80269828D01*
X145925990Y-80283834D01*
X145933715Y-80300401D01*
X145944152Y-80315307D01*
X145957078Y-80328232D01*
X145966218Y-80344064D01*
X145977916Y-80358005D01*
X146012759Y-80387241D01*
X146041995Y-80422084D01*
X146055936Y-80433782D01*
X146071768Y-80442922D01*
X146084693Y-80455848D01*
X146099599Y-80466285D01*
X146116166Y-80474010D01*
X146130172Y-80485763D01*
X146145931Y-80494861D01*
X146188676Y-80510419D01*
X146228063Y-80533160D01*
X146245162Y-80539383D01*
X146263170Y-80542559D01*
X146279737Y-80550284D01*
X146297314Y-80554993D01*
X146315518Y-80556586D01*
X146332700Y-80562840D01*
X146350622Y-80566000D01*
X146396109Y-80566000D01*
X146409304Y-80568327D01*
X147274977Y-81434000D01*
X147043023Y-81434000D01*
X145711964Y-80102941D01*
X145691769Y-80072717D01*
X145677283Y-80058231D01*
X145540507Y-79966840D01*
X145521580Y-79959001D01*
X145405938Y-79935999D01*
X145405938Y-79935998D01*
X145360243Y-79926909D01*
X145339757Y-79926909D01*
X145304107Y-79934000D01*
X145120870Y-79934000D01*
X145115278Y-79932888D01*
X145105109Y-79931886D01*
X144866000Y-79931886D01*
X144866000Y-79568114D01*
X144980109Y-79568114D01*
X144990278Y-79567112D01*
X145087274Y-79547819D01*
X145106201Y-79539979D01*
X145192698Y-79482183D01*
X145207183Y-79467698D01*
X145264979Y-79381201D01*
X145272819Y-79362274D01*
X145292112Y-79265278D01*
X145293114Y-79255109D01*
X145293114Y-78494891D01*
X145292112Y-78484722D01*
X145272819Y-78387726D01*
X145264979Y-78368799D01*
X145207183Y-78282302D01*
X145192698Y-78267817D01*
X145106201Y-78210021D01*
X145087274Y-78202181D01*
X144990278Y-78182888D01*
X144980109Y-78181886D01*
X144169891Y-78181886D01*
X144159722Y-78182888D01*
X144062726Y-78202181D01*
X144043799Y-78210021D01*
X143957302Y-78267817D01*
X143952426Y-78272693D01*
X142668114Y-76988381D01*
X142668114Y-76819891D01*
X142667112Y-76809722D01*
X142647819Y-76712726D01*
X142639979Y-76693799D01*
X142582183Y-76607302D01*
X142567698Y-76592817D01*
X142481201Y-76535021D01*
X142462274Y-76527181D01*
X142365278Y-76507888D01*
X142355109Y-76506886D01*
X141644891Y-76506886D01*
X141634722Y-76507888D01*
X141537726Y-76527181D01*
X141518799Y-76535021D01*
X141432302Y-76592817D01*
X141417817Y-76607302D01*
X141360021Y-76693799D01*
X141352181Y-76712726D01*
X141332888Y-76809722D01*
X141331886Y-76819891D01*
X141331886Y-77280109D01*
X141332888Y-77290278D01*
X141352181Y-77387274D01*
X141360021Y-77406201D01*
X141417817Y-77492698D01*
X141432302Y-77507183D01*
X141518799Y-77564979D01*
X141537726Y-77572819D01*
X141634722Y-77592112D01*
X141644891Y-77593114D01*
X141813381Y-77593114D01*
X143424199Y-79203933D01*
X143447183Y-79238331D01*
X143461669Y-79252817D01*
X143504584Y-79281492D01*
X143614983Y-79355259D01*
X143633909Y-79363098D01*
X143814757Y-79399071D01*
X143835243Y-79399071D01*
X143875820Y-79391000D01*
X143891569Y-79391000D01*
X143934001Y-79454503D01*
X143934000Y-79931886D01*
X143694891Y-79931886D01*
X143684722Y-79932888D01*
X143587726Y-79952181D01*
X143568799Y-79960021D01*
X143482302Y-80017817D01*
X143467817Y-80032302D01*
X143410021Y-80118799D01*
X143402181Y-80137726D01*
X143382888Y-80234722D01*
X143381886Y-80244891D01*
X143381886Y-80501824D01*
X143328182Y-80507800D01*
X143311675Y-80507800D01*
X143300075Y-80509106D01*
X143284479Y-80512663D01*
X143229617Y-80518769D01*
X143218114Y-80522781D01*
X143218114Y-80044891D01*
X143217112Y-80034722D01*
X143197819Y-79937726D01*
X143189979Y-79918799D01*
X143132183Y-79832303D01*
X143117698Y-79817818D01*
X143116000Y-79816683D01*
X143116000Y-79700622D01*
X143112840Y-79682701D01*
X143044861Y-79495931D01*
X143035762Y-79480171D01*
X142908004Y-79327915D01*
X142894064Y-79316218D01*
X142721936Y-79216840D01*
X142704836Y-79210616D01*
X142509099Y-79176102D01*
X142490901Y-79176102D01*
X142295164Y-79210616D01*
X142278064Y-79216840D01*
X142105936Y-79316218D01*
X142091996Y-79327915D01*
X141964238Y-79480171D01*
X141955139Y-79495931D01*
X141887160Y-79682701D01*
X141884000Y-79700622D01*
X141884000Y-79746557D01*
X141815278Y-79732888D01*
X141805109Y-79731886D01*
X140994891Y-79731886D01*
X140984722Y-79732888D01*
X140887726Y-79752181D01*
X140868799Y-79760021D01*
X140782302Y-79817817D01*
X140767817Y-79832302D01*
X140710021Y-79918799D01*
X140702181Y-79937726D01*
X140682888Y-80034722D01*
X140681886Y-80044891D01*
X140681886Y-80955109D01*
X140682888Y-80965278D01*
X140685239Y-80977100D01*
X140619507Y-80988691D01*
X140547314Y-80995007D01*
X140529737Y-80999716D01*
X140513172Y-81007440D01*
X140495162Y-81010616D01*
X140478063Y-81016840D01*
X140415281Y-81053087D01*
X140349600Y-81083714D01*
X140334694Y-81094152D01*
X140321769Y-81107077D01*
X140305936Y-81116218D01*
X140291996Y-81127915D01*
X140245397Y-81183449D01*
X140194152Y-81234693D01*
X140183715Y-81249599D01*
X140175990Y-81266166D01*
X140164237Y-81280172D01*
X140155139Y-81295931D01*
X140130344Y-81364055D01*
X140099717Y-81429735D01*
X140095007Y-81447313D01*
X140093414Y-81465518D01*
X140087160Y-81482700D01*
X140084000Y-81500622D01*
X140084000Y-81573121D01*
X140077684Y-81645312D01*
X140079270Y-81663440D01*
X140084000Y-81681093D01*
X140084000Y-81699378D01*
X140087160Y-81717299D01*
X140111956Y-81785425D01*
X140130712Y-81855423D01*
X140138402Y-81871916D01*
X140148885Y-81886888D01*
X140155139Y-81904069D01*
X140164238Y-81919829D01*
X140199695Y-81962086D01*
X140105936Y-82016218D01*
X140091996Y-82027915D01*
X139964238Y-82180171D01*
X139955139Y-82195931D01*
X139887160Y-82382701D01*
X139884000Y-82400622D01*
X139884000Y-82599378D01*
X139887160Y-82617299D01*
X139955139Y-82804069D01*
X139964238Y-82819829D01*
X139978497Y-82836822D01*
X139971000Y-82842975D01*
X139970999Y-83468079D01*
X139971000Y-83468080D01*
X139970999Y-84400914D01*
X140031921Y-84461836D01*
X140080109Y-84461836D01*
X140090279Y-84460834D01*
X140261408Y-84426794D01*
X140280334Y-84418955D01*
X140429680Y-84319166D01*
X140444166Y-84304680D01*
X140468598Y-84268114D01*
X140684000Y-84268114D01*
X140684000Y-84299378D01*
X140687160Y-84317299D01*
X140755139Y-84504069D01*
X140764238Y-84519829D01*
X140788514Y-84548761D01*
X140697046Y-84530566D01*
X140621000Y-84592976D01*
X140620999Y-85471000D01*
X140429000Y-85470999D01*
X140429001Y-84599086D01*
X140368079Y-84538164D01*
X140319891Y-84538164D01*
X140309721Y-84539166D01*
X140138592Y-84573206D01*
X140119666Y-84581045D01*
X140090864Y-84600290D01*
X139945648Y-84455074D01*
X139940419Y-84444184D01*
X139925838Y-84425852D01*
X139878846Y-84388272D01*
X139866163Y-84375589D01*
X139857037Y-84368310D01*
X139842311Y-84359055D01*
X139795788Y-84321850D01*
X139779000Y-84313743D01*
X139779001Y-83781921D01*
X139779000Y-83781920D01*
X139779001Y-82849086D01*
X139718079Y-82788164D01*
X139669891Y-82788164D01*
X139659721Y-82789166D01*
X139615530Y-82797956D01*
X139612840Y-82782701D01*
X139607310Y-82767507D01*
X139664979Y-82681201D01*
X139672819Y-82662274D01*
X139692112Y-82565278D01*
X139693114Y-82555109D01*
X139693114Y-81744891D01*
X139692112Y-81734722D01*
X139672819Y-81637726D01*
X139664979Y-81618799D01*
X139607183Y-81532302D01*
X139592698Y-81517817D01*
X139587368Y-81514255D01*
X139729680Y-81419166D01*
X139744166Y-81404680D01*
X139843955Y-81255334D01*
X139851794Y-81236408D01*
X139885834Y-81065279D01*
X139886836Y-81055109D01*
X139886836Y-80806922D01*
X139825914Y-80746000D01*
X138800000Y-80746000D01*
X138291187Y-80745999D01*
X138289000Y-80744538D01*
X138289000Y-80721922D01*
X138228078Y-80661000D01*
X135954086Y-80661000D01*
X135934504Y-80680582D01*
X135909099Y-80676102D01*
X135890901Y-80676102D01*
X135695164Y-80710616D01*
X135678064Y-80716840D01*
X135505936Y-80816218D01*
X135491996Y-80827915D01*
X135364238Y-80980171D01*
X135355139Y-80995931D01*
X135333302Y-81055928D01*
X134567600Y-80290226D01*
X134567600Y-77337314D01*
X134604000Y-77300914D01*
X134604000Y-76556922D01*
X134796000Y-76556922D01*
X134796000Y-77300914D01*
X134856922Y-77361836D01*
X134955109Y-77361836D01*
X134965279Y-77360834D01*
X135136408Y-77326794D01*
X135155334Y-77318955D01*
X135304680Y-77219166D01*
X135319166Y-77204680D01*
X135418955Y-77055334D01*
X135426794Y-77036408D01*
X135460834Y-76865279D01*
X135461836Y-76855109D01*
X135461836Y-76556922D01*
X135400914Y-76496000D01*
X134856922Y-76496000D01*
X134796000Y-76556922D01*
X134604000Y-76556922D01*
X134604000Y-76304000D01*
X135400914Y-76304000D01*
X135461836Y-76243078D01*
X135461836Y-76017600D01*
X136177025Y-76017600D01*
X136581886Y-76422461D01*
X136581886Y-76855109D01*
X136582888Y-76865278D01*
X136602181Y-76962274D01*
X136610021Y-76981201D01*
X136667817Y-77067698D01*
X136682302Y-77082183D01*
X136768799Y-77139979D01*
X136787726Y-77147819D01*
X136884722Y-77167112D01*
X136894891Y-77168114D01*
X137282401Y-77168114D01*
X137282401Y-77421886D01*
X136399891Y-77421886D01*
X136389722Y-77422888D01*
X136292726Y-77442181D01*
X136273799Y-77450021D01*
X136187302Y-77507817D01*
X136172817Y-77522302D01*
X136115021Y-77608799D01*
X136107181Y-77627726D01*
X136087888Y-77724722D01*
X136086886Y-77734891D01*
X136086886Y-78195109D01*
X136087888Y-78205278D01*
X136104740Y-78290000D01*
X136087888Y-78374722D01*
X136086886Y-78384891D01*
X136086886Y-78845109D01*
X136087888Y-78855278D01*
X136104740Y-78940000D01*
X136087888Y-79024722D01*
X136086886Y-79034891D01*
X136086886Y-79495109D01*
X136087888Y-79505278D01*
X136104740Y-79590000D01*
X136087888Y-79674722D01*
X136086886Y-79684891D01*
X136086886Y-79946402D01*
X136050320Y-79970834D01*
X136035834Y-79985320D01*
X135936045Y-80134666D01*
X135928206Y-80153592D01*
X135894166Y-80324721D01*
X135893164Y-80334891D01*
X135893164Y-80408078D01*
X135954086Y-80469000D01*
X138191000Y-80469000D01*
X138191000Y-80493078D01*
X138251922Y-80554000D01*
X138843078Y-80554000D01*
X138904000Y-80493078D01*
X138904001Y-80157681D01*
X138935762Y-80119829D01*
X138944861Y-80104069D01*
X139012840Y-79917299D01*
X139016000Y-79899378D01*
X139016000Y-79799086D01*
X139096000Y-79799086D01*
X139096000Y-80493078D01*
X139156922Y-80554000D01*
X139825914Y-80554001D01*
X139886836Y-80493079D01*
X139886836Y-80244891D01*
X139885834Y-80234721D01*
X139851794Y-80063592D01*
X139843955Y-80044666D01*
X139744166Y-79895320D01*
X139729680Y-79880834D01*
X139580334Y-79781045D01*
X139561408Y-79773206D01*
X139390279Y-79739166D01*
X139380109Y-79738164D01*
X139156922Y-79738164D01*
X139096000Y-79799086D01*
X139016000Y-79799086D01*
X139016000Y-79700622D01*
X139012840Y-79682701D01*
X138944861Y-79495931D01*
X138935762Y-79480171D01*
X138918491Y-79459588D01*
X139035762Y-79319829D01*
X139044861Y-79304069D01*
X139112840Y-79117299D01*
X139116000Y-79099378D01*
X139116000Y-78900622D01*
X139112840Y-78882701D01*
X139044861Y-78695931D01*
X139035762Y-78680171D01*
X138908004Y-78527915D01*
X138894064Y-78516218D01*
X138721936Y-78416840D01*
X138704836Y-78410616D01*
X138666041Y-78403775D01*
X138666284Y-78402713D01*
X138667600Y-78391068D01*
X138667600Y-78373603D01*
X138674316Y-78314191D01*
X138671706Y-78290915D01*
X138667600Y-78279157D01*
X138667600Y-77856921D01*
X139138164Y-77856921D01*
X139138164Y-77930109D01*
X139139166Y-77940279D01*
X139173206Y-78111408D01*
X139181045Y-78130334D01*
X139280834Y-78279680D01*
X139295320Y-78294166D01*
X139444666Y-78393955D01*
X139463592Y-78401794D01*
X139634721Y-78435834D01*
X139644891Y-78436836D01*
X139843078Y-78436836D01*
X139904000Y-78375914D01*
X140095999Y-78375914D01*
X140156921Y-78436836D01*
X140355109Y-78436836D01*
X140365279Y-78435834D01*
X140536408Y-78401794D01*
X140555334Y-78393955D01*
X140704680Y-78294166D01*
X140719166Y-78279680D01*
X140818955Y-78130334D01*
X140826794Y-78111408D01*
X140860834Y-77940279D01*
X140861836Y-77930109D01*
X140861836Y-77856922D01*
X140800914Y-77796000D01*
X140156922Y-77795999D01*
X140096000Y-77856921D01*
X140095999Y-78375914D01*
X139904000Y-78375914D01*
X139904001Y-77856922D01*
X139843079Y-77796000D01*
X139199086Y-77795999D01*
X139138164Y-77856921D01*
X138667600Y-77856921D01*
X138667600Y-77471217D01*
X138668065Y-77469891D01*
X139138164Y-77469891D01*
X139138164Y-77543078D01*
X139199086Y-77604000D01*
X139843078Y-77604001D01*
X139904000Y-77543079D01*
X139904000Y-77543078D01*
X140095999Y-77543078D01*
X140156921Y-77604000D01*
X140800914Y-77604001D01*
X140861836Y-77543079D01*
X140861836Y-77469891D01*
X140860834Y-77459721D01*
X140826794Y-77288592D01*
X140818955Y-77269666D01*
X140719166Y-77120320D01*
X140704680Y-77105834D01*
X140555334Y-77006045D01*
X140536408Y-76998206D01*
X140365279Y-76964166D01*
X140355109Y-76963164D01*
X140156922Y-76963164D01*
X140096000Y-77024086D01*
X140095999Y-77543078D01*
X139904000Y-77543078D01*
X139904001Y-77024086D01*
X139843079Y-76963164D01*
X139644891Y-76963164D01*
X139634721Y-76964166D01*
X139463592Y-76998206D01*
X139444666Y-77006045D01*
X139295320Y-77105834D01*
X139280834Y-77120320D01*
X139181045Y-77269666D01*
X139173206Y-77288592D01*
X139139166Y-77459721D01*
X139138164Y-77469891D01*
X138668065Y-77469891D01*
X138671602Y-77459822D01*
X138674253Y-77436550D01*
X138667600Y-77376765D01*
X138667600Y-77358811D01*
X138666293Y-77347210D01*
X138662422Y-77330240D01*
X138655835Y-77271050D01*
X138648108Y-77248891D01*
X138641441Y-77238263D01*
X138638634Y-77225958D01*
X138628477Y-77204853D01*
X138599200Y-77168114D01*
X138905109Y-77168114D01*
X138915278Y-77167112D01*
X139012274Y-77147819D01*
X139031201Y-77139979D01*
X139117698Y-77082183D01*
X139132183Y-77067698D01*
X139189979Y-76981201D01*
X139197819Y-76962274D01*
X139217112Y-76865278D01*
X139218114Y-76855109D01*
X139218114Y-76817600D01*
X139401048Y-76817600D01*
X139417817Y-76842697D01*
X139432302Y-76857183D01*
X139518799Y-76914979D01*
X139537726Y-76922819D01*
X139634722Y-76942112D01*
X139644891Y-76943114D01*
X140355109Y-76943114D01*
X140365278Y-76942112D01*
X140462274Y-76922819D01*
X140481201Y-76914979D01*
X140567698Y-76857183D01*
X140582183Y-76842698D01*
X140639979Y-76756201D01*
X140647819Y-76737274D01*
X140667112Y-76640278D01*
X140668114Y-76630109D01*
X140668114Y-76169891D01*
X140667112Y-76159722D01*
X140647819Y-76062726D01*
X140639979Y-76043799D01*
X140582183Y-75957302D01*
X140567698Y-75942817D01*
X140481201Y-75885021D01*
X140462274Y-75877181D01*
X140365278Y-75857888D01*
X140355109Y-75856886D01*
X139644891Y-75856886D01*
X139634722Y-75857888D01*
X139537726Y-75877181D01*
X139518799Y-75885021D01*
X139432302Y-75942817D01*
X139417817Y-75957303D01*
X139401048Y-75982400D01*
X139218114Y-75982400D01*
X139218114Y-75944891D01*
X139217112Y-75934722D01*
X139197819Y-75837726D01*
X139189979Y-75818799D01*
X139132183Y-75732302D01*
X139117698Y-75717817D01*
X139031201Y-75660021D01*
X139012274Y-75652181D01*
X138915278Y-75632888D01*
X138905109Y-75631886D01*
X138517600Y-75631886D01*
X138517600Y-70539362D01*
X138674997Y-70560923D01*
X138687535Y-70561120D01*
X138870912Y-70541846D01*
X138883136Y-70539046D01*
X139056621Y-70476588D01*
X139067824Y-70470953D01*
X139221403Y-70368915D01*
X139230938Y-70360771D01*
X139355746Y-70225045D01*
X139363064Y-70214861D01*
X139451892Y-70053282D01*
X139456568Y-70041648D01*
X139504363Y-69863280D01*
X139506139Y-69850315D01*
X139508231Y-69650530D01*
X139506727Y-69637531D01*
X139462679Y-69458202D01*
X139458247Y-69446471D01*
X139440857Y-69413208D01*
X139548814Y-69341074D01*
X139563300Y-69326588D01*
X139663089Y-69177242D01*
X139670928Y-69158316D01*
X139704968Y-68987187D01*
X139705970Y-68977017D01*
X139705970Y-68628830D01*
X139645048Y-68567908D01*
X138851055Y-68567907D01*
X138851054Y-68567908D01*
X138598134Y-68567907D01*
X138598134Y-68314986D01*
X138790133Y-68314986D01*
X138851055Y-68375908D01*
X139645048Y-68375909D01*
X139705970Y-68314987D01*
X139705970Y-67966799D01*
X139704968Y-67956629D01*
X139670928Y-67785500D01*
X139663089Y-67766574D01*
X139563300Y-67617228D01*
X139548814Y-67602742D01*
X139399468Y-67502953D01*
X139380542Y-67495114D01*
X139209413Y-67461074D01*
X139199243Y-67460072D01*
X138851056Y-67460072D01*
X138790134Y-67520994D01*
X138790133Y-68314986D01*
X138598134Y-68314986D01*
X138598135Y-67520994D01*
X138537213Y-67460072D01*
X138189025Y-67460072D01*
X138178855Y-67461074D01*
X138007726Y-67495114D01*
X137988800Y-67502953D01*
X137839454Y-67602742D01*
X137824968Y-67617228D01*
X137752329Y-67725941D01*
X137629788Y-67678903D01*
X137617626Y-67675848D01*
X137434693Y-67652738D01*
X137422154Y-67652673D01*
X137238989Y-67673865D01*
X137226796Y-67676792D01*
X137053973Y-67741065D01*
X137042830Y-67746816D01*
X136890328Y-67850457D01*
X136880878Y-67858700D01*
X136788848Y-67960910D01*
X136703781Y-67864422D01*
X136694419Y-67856081D01*
X136543010Y-67750848D01*
X136531928Y-67744980D01*
X136359788Y-67678903D01*
X136347626Y-67675848D01*
X136164693Y-67652738D01*
X136152154Y-67652673D01*
X135968989Y-67673865D01*
X135956796Y-67676792D01*
X135783973Y-67741065D01*
X135772830Y-67746816D01*
X135620328Y-67850457D01*
X135610878Y-67858700D01*
X135518848Y-67960910D01*
X135433781Y-67864422D01*
X135424419Y-67856081D01*
X135273010Y-67750848D01*
X135261928Y-67744980D01*
X135089788Y-67678903D01*
X135077626Y-67675848D01*
X134894693Y-67652738D01*
X134882154Y-67652673D01*
X134698989Y-67673865D01*
X134686796Y-67676792D01*
X134513973Y-67741065D01*
X134502830Y-67746816D01*
X134350328Y-67850457D01*
X134340878Y-67858700D01*
X134248848Y-67960910D01*
X134163781Y-67864422D01*
X134154419Y-67856081D01*
X134003010Y-67750848D01*
X133991928Y-67744980D01*
X133819788Y-67678903D01*
X133807626Y-67675848D01*
X133624693Y-67652738D01*
X133612154Y-67652673D01*
X133428989Y-67673865D01*
X133416796Y-67676792D01*
X133243973Y-67741065D01*
X133232830Y-67746816D01*
X133080328Y-67850457D01*
X133070878Y-67858700D01*
X132947500Y-67995726D01*
X132940289Y-68005985D01*
X132853157Y-68168486D01*
X132848602Y-68180170D01*
X132802747Y-68358763D01*
X132801110Y-68371195D01*
X132799179Y-68555572D01*
X132800555Y-68568037D01*
X132842661Y-68747551D01*
X132846970Y-68759327D01*
X132930680Y-68923616D01*
X132937673Y-68934024D01*
X133058155Y-69073605D01*
X133067430Y-69082044D01*
X133101365Y-69106160D01*
X133080328Y-69120457D01*
X133070878Y-69128700D01*
X132947500Y-69265726D01*
X132940289Y-69275985D01*
X132853157Y-69438486D01*
X132848602Y-69450170D01*
X132802747Y-69628763D01*
X132801110Y-69641195D01*
X132799179Y-69825572D01*
X132800555Y-69838037D01*
X132824660Y-69940807D01*
X132683068Y-70082400D01*
X132305769Y-70082400D01*
X132339979Y-70031201D01*
X132347819Y-70012274D01*
X132367112Y-69915278D01*
X132368114Y-69905109D01*
X132368114Y-69394891D01*
X132367112Y-69384722D01*
X132347819Y-69287726D01*
X132339979Y-69268799D01*
X132282183Y-69182302D01*
X132267698Y-69167817D01*
X132181201Y-69110021D01*
X132162274Y-69102181D01*
X132121380Y-69094047D01*
X132131201Y-69089979D01*
X132217698Y-69032183D01*
X132232183Y-69017698D01*
X132289979Y-68931201D01*
X132297819Y-68912274D01*
X132317112Y-68815278D01*
X132318114Y-68805109D01*
X132318114Y-67994891D01*
X132317112Y-67984722D01*
X132297819Y-67887726D01*
X132289979Y-67868799D01*
X132232183Y-67782302D01*
X132217698Y-67767817D01*
X132131201Y-67710021D01*
X132112274Y-67702181D01*
X132085526Y-67696861D01*
X132186408Y-67676794D01*
X132205334Y-67668955D01*
X132354680Y-67569166D01*
X132369166Y-67554680D01*
X132468955Y-67405334D01*
X132476794Y-67386408D01*
X132510834Y-67215279D01*
X132511836Y-67205109D01*
X132511836Y-66956922D01*
X132450914Y-66896000D01*
X131756921Y-66895999D01*
X131756920Y-66896000D01*
X130749086Y-66895999D01*
X130688164Y-66956921D01*
X130688164Y-67205109D01*
X130689166Y-67215279D01*
X130723206Y-67386408D01*
X130731045Y-67405334D01*
X130830834Y-67554680D01*
X130845320Y-67569166D01*
X130994666Y-67668955D01*
X131013592Y-67676794D01*
X131114474Y-67696861D01*
X131087726Y-67702181D01*
X131068799Y-67710021D01*
X130982302Y-67767817D01*
X130967817Y-67782302D01*
X130910021Y-67868799D01*
X130902181Y-67887726D01*
X130882888Y-67984722D01*
X130881886Y-67994891D01*
X130881886Y-68805109D01*
X130882888Y-68815278D01*
X130902181Y-68912274D01*
X130910021Y-68931201D01*
X130967817Y-69017698D01*
X130982302Y-69032183D01*
X131068799Y-69089979D01*
X131078620Y-69094047D01*
X131037726Y-69102181D01*
X131018799Y-69110021D01*
X130932302Y-69167817D01*
X130917817Y-69182302D01*
X130860021Y-69268799D01*
X130852181Y-69287726D01*
X130832888Y-69384722D01*
X130831886Y-69394891D01*
X130831886Y-69905109D01*
X130832888Y-69915278D01*
X130852181Y-70012274D01*
X130860021Y-70031201D01*
X130899944Y-70090950D01*
X130871051Y-70094165D01*
X130848893Y-70101892D01*
X130838265Y-70108558D01*
X130825957Y-70111366D01*
X130804853Y-70121523D01*
X130757715Y-70159086D01*
X130742919Y-70168367D01*
X130733752Y-70175672D01*
X130721404Y-70188020D01*
X130674642Y-70225284D01*
X130660029Y-70243588D01*
X130654618Y-70254806D01*
X130455074Y-70454352D01*
X130444184Y-70459581D01*
X130425852Y-70474163D01*
X130388274Y-70521152D01*
X130375589Y-70533837D01*
X130368310Y-70542963D01*
X130359050Y-70557696D01*
X130321849Y-70604214D01*
X130311644Y-70625349D01*
X130308844Y-70637574D01*
X130302129Y-70648257D01*
X130294387Y-70670365D01*
X130287615Y-70730266D01*
X130283716Y-70747287D01*
X130282400Y-70758932D01*
X130282400Y-70776396D01*
X130275684Y-70835809D01*
X130278294Y-70859085D01*
X130282400Y-70870843D01*
X130282401Y-71528780D01*
X130278399Y-71540177D01*
X130275747Y-71563450D01*
X130282401Y-71623243D01*
X130282401Y-71641188D01*
X130283707Y-71652790D01*
X130287577Y-71669753D01*
X130294165Y-71728949D01*
X130301893Y-71751109D01*
X130308559Y-71761737D01*
X130311366Y-71774040D01*
X130321524Y-71795146D01*
X130359085Y-71842283D01*
X130368368Y-71857081D01*
X130375672Y-71866247D01*
X130388021Y-71878596D01*
X130425285Y-71925358D01*
X130443589Y-71939971D01*
X130454807Y-71945382D01*
X130554351Y-72044926D01*
X130559580Y-72055816D01*
X130574162Y-72074148D01*
X130621149Y-72111724D01*
X130633836Y-72124411D01*
X130642963Y-72131691D01*
X130657695Y-72140950D01*
X130704213Y-72178151D01*
X130725348Y-72188356D01*
X130737573Y-72191156D01*
X130748256Y-72197871D01*
X130770364Y-72205613D01*
X130830265Y-72212385D01*
X130847286Y-72216284D01*
X130858931Y-72217600D01*
X130876396Y-72217600D01*
X130935809Y-72224316D01*
X130959085Y-72221706D01*
X130970843Y-72217600D01*
X132227025Y-72217600D01*
X132382400Y-72372975D01*
X132382401Y-73158407D01*
X132382400Y-73158415D01*
X132382400Y-73319024D01*
X132371588Y-73329836D01*
X132364309Y-73338962D01*
X132355050Y-73353693D01*
X132354180Y-73354781D01*
X132344184Y-73359581D01*
X132325852Y-73374163D01*
X132288274Y-73421152D01*
X132275589Y-73433837D01*
X132268310Y-73442963D01*
X132259050Y-73457696D01*
X132221849Y-73504214D01*
X132211644Y-73525349D01*
X132208844Y-73537574D01*
X132202129Y-73548257D01*
X132194387Y-73570365D01*
X132187615Y-73630266D01*
X132183716Y-73647287D01*
X132182400Y-73658932D01*
X132182400Y-73676397D01*
X132175684Y-73735809D01*
X132178294Y-73759085D01*
X132182400Y-73770843D01*
X132182400Y-75096000D01*
X129968114Y-75096000D01*
X129968114Y-74844891D01*
X129967112Y-74834722D01*
X129947819Y-74737726D01*
X129939979Y-74718799D01*
X129882183Y-74632302D01*
X129867698Y-74617817D01*
X129781201Y-74560021D01*
X129762274Y-74552181D01*
X129665278Y-74532888D01*
X129655109Y-74531886D01*
X128744891Y-74531886D01*
X128734722Y-74532888D01*
X128637726Y-74552181D01*
X128618799Y-74560021D01*
X128532302Y-74617817D01*
X128517817Y-74632302D01*
X128460021Y-74718799D01*
X128452181Y-74737726D01*
X128432888Y-74834722D01*
X128431886Y-74844891D01*
X128431886Y-74877538D01*
X128368114Y-74941310D01*
X128368114Y-74844891D01*
X128367112Y-74834722D01*
X128347819Y-74737726D01*
X128339979Y-74718799D01*
X128282183Y-74632302D01*
X128267698Y-74617817D01*
X128181201Y-74560021D01*
X128162274Y-74552181D01*
X128065278Y-74532888D01*
X128055109Y-74531886D01*
X127144891Y-74531886D01*
X127134722Y-74532888D01*
X127037726Y-74552181D01*
X127018799Y-74560021D01*
X126932302Y-74617817D01*
X126917817Y-74632302D01*
X126860021Y-74718799D01*
X126852181Y-74737726D01*
X126832888Y-74834722D01*
X126831886Y-74844891D01*
X126831886Y-75096000D01*
X126693114Y-75096000D01*
X126693114Y-74544891D01*
X126692112Y-74534722D01*
X126672819Y-74437726D01*
X126664979Y-74418799D01*
X126607183Y-74332302D01*
X126592698Y-74317817D01*
X126506201Y-74260021D01*
X126487274Y-74252181D01*
X126390278Y-74232888D01*
X126380109Y-74231886D01*
X125619891Y-74231886D01*
X125609722Y-74232888D01*
X125512726Y-74252181D01*
X125493799Y-74260021D01*
X125407302Y-74317817D01*
X125392817Y-74332302D01*
X125359180Y-74382642D01*
X125309113Y-74378262D01*
X125290984Y-74379848D01*
X125227385Y-74396890D01*
X125204887Y-74400856D01*
X125235834Y-74245279D01*
X125236836Y-74235109D01*
X125236836Y-73996732D01*
X125359897Y-74018431D01*
X125392817Y-74067698D01*
X125407302Y-74082183D01*
X125493799Y-74139979D01*
X125512726Y-74147819D01*
X125609722Y-74167112D01*
X125619891Y-74168114D01*
X126380109Y-74168114D01*
X126390278Y-74167112D01*
X126487274Y-74147819D01*
X126506201Y-74139979D01*
X126592698Y-74082183D01*
X126607183Y-74067698D01*
X126662856Y-73984378D01*
X126673206Y-74036408D01*
X126681045Y-74055334D01*
X126780834Y-74204680D01*
X126795320Y-74219166D01*
X126944666Y-74318955D01*
X126963592Y-74326794D01*
X127134721Y-74360834D01*
X127144891Y-74361836D01*
X127443078Y-74361836D01*
X127504000Y-74300914D01*
X127695999Y-74300914D01*
X127756921Y-74361836D01*
X128055109Y-74361836D01*
X128065279Y-74360834D01*
X128236408Y-74326794D01*
X128255334Y-74318955D01*
X128404680Y-74219166D01*
X128419166Y-74204680D01*
X128514255Y-74062368D01*
X128517817Y-74067698D01*
X128532302Y-74082183D01*
X128618799Y-74139979D01*
X128637726Y-74147819D01*
X128734722Y-74167112D01*
X128744891Y-74168114D01*
X129655109Y-74168114D01*
X129665278Y-74167112D01*
X129762274Y-74147819D01*
X129781201Y-74139979D01*
X129867698Y-74082183D01*
X129882183Y-74067698D01*
X129939979Y-73981201D01*
X129947819Y-73962274D01*
X129967112Y-73865278D01*
X129968114Y-73855109D01*
X129968114Y-73344891D01*
X129967112Y-73334722D01*
X129947819Y-73237726D01*
X129939979Y-73218799D01*
X129882183Y-73132302D01*
X129867698Y-73117817D01*
X129781201Y-73060021D01*
X129762274Y-73052181D01*
X129665278Y-73032888D01*
X129655109Y-73031886D01*
X129616000Y-73031886D01*
X129616000Y-73000622D01*
X129612840Y-72982701D01*
X129544861Y-72795931D01*
X129535762Y-72780171D01*
X129408004Y-72627915D01*
X129394064Y-72616218D01*
X129221936Y-72516840D01*
X129204836Y-72510616D01*
X129009099Y-72476102D01*
X128990901Y-72476102D01*
X128795164Y-72510616D01*
X128778064Y-72516840D01*
X128605936Y-72616218D01*
X128591996Y-72627915D01*
X128464238Y-72780171D01*
X128455139Y-72795931D01*
X128391134Y-72971783D01*
X128255334Y-72881045D01*
X128236408Y-72873206D01*
X128065279Y-72839166D01*
X128055109Y-72838164D01*
X127756922Y-72838164D01*
X127696000Y-72899086D01*
X127696000Y-73400000D01*
X127695999Y-74300914D01*
X127504000Y-74300914D01*
X127504000Y-73400000D01*
X127504001Y-72899086D01*
X127443079Y-72838164D01*
X127144891Y-72838164D01*
X127134721Y-72839166D01*
X126963592Y-72873206D01*
X126944666Y-72881045D01*
X126795320Y-72980834D01*
X126780834Y-72995320D01*
X126693114Y-73126603D01*
X126693114Y-73044891D01*
X126692112Y-73034722D01*
X126672819Y-72937726D01*
X126664979Y-72918799D01*
X126616000Y-72845498D01*
X126616000Y-72700622D01*
X126612840Y-72682701D01*
X126544861Y-72495931D01*
X126535762Y-72480171D01*
X126408004Y-72327915D01*
X126394064Y-72316218D01*
X126221936Y-72216840D01*
X126204836Y-72210616D01*
X126009099Y-72176102D01*
X125990901Y-72176102D01*
X125795164Y-72210616D01*
X125778064Y-72216840D01*
X125605936Y-72316218D01*
X125591996Y-72327915D01*
X125511836Y-72423446D01*
X125511836Y-72256922D01*
X125450914Y-72196000D01*
X124504000Y-72196000D01*
X124504000Y-71274086D01*
X124696000Y-71274086D01*
X124696000Y-71943078D01*
X124756922Y-72004000D01*
X125450914Y-72004000D01*
X125511836Y-71943078D01*
X125511836Y-71719891D01*
X125510834Y-71709721D01*
X125476794Y-71538592D01*
X125468955Y-71519666D01*
X125369166Y-71370320D01*
X125354680Y-71355834D01*
X125205334Y-71256045D01*
X125186408Y-71248206D01*
X125015279Y-71214166D01*
X125005109Y-71213164D01*
X124756922Y-71213164D01*
X124696000Y-71274086D01*
X124504000Y-71274086D01*
X124443078Y-71213164D01*
X124194891Y-71213164D01*
X124184721Y-71214166D01*
X124013592Y-71248206D01*
X123994666Y-71256045D01*
X123845320Y-71355834D01*
X123830834Y-71370320D01*
X123735744Y-71512633D01*
X123732183Y-71507303D01*
X123717698Y-71492818D01*
X123716000Y-71491683D01*
X123716000Y-71400622D01*
X123712840Y-71382701D01*
X123644861Y-71195931D01*
X123635762Y-71180171D01*
X123508004Y-71027915D01*
X123494064Y-71016218D01*
X123321936Y-70916840D01*
X123304836Y-70910616D01*
X123109099Y-70876102D01*
X123090901Y-70876102D01*
X122895164Y-70910616D01*
X122878064Y-70916840D01*
X122705936Y-71016218D01*
X122691996Y-71027915D01*
X122564238Y-71180171D01*
X122555139Y-71195931D01*
X122487160Y-71382701D01*
X122484000Y-71400622D01*
X122484000Y-71477319D01*
X122295164Y-71510616D01*
X122278064Y-71516840D01*
X122105936Y-71616218D01*
X122091996Y-71627915D01*
X121964238Y-71780171D01*
X121955139Y-71795931D01*
X121887160Y-71982701D01*
X121884000Y-72000622D01*
X121884000Y-72199378D01*
X121887160Y-72217299D01*
X121955139Y-72404069D01*
X121964238Y-72419829D01*
X122091996Y-72572085D01*
X122105936Y-72583782D01*
X122234770Y-72658164D01*
X122169891Y-72658164D01*
X122159721Y-72659166D01*
X121988592Y-72693206D01*
X121969666Y-72701045D01*
X121820320Y-72800834D01*
X121805834Y-72815320D01*
X121706045Y-72964666D01*
X121698206Y-72983592D01*
X121664166Y-73154721D01*
X121663164Y-73164891D01*
X121663164Y-73543078D01*
X121724086Y-73604000D01*
X122343079Y-73604001D01*
X122343080Y-73604000D01*
X122596000Y-73604001D01*
X122595999Y-74680914D01*
X122656921Y-74741836D01*
X122830109Y-74741836D01*
X122840279Y-74740834D01*
X123011408Y-74706794D01*
X123030334Y-74698955D01*
X123179680Y-74599166D01*
X123194166Y-74584680D01*
X123218598Y-74548114D01*
X123681402Y-74548114D01*
X123705834Y-74584680D01*
X123720320Y-74599166D01*
X123869666Y-74698955D01*
X123888592Y-74706794D01*
X124059721Y-74740834D01*
X124069891Y-74741836D01*
X124243078Y-74741836D01*
X124304000Y-74680914D01*
X124304001Y-73856921D01*
X124304000Y-73856920D01*
X124304001Y-72834000D01*
X124496000Y-72834000D01*
X124495999Y-73543079D01*
X124496000Y-73543080D01*
X124495999Y-74680914D01*
X124556921Y-74741836D01*
X124730109Y-74741836D01*
X124740279Y-74740834D01*
X124763302Y-74736254D01*
X124447671Y-75051886D01*
X124069891Y-75051886D01*
X124059722Y-75052888D01*
X123962726Y-75072181D01*
X123943798Y-75080021D01*
X123919885Y-75096000D01*
X122980115Y-75096000D01*
X122956202Y-75080021D01*
X122937274Y-75072181D01*
X122840278Y-75052888D01*
X122830109Y-75051886D01*
X122169891Y-75051886D01*
X122159722Y-75052888D01*
X122062726Y-75072181D01*
X122043798Y-75080021D01*
X122019885Y-75096000D01*
X121156922Y-75096000D01*
X121096000Y-75156922D01*
X121096000Y-77101128D01*
X120980514Y-77084075D01*
X120971267Y-77083542D01*
X120746212Y-77090614D01*
X120737016Y-77091727D01*
X120516771Y-77138542D01*
X120507917Y-77141265D01*
X120299442Y-77226343D01*
X120291211Y-77230591D01*
X120101097Y-77351241D01*
X120093748Y-77356880D01*
X119928004Y-77509289D01*
X119921769Y-77516140D01*
X119785634Y-77695492D01*
X119780712Y-77703339D01*
X119678489Y-77903964D01*
X119675034Y-77912559D01*
X119609953Y-78128115D01*
X119608075Y-78137186D01*
X119582195Y-78360859D01*
X119581952Y-78370119D01*
X119596091Y-78594841D01*
X119597492Y-78603998D01*
X119651202Y-78822663D01*
X119654202Y-78831427D01*
X119745785Y-79037127D01*
X119750290Y-79045221D01*
X119876852Y-79231451D01*
X119882719Y-79238620D01*
X120040261Y-79399494D01*
X120047304Y-79405510D01*
X120230843Y-79535945D01*
X120238841Y-79540619D01*
X120339880Y-79588164D01*
X120144891Y-79588164D01*
X120134721Y-79589166D01*
X119963592Y-79623206D01*
X119944666Y-79631045D01*
X119795320Y-79730834D01*
X119780834Y-79745320D01*
X119681045Y-79894666D01*
X119673206Y-79913592D01*
X119639166Y-80084721D01*
X119638164Y-80094891D01*
X119638164Y-80443078D01*
X119699086Y-80504000D01*
X120746000Y-80504000D01*
X120746000Y-81550914D01*
X120806922Y-81611836D01*
X121096000Y-81611836D01*
X121096000Y-81688164D01*
X120806922Y-81688164D01*
X120746000Y-81749086D01*
X120746000Y-83650914D01*
X120806922Y-83711836D01*
X121096000Y-83711836D01*
X121096000Y-83788164D01*
X120806922Y-83788164D01*
X120746000Y-83849086D01*
X120746000Y-85750914D01*
X120806922Y-85811836D01*
X120849132Y-85811836D01*
X120785634Y-85895492D01*
X120780712Y-85903339D01*
X120678489Y-86103964D01*
X120675034Y-86112559D01*
X120609953Y-86328115D01*
X120608075Y-86337186D01*
X120582195Y-86560859D01*
X120581952Y-86570119D01*
X120596091Y-86794841D01*
X120597492Y-86803998D01*
X120651202Y-87022663D01*
X120654202Y-87031427D01*
X120745785Y-87237127D01*
X120750290Y-87245221D01*
X120876852Y-87431451D01*
X120882719Y-87438620D01*
X121040261Y-87599494D01*
X121047304Y-87605510D01*
X121230843Y-87735945D01*
X121238841Y-87740619D01*
X121442577Y-87836489D01*
X121451276Y-87839673D01*
X121668770Y-87897950D01*
X121677895Y-87899543D01*
X121902271Y-87918384D01*
X121911534Y-87918335D01*
X122135701Y-87897146D01*
X122144809Y-87895457D01*
X122361681Y-87834906D01*
X122370346Y-87831632D01*
X122573067Y-87733632D01*
X122581016Y-87728875D01*
X122763179Y-87596526D01*
X122770159Y-87590437D01*
X122926007Y-87427921D01*
X122931799Y-87420691D01*
X123056403Y-87233146D01*
X123060823Y-87225005D01*
X123150247Y-87018359D01*
X123153156Y-87009564D01*
X123204729Y-86789682D01*
X123206088Y-86779141D01*
X123213673Y-86489459D01*
X123212867Y-86478862D01*
X123172873Y-86256583D01*
X123170429Y-86247648D01*
X123091943Y-86036604D01*
X123087955Y-86028243D01*
X122973335Y-85834433D01*
X122967930Y-85826910D01*
X122820802Y-85656461D01*
X122814150Y-85650015D01*
X122774756Y-85618114D01*
X123096960Y-85618114D01*
X123447455Y-85968610D01*
X123378489Y-86103964D01*
X123375034Y-86112559D01*
X123309953Y-86328115D01*
X123308075Y-86337186D01*
X123282195Y-86560859D01*
X123281952Y-86570119D01*
X123296091Y-86794841D01*
X123297492Y-86803998D01*
X123351202Y-87022663D01*
X123354202Y-87031427D01*
X123445785Y-87237127D01*
X123450290Y-87245221D01*
X123576852Y-87431451D01*
X123582719Y-87438620D01*
X123740261Y-87599494D01*
X123747304Y-87605510D01*
X123930843Y-87735945D01*
X123938841Y-87740619D01*
X124142577Y-87836489D01*
X124151276Y-87839673D01*
X124368770Y-87897950D01*
X124377895Y-87899543D01*
X124602271Y-87918384D01*
X124611534Y-87918335D01*
X124835701Y-87897146D01*
X124844809Y-87895457D01*
X125061681Y-87834906D01*
X125070346Y-87831632D01*
X125273067Y-87733632D01*
X125281016Y-87728875D01*
X125463179Y-87596526D01*
X125470159Y-87590437D01*
X125626007Y-87427921D01*
X125631799Y-87420691D01*
X125756403Y-87233146D01*
X125760823Y-87225005D01*
X125850247Y-87018359D01*
X125853156Y-87009564D01*
X125904729Y-86789682D01*
X125906088Y-86779141D01*
X125911561Y-86570119D01*
X125981952Y-86570119D01*
X125996091Y-86794841D01*
X125997492Y-86803998D01*
X126051202Y-87022663D01*
X126054202Y-87031427D01*
X126145785Y-87237127D01*
X126150290Y-87245221D01*
X126276852Y-87431451D01*
X126282719Y-87438620D01*
X126440261Y-87599494D01*
X126447304Y-87605510D01*
X126630843Y-87735945D01*
X126638841Y-87740619D01*
X126842577Y-87836489D01*
X126851276Y-87839673D01*
X127068770Y-87897950D01*
X127077895Y-87899543D01*
X127302271Y-87918384D01*
X127311534Y-87918335D01*
X127535701Y-87897146D01*
X127544809Y-87895457D01*
X127761681Y-87834906D01*
X127770346Y-87831632D01*
X127973067Y-87733632D01*
X127981016Y-87728875D01*
X128163179Y-87596526D01*
X128170159Y-87590437D01*
X128326007Y-87427921D01*
X128331799Y-87420691D01*
X128456403Y-87233146D01*
X128460823Y-87225005D01*
X128550247Y-87018359D01*
X128553156Y-87009564D01*
X128604729Y-86789682D01*
X128606088Y-86779141D01*
X128613673Y-86489459D01*
X128612867Y-86478862D01*
X128572873Y-86256583D01*
X128570429Y-86247648D01*
X128491943Y-86036604D01*
X128487955Y-86028243D01*
X128373335Y-85834433D01*
X128367930Y-85826910D01*
X128220802Y-85656461D01*
X128214150Y-85650015D01*
X128039163Y-85508313D01*
X128031474Y-85503147D01*
X127834161Y-85394672D01*
X127825679Y-85390948D01*
X127612273Y-85319130D01*
X127603265Y-85316967D01*
X127380514Y-85284075D01*
X127371267Y-85283542D01*
X127146212Y-85290614D01*
X127137016Y-85291727D01*
X126916771Y-85338542D01*
X126907917Y-85341265D01*
X126699442Y-85426343D01*
X126691211Y-85430591D01*
X126501097Y-85551241D01*
X126493748Y-85556880D01*
X126328004Y-85709289D01*
X126321769Y-85716140D01*
X126185634Y-85895492D01*
X126180712Y-85903339D01*
X126078489Y-86103964D01*
X126075034Y-86112559D01*
X126009953Y-86328115D01*
X126008075Y-86337186D01*
X125982195Y-86560859D01*
X125981952Y-86570119D01*
X125911561Y-86570119D01*
X125913673Y-86489459D01*
X125912867Y-86478862D01*
X125872873Y-86256583D01*
X125870429Y-86247648D01*
X125791943Y-86036604D01*
X125787955Y-86028243D01*
X125673335Y-85834433D01*
X125667930Y-85826910D01*
X125624742Y-85776876D01*
X125677283Y-85741769D01*
X125691769Y-85727283D01*
X125711964Y-85697059D01*
X126240909Y-85168114D01*
X126605109Y-85168114D01*
X126615278Y-85167112D01*
X126712274Y-85147819D01*
X126731201Y-85139979D01*
X126817698Y-85082183D01*
X126832183Y-85067698D01*
X126889979Y-84981201D01*
X126897819Y-84962274D01*
X126909410Y-84904000D01*
X128634001Y-84904000D01*
X128634001Y-85554102D01*
X128626909Y-85589757D01*
X128626909Y-85610244D01*
X128648799Y-85720289D01*
X128659002Y-85771580D01*
X128666841Y-85790507D01*
X128758232Y-85927283D01*
X128772718Y-85941769D01*
X128802939Y-85961962D01*
X130356886Y-87515910D01*
X130356886Y-87755109D01*
X130357888Y-87765278D01*
X130377181Y-87862274D01*
X130385021Y-87881201D01*
X130442817Y-87967698D01*
X130457302Y-87982183D01*
X130543799Y-88039979D01*
X130562726Y-88047819D01*
X130659722Y-88067112D01*
X130669891Y-88068114D01*
X131130109Y-88068114D01*
X131140278Y-88067112D01*
X131237274Y-88047819D01*
X131256201Y-88039979D01*
X131342698Y-87982183D01*
X131357183Y-87967698D01*
X131414979Y-87881201D01*
X131422819Y-87862274D01*
X131442112Y-87765278D01*
X131443114Y-87755109D01*
X131443114Y-87044891D01*
X131442112Y-87034722D01*
X131422819Y-86937726D01*
X131414979Y-86918799D01*
X131357183Y-86832302D01*
X131342698Y-86817817D01*
X131256201Y-86760021D01*
X131237274Y-86752181D01*
X131140278Y-86732888D01*
X131130109Y-86731886D01*
X130890910Y-86731886D01*
X130653915Y-86494891D01*
X132431886Y-86494891D01*
X132431886Y-87005109D01*
X132432888Y-87015278D01*
X132452181Y-87112274D01*
X132460021Y-87131201D01*
X132517817Y-87217698D01*
X132532302Y-87232183D01*
X132618799Y-87289979D01*
X132637726Y-87297819D01*
X132734722Y-87317112D01*
X132744891Y-87318114D01*
X133655109Y-87318114D01*
X133665278Y-87317112D01*
X133762274Y-87297819D01*
X133781201Y-87289979D01*
X133867697Y-87232183D01*
X133882182Y-87217698D01*
X133883317Y-87216000D01*
X134656977Y-87216000D01*
X134956886Y-87515909D01*
X134956886Y-87755109D01*
X134957888Y-87765278D01*
X134977181Y-87862274D01*
X134985021Y-87881201D01*
X135042817Y-87967698D01*
X135057302Y-87982183D01*
X135143799Y-88039979D01*
X135162726Y-88047819D01*
X135259722Y-88067112D01*
X135269891Y-88068114D01*
X135730109Y-88068114D01*
X135740278Y-88067112D01*
X135837274Y-88047819D01*
X135856201Y-88039979D01*
X135942698Y-87982183D01*
X135957183Y-87967698D01*
X136014979Y-87881201D01*
X136022819Y-87862274D01*
X136042112Y-87765278D01*
X136043114Y-87755109D01*
X136043114Y-87044891D01*
X136042112Y-87034722D01*
X136022819Y-86937726D01*
X136014979Y-86918799D01*
X135957183Y-86832302D01*
X135942698Y-86817817D01*
X135856201Y-86760021D01*
X135848718Y-86756921D01*
X138588164Y-86756921D01*
X138588164Y-86980109D01*
X138589166Y-86990279D01*
X138623206Y-87161408D01*
X138631045Y-87180334D01*
X138730834Y-87329680D01*
X138745320Y-87344166D01*
X138894666Y-87443955D01*
X138913592Y-87451794D01*
X139084721Y-87485834D01*
X139094891Y-87486836D01*
X139343078Y-87486836D01*
X139404000Y-87425914D01*
X139404001Y-86756922D01*
X139343079Y-86696000D01*
X138649086Y-86695999D01*
X138588164Y-86756921D01*
X135848718Y-86756921D01*
X135837274Y-86752181D01*
X135740278Y-86732888D01*
X135730109Y-86731886D01*
X135490909Y-86731886D01*
X135211964Y-86452941D01*
X135191769Y-86422717D01*
X135177283Y-86408231D01*
X135040507Y-86316840D01*
X135021580Y-86309001D01*
X134905938Y-86285999D01*
X134905938Y-86285998D01*
X134860243Y-86276909D01*
X134839757Y-86276909D01*
X134804107Y-86284000D01*
X133883317Y-86284000D01*
X133882182Y-86282302D01*
X133867697Y-86267817D01*
X133781201Y-86210021D01*
X133762274Y-86202181D01*
X133665278Y-86182888D01*
X133655109Y-86181886D01*
X132744891Y-86181886D01*
X132734722Y-86182888D01*
X132637726Y-86202181D01*
X132618799Y-86210021D01*
X132532302Y-86267817D01*
X132517817Y-86282302D01*
X132460021Y-86368799D01*
X132452181Y-86387726D01*
X132432888Y-86484722D01*
X132431886Y-86494891D01*
X130653915Y-86494891D01*
X130227138Y-86068114D01*
X130480109Y-86068114D01*
X130490278Y-86067112D01*
X130587274Y-86047819D01*
X130606201Y-86039979D01*
X130692698Y-85982183D01*
X130707183Y-85967698D01*
X130764979Y-85881201D01*
X130772819Y-85862274D01*
X130792112Y-85765278D01*
X130793114Y-85755109D01*
X130793114Y-85261508D01*
X130796842Y-85270508D01*
X130851586Y-85352439D01*
X130888232Y-85407283D01*
X130902718Y-85421769D01*
X130932939Y-85441962D01*
X131006886Y-85515909D01*
X131006886Y-85755109D01*
X131007888Y-85765278D01*
X131027181Y-85862274D01*
X131035021Y-85881201D01*
X131092817Y-85967698D01*
X131107302Y-85982183D01*
X131193799Y-86039979D01*
X131212726Y-86047819D01*
X131309722Y-86067112D01*
X131319891Y-86068114D01*
X131780109Y-86068114D01*
X131790278Y-86067112D01*
X131887274Y-86047819D01*
X131906201Y-86039979D01*
X131992698Y-85982183D01*
X132007183Y-85967698D01*
X132064979Y-85881201D01*
X132072819Y-85862274D01*
X132092112Y-85765278D01*
X132093114Y-85755109D01*
X132093114Y-85044891D01*
X132092112Y-85034722D01*
X132072819Y-84937726D01*
X132064979Y-84918799D01*
X132055091Y-84904000D01*
X132448944Y-84904000D01*
X132432888Y-84984722D01*
X132431886Y-84994891D01*
X132431886Y-85505109D01*
X132432888Y-85515278D01*
X132452181Y-85612274D01*
X132460021Y-85631201D01*
X132517817Y-85717698D01*
X132532302Y-85732183D01*
X132618799Y-85789979D01*
X132637726Y-85797819D01*
X132734722Y-85817112D01*
X132744891Y-85818114D01*
X133655109Y-85818114D01*
X133665278Y-85817112D01*
X133762274Y-85797819D01*
X133781201Y-85789979D01*
X133867698Y-85732183D01*
X133882183Y-85717698D01*
X133939979Y-85631201D01*
X133947819Y-85612274D01*
X133967112Y-85515278D01*
X133968114Y-85505109D01*
X133968114Y-84994891D01*
X133967112Y-84984722D01*
X133951056Y-84904000D01*
X134218717Y-84904000D01*
X134255139Y-85004069D01*
X134264238Y-85019829D01*
X134306886Y-85070656D01*
X134306886Y-85755109D01*
X134307888Y-85765278D01*
X134327181Y-85862274D01*
X134335021Y-85881201D01*
X134392817Y-85967698D01*
X134407302Y-85982183D01*
X134493799Y-86039979D01*
X134512726Y-86047819D01*
X134609722Y-86067112D01*
X134619891Y-86068114D01*
X135080109Y-86068114D01*
X135090278Y-86067112D01*
X135187274Y-86047819D01*
X135206201Y-86039979D01*
X135292698Y-85982183D01*
X135307183Y-85967698D01*
X135364979Y-85881201D01*
X135372819Y-85862274D01*
X135392112Y-85765278D01*
X135393114Y-85755109D01*
X135393114Y-85044891D01*
X135392112Y-85034722D01*
X135372819Y-84937727D01*
X135370791Y-84932830D01*
X135381284Y-84904000D01*
X135644910Y-84904000D01*
X135635021Y-84918799D01*
X135627181Y-84937726D01*
X135607888Y-85034722D01*
X135606886Y-85044891D01*
X135606886Y-85755109D01*
X135607888Y-85765278D01*
X135627181Y-85862274D01*
X135635021Y-85881201D01*
X135692817Y-85967698D01*
X135707302Y-85982183D01*
X135793799Y-86039979D01*
X135812726Y-86047819D01*
X135909722Y-86067112D01*
X135919891Y-86068114D01*
X136380109Y-86068114D01*
X136390278Y-86067112D01*
X136487274Y-86047819D01*
X136506201Y-86039979D01*
X136592698Y-85982183D01*
X136607183Y-85967698D01*
X136664979Y-85881201D01*
X136672819Y-85862274D01*
X136692112Y-85765278D01*
X136693114Y-85755109D01*
X136693114Y-85044891D01*
X136692112Y-85034722D01*
X136672819Y-84937726D01*
X136664979Y-84918799D01*
X136616000Y-84845498D01*
X136616000Y-84443023D01*
X136700909Y-84358114D01*
X137860109Y-84358114D01*
X137870278Y-84357112D01*
X137957135Y-84339836D01*
X137959085Y-84342283D01*
X137968368Y-84357081D01*
X137975672Y-84366247D01*
X137988021Y-84378596D01*
X138025285Y-84425358D01*
X138043589Y-84439971D01*
X138054807Y-84445382D01*
X138535731Y-84926306D01*
X138514166Y-85034721D01*
X138513164Y-85044891D01*
X138513164Y-85218078D01*
X138574086Y-85279000D01*
X139321000Y-85279001D01*
X139320999Y-85471000D01*
X138574086Y-85470999D01*
X138513164Y-85531921D01*
X138513164Y-85705109D01*
X138514166Y-85715279D01*
X138548206Y-85886408D01*
X138556045Y-85905334D01*
X138631742Y-86018623D01*
X138631045Y-86019666D01*
X138623206Y-86038592D01*
X138589166Y-86209721D01*
X138588164Y-86219891D01*
X138588164Y-86443078D01*
X138649086Y-86504000D01*
X139343079Y-86504001D01*
X139343080Y-86504000D01*
X139596000Y-86504001D01*
X139595999Y-87425914D01*
X139656921Y-87486836D01*
X139905109Y-87486836D01*
X139915279Y-87485834D01*
X140086408Y-87451794D01*
X140105334Y-87443955D01*
X140254680Y-87344166D01*
X140269166Y-87329680D01*
X140364256Y-87187367D01*
X140367817Y-87192697D01*
X140382302Y-87207182D01*
X140384000Y-87208317D01*
X140384000Y-87299378D01*
X140387160Y-87317299D01*
X140455139Y-87504069D01*
X140464238Y-87519829D01*
X140591996Y-87672085D01*
X140605936Y-87683782D01*
X140778064Y-87783160D01*
X140795164Y-87789384D01*
X140990901Y-87823898D01*
X141009099Y-87823898D01*
X141204836Y-87789384D01*
X141221936Y-87783160D01*
X141394064Y-87683782D01*
X141408004Y-87672085D01*
X141535762Y-87519829D01*
X141544861Y-87504069D01*
X141612840Y-87317299D01*
X141616000Y-87299378D01*
X141616000Y-87222681D01*
X141804836Y-87189384D01*
X141821936Y-87183160D01*
X141994064Y-87083782D01*
X142008004Y-87072085D01*
X142135762Y-86919829D01*
X142144861Y-86904069D01*
X142212840Y-86717299D01*
X142216000Y-86699378D01*
X142216000Y-86500622D01*
X142212840Y-86482701D01*
X142144861Y-86295931D01*
X142135762Y-86280171D01*
X142008004Y-86127915D01*
X141994064Y-86116218D01*
X141821936Y-86016840D01*
X141804836Y-86010616D01*
X141691000Y-85990543D01*
X141691000Y-85720870D01*
X141692112Y-85715278D01*
X141693114Y-85705109D01*
X141693114Y-85470119D01*
X142081952Y-85470119D01*
X142096091Y-85694841D01*
X142097492Y-85703998D01*
X142151202Y-85922663D01*
X142154202Y-85931427D01*
X142245785Y-86137127D01*
X142250290Y-86145221D01*
X142376852Y-86331451D01*
X142382719Y-86338620D01*
X142540261Y-86499494D01*
X142547304Y-86505510D01*
X142730843Y-86635945D01*
X142738841Y-86640619D01*
X142942577Y-86736489D01*
X142951276Y-86739673D01*
X143168770Y-86797950D01*
X143177895Y-86799543D01*
X143402271Y-86818384D01*
X143411534Y-86818335D01*
X143635701Y-86797146D01*
X143644809Y-86795457D01*
X143861681Y-86734906D01*
X143870346Y-86731632D01*
X144073067Y-86633632D01*
X144081016Y-86628875D01*
X144263179Y-86496526D01*
X144270159Y-86490437D01*
X144426007Y-86327921D01*
X144431799Y-86320691D01*
X144556403Y-86133146D01*
X144560823Y-86125005D01*
X144650247Y-85918359D01*
X144653156Y-85909564D01*
X144699476Y-85712077D01*
X144751202Y-85922663D01*
X144754202Y-85931427D01*
X144845785Y-86137127D01*
X144850290Y-86145221D01*
X144976852Y-86331451D01*
X144982719Y-86338620D01*
X145140261Y-86499494D01*
X145147304Y-86505510D01*
X145330843Y-86635945D01*
X145338841Y-86640619D01*
X145542577Y-86736489D01*
X145551276Y-86739673D01*
X145768770Y-86797950D01*
X145777895Y-86799543D01*
X146002271Y-86818384D01*
X146011534Y-86818335D01*
X146235701Y-86797146D01*
X146244809Y-86795457D01*
X146461681Y-86734906D01*
X146470346Y-86731632D01*
X146673067Y-86633632D01*
X146681016Y-86628875D01*
X146863179Y-86496526D01*
X146870159Y-86490437D01*
X147026007Y-86327921D01*
X147031799Y-86320691D01*
X147156403Y-86133146D01*
X147160823Y-86125005D01*
X147250247Y-85918359D01*
X147253156Y-85909564D01*
X147304729Y-85689682D01*
X147306088Y-85679141D01*
X147313673Y-85389459D01*
X147312867Y-85378862D01*
X147272873Y-85156583D01*
X147270429Y-85147648D01*
X147191943Y-84936604D01*
X147187955Y-84928243D01*
X147073335Y-84734433D01*
X147067930Y-84726910D01*
X146920802Y-84556461D01*
X146914150Y-84550015D01*
X146739163Y-84408313D01*
X146731474Y-84403147D01*
X146534161Y-84294672D01*
X146525679Y-84290948D01*
X146312273Y-84219130D01*
X146303265Y-84216967D01*
X146080514Y-84184075D01*
X146071267Y-84183542D01*
X145846212Y-84190614D01*
X145837016Y-84191727D01*
X145616771Y-84238542D01*
X145607917Y-84241265D01*
X145399442Y-84326343D01*
X145391211Y-84330591D01*
X145201097Y-84451241D01*
X145193748Y-84456880D01*
X145028004Y-84609289D01*
X145021769Y-84616140D01*
X144885634Y-84795492D01*
X144880712Y-84803339D01*
X144778489Y-85003964D01*
X144775034Y-85012559D01*
X144709953Y-85228115D01*
X144708075Y-85237186D01*
X144699974Y-85307203D01*
X144672873Y-85156583D01*
X144670429Y-85147648D01*
X144591943Y-84936604D01*
X144587955Y-84928243D01*
X144473335Y-84734433D01*
X144467930Y-84726910D01*
X144320802Y-84556461D01*
X144314150Y-84550015D01*
X144139163Y-84408313D01*
X144131474Y-84403147D01*
X143934161Y-84294672D01*
X143925679Y-84290948D01*
X143712273Y-84219130D01*
X143703265Y-84216967D01*
X143480514Y-84184075D01*
X143471267Y-84183542D01*
X143246212Y-84190614D01*
X143237016Y-84191727D01*
X143016771Y-84238542D01*
X143007917Y-84241265D01*
X142799442Y-84326343D01*
X142791211Y-84330591D01*
X142601097Y-84451241D01*
X142593748Y-84456880D01*
X142428004Y-84609289D01*
X142421769Y-84616140D01*
X142285634Y-84795492D01*
X142280712Y-84803339D01*
X142178489Y-85003964D01*
X142175034Y-85012559D01*
X142109953Y-85228115D01*
X142108075Y-85237186D01*
X142082195Y-85460859D01*
X142081952Y-85470119D01*
X141693114Y-85470119D01*
X141693114Y-85044891D01*
X141692112Y-85034722D01*
X141672819Y-84937726D01*
X141664979Y-84918799D01*
X141607183Y-84832302D01*
X141592698Y-84817817D01*
X141532072Y-84777308D01*
X141694064Y-84683782D01*
X141708004Y-84672085D01*
X141835762Y-84519829D01*
X141844861Y-84504069D01*
X141912840Y-84317299D01*
X141916000Y-84299378D01*
X141916000Y-84100622D01*
X141912840Y-84082701D01*
X141898244Y-84042600D01*
X144603783Y-84042600D01*
X144615178Y-84046602D01*
X144638450Y-84049253D01*
X144698235Y-84042600D01*
X144716189Y-84042600D01*
X144727790Y-84041293D01*
X144744760Y-84037422D01*
X144803949Y-84030835D01*
X144826108Y-84023108D01*
X144836735Y-84016442D01*
X144849041Y-84013635D01*
X144870147Y-84003477D01*
X144917292Y-83965910D01*
X144932080Y-83956633D01*
X144941247Y-83949328D01*
X144953590Y-83936985D01*
X145000359Y-83899716D01*
X145014972Y-83881410D01*
X145020383Y-83870192D01*
X145744928Y-83145647D01*
X145755816Y-83140419D01*
X145774147Y-83125838D01*
X145811717Y-83078858D01*
X145824411Y-83066164D01*
X145831690Y-83057038D01*
X145840951Y-83042305D01*
X145878151Y-82995788D01*
X145888355Y-82974654D01*
X145891156Y-82962424D01*
X145897870Y-82951742D01*
X145905612Y-82929636D01*
X145912384Y-82869744D01*
X145916284Y-82852713D01*
X145917600Y-82841068D01*
X145917600Y-82823600D01*
X145924316Y-82764191D01*
X145921706Y-82740915D01*
X145917600Y-82729157D01*
X145917600Y-82171217D01*
X145921602Y-82159822D01*
X145924253Y-82136550D01*
X145917600Y-82076765D01*
X145917600Y-82058811D01*
X145916293Y-82047210D01*
X145912422Y-82030240D01*
X145905835Y-81971050D01*
X145898108Y-81948891D01*
X145891441Y-81938263D01*
X145888634Y-81925958D01*
X145878477Y-81904853D01*
X145840909Y-81857708D01*
X145831632Y-81842918D01*
X145824328Y-81833753D01*
X145811984Y-81821409D01*
X145774716Y-81774642D01*
X145756412Y-81760029D01*
X145745192Y-81754617D01*
X145645648Y-81655074D01*
X145640419Y-81644184D01*
X145625838Y-81625852D01*
X145578846Y-81588272D01*
X145566163Y-81575589D01*
X145557037Y-81568310D01*
X145542311Y-81559055D01*
X145495788Y-81521850D01*
X145474655Y-81511645D01*
X145462425Y-81508844D01*
X145451740Y-81502128D01*
X145429634Y-81494387D01*
X145418114Y-81493085D01*
X145418114Y-81244891D01*
X145417112Y-81234722D01*
X145400260Y-81150000D01*
X145407015Y-81116038D01*
X146488036Y-82197059D01*
X146508231Y-82227283D01*
X146522717Y-82241769D01*
X146659493Y-82333160D01*
X146678420Y-82340999D01*
X146794062Y-82364002D01*
X146839756Y-82373091D01*
X146860243Y-82373091D01*
X146895892Y-82366000D01*
X147781886Y-82366000D01*
X147781886Y-82555109D01*
X147782888Y-82565278D01*
X147802181Y-82662274D01*
X147810021Y-82681201D01*
X147867817Y-82767698D01*
X147882302Y-82782183D01*
X147968799Y-82839979D01*
X147987726Y-82847819D01*
X148084722Y-82867112D01*
X148094891Y-82868114D01*
X149505109Y-82868114D01*
X149515278Y-82867112D01*
X149612274Y-82847819D01*
X149631201Y-82839979D01*
X149717698Y-82782183D01*
X149732183Y-82767698D01*
X149789979Y-82681201D01*
X149797819Y-82662274D01*
X149817112Y-82565278D01*
X149818114Y-82555109D01*
X149818114Y-82244891D01*
X149817112Y-82234722D01*
X149800260Y-82150000D01*
X149817112Y-82065278D01*
X149818114Y-82055109D01*
X149818114Y-82031655D01*
X149915901Y-82048898D01*
X149934099Y-82048898D01*
X150129836Y-82014384D01*
X150146936Y-82008160D01*
X150319064Y-81908782D01*
X150333004Y-81897085D01*
X150460762Y-81744829D01*
X150469861Y-81729069D01*
X150537840Y-81542299D01*
X150541000Y-81524378D01*
X150541000Y-81325622D01*
X150537840Y-81307701D01*
X150469861Y-81120931D01*
X150460762Y-81105171D01*
X150333004Y-80952915D01*
X150319064Y-80941218D01*
X150146936Y-80841840D01*
X150129836Y-80835616D01*
X149934099Y-80801102D01*
X149915901Y-80801102D01*
X149818114Y-80818345D01*
X149818114Y-80744891D01*
X149817112Y-80734722D01*
X149800260Y-80650000D01*
X149817112Y-80565278D01*
X149818114Y-80555109D01*
X149818114Y-80244891D01*
X149817112Y-80234722D01*
X149797819Y-80137726D01*
X149789979Y-80118799D01*
X149732183Y-80032302D01*
X149717698Y-80017817D01*
X149631201Y-79960021D01*
X149612274Y-79952181D01*
X149607743Y-79951280D01*
X150165909Y-79393114D01*
X151705109Y-79393114D01*
X151715278Y-79392112D01*
X151812274Y-79372819D01*
X151831201Y-79364979D01*
X151886001Y-79328363D01*
X151886001Y-81869936D01*
X145569938Y-88186000D01*
X119414000Y-88186000D01*
X119414000Y-84956922D01*
X119638164Y-84956922D01*
X119638164Y-85305109D01*
X119639166Y-85315279D01*
X119673206Y-85486408D01*
X119681045Y-85505334D01*
X119780834Y-85654680D01*
X119795320Y-85669166D01*
X119944666Y-85768955D01*
X119963592Y-85776794D01*
X120134721Y-85810834D01*
X120144891Y-85811836D01*
X120493078Y-85811836D01*
X120554000Y-85750914D01*
X120554000Y-84956922D01*
X120493078Y-84896000D01*
X119699086Y-84896000D01*
X119638164Y-84956922D01*
X119414000Y-84956922D01*
X119414000Y-84294891D01*
X119638164Y-84294891D01*
X119638164Y-84643078D01*
X119699086Y-84704000D01*
X120493078Y-84704000D01*
X120554000Y-84643078D01*
X120554000Y-83849086D01*
X120493078Y-83788164D01*
X120144891Y-83788164D01*
X120134721Y-83789166D01*
X119963592Y-83823206D01*
X119944666Y-83831045D01*
X119795320Y-83930834D01*
X119780834Y-83945320D01*
X119681045Y-84094666D01*
X119673206Y-84113592D01*
X119639166Y-84284721D01*
X119638164Y-84294891D01*
X119414000Y-84294891D01*
X119414000Y-82856922D01*
X119638164Y-82856922D01*
X119638164Y-83205109D01*
X119639166Y-83215279D01*
X119673206Y-83386408D01*
X119681045Y-83405334D01*
X119780834Y-83554680D01*
X119795320Y-83569166D01*
X119944666Y-83668955D01*
X119963592Y-83676794D01*
X120134721Y-83710834D01*
X120144891Y-83711836D01*
X120493078Y-83711836D01*
X120554000Y-83650914D01*
X120554000Y-82856922D01*
X120493078Y-82796000D01*
X119699086Y-82796000D01*
X119638164Y-82856922D01*
X119414000Y-82856922D01*
X119414000Y-82194891D01*
X119638164Y-82194891D01*
X119638164Y-82543078D01*
X119699086Y-82604000D01*
X120493078Y-82604000D01*
X120554000Y-82543078D01*
X120554000Y-81749086D01*
X120493078Y-81688164D01*
X120144891Y-81688164D01*
X120134721Y-81689166D01*
X119963592Y-81723206D01*
X119944666Y-81731045D01*
X119795320Y-81830834D01*
X119780834Y-81845320D01*
X119681045Y-81994666D01*
X119673206Y-82013592D01*
X119639166Y-82184721D01*
X119638164Y-82194891D01*
X119414000Y-82194891D01*
X119414000Y-80756922D01*
X119638164Y-80756922D01*
X119638164Y-81105109D01*
X119639166Y-81115279D01*
X119673206Y-81286408D01*
X119681045Y-81305334D01*
X119780834Y-81454680D01*
X119795320Y-81469166D01*
X119944666Y-81568955D01*
X119963592Y-81576794D01*
X120134721Y-81610834D01*
X120144891Y-81611836D01*
X120493078Y-81611836D01*
X120554000Y-81550914D01*
X120554000Y-80756922D01*
X120493078Y-80696000D01*
X119699086Y-80696000D01*
X119638164Y-80756922D01*
X119414000Y-80756922D01*
X119414000Y-73856921D01*
X121663164Y-73856921D01*
X121663164Y-74235109D01*
X121664166Y-74245279D01*
X121698206Y-74416408D01*
X121706045Y-74435334D01*
X121805834Y-74584680D01*
X121820320Y-74599166D01*
X121969666Y-74698955D01*
X121988592Y-74706794D01*
X122159721Y-74740834D01*
X122169891Y-74741836D01*
X122343078Y-74741836D01*
X122404000Y-74680914D01*
X122404001Y-73856922D01*
X122343079Y-73796000D01*
X121724086Y-73795999D01*
X121663164Y-73856921D01*
X119414000Y-73856921D01*
X119414000Y-70714000D01*
X127793378Y-70714000D01*
X127859342Y-70714057D01*
X127882183Y-70708868D01*
X127900830Y-70699914D01*
X127897993Y-70712300D01*
X127883979Y-70752209D01*
X127881328Y-70775480D01*
X127886000Y-70817466D01*
X127886000Y-70846453D01*
X127883979Y-70852208D01*
X127881328Y-70875480D01*
X127886000Y-70917466D01*
X127886000Y-70929511D01*
X127887307Y-70941112D01*
X127889893Y-70952450D01*
X127894517Y-70994001D01*
X127902244Y-71016160D01*
X127905674Y-71021628D01*
X127907118Y-71027959D01*
X127917275Y-71049063D01*
X127943637Y-71082146D01*
X127949851Y-71092052D01*
X127957154Y-71101216D01*
X127965418Y-71109480D01*
X127991581Y-71142312D01*
X128009887Y-71156925D01*
X128015636Y-71159698D01*
X129740103Y-72884166D01*
X129742744Y-72889666D01*
X129757325Y-72907997D01*
X129790323Y-72934386D01*
X129798835Y-72942898D01*
X129807962Y-72950178D01*
X129817807Y-72956365D01*
X129850461Y-72982479D01*
X129871596Y-72992685D01*
X129877884Y-72994125D01*
X129883379Y-72997579D01*
X129905487Y-73005320D01*
X129947510Y-73010071D01*
X129958913Y-73012683D01*
X129970561Y-73014000D01*
X129982262Y-73014000D01*
X130023964Y-73018714D01*
X130047240Y-73016104D01*
X130053265Y-73014000D01*
X131993378Y-73014000D01*
X132059342Y-73014057D01*
X132082183Y-73008868D01*
X132104173Y-72998308D01*
X132127956Y-72992883D01*
X132149062Y-72982726D01*
X132167924Y-72967696D01*
X132189666Y-72957256D01*
X132207998Y-72942674D01*
X132223231Y-72923624D01*
X132242310Y-72908422D01*
X132256924Y-72890116D01*
X132267402Y-72868393D01*
X132282480Y-72849538D01*
X132292685Y-72828405D01*
X132298105Y-72804740D01*
X132308725Y-72782721D01*
X132313954Y-72759889D01*
X132313980Y-72729657D01*
X132314000Y-72729481D01*
X132314000Y-72706622D01*
X132314057Y-72640670D01*
X132314000Y-72640419D01*
X132314000Y-72606622D01*
X132314057Y-72540657D01*
X132308868Y-72517817D01*
X132298308Y-72495824D01*
X132292883Y-72472042D01*
X132282726Y-72450937D01*
X132267696Y-72432075D01*
X132257256Y-72410334D01*
X132242674Y-72392002D01*
X132223624Y-72376769D01*
X132208422Y-72357690D01*
X132190116Y-72343076D01*
X132168393Y-72332598D01*
X132149538Y-72317520D01*
X132128405Y-72307315D01*
X132104740Y-72301895D01*
X132082721Y-72291275D01*
X132059889Y-72286046D01*
X132029657Y-72286020D01*
X132029481Y-72286000D01*
X132006622Y-72286000D01*
X131940671Y-72285943D01*
X131940420Y-72286000D01*
X130130063Y-72286000D01*
X128434582Y-70590520D01*
X128408420Y-70557688D01*
X128390114Y-70543075D01*
X128352222Y-70524799D01*
X128316619Y-70502422D01*
X128294513Y-70494680D01*
X128288331Y-70493981D01*
X128282721Y-70491275D01*
X128259888Y-70486046D01*
X128217823Y-70486010D01*
X128176037Y-70481285D01*
X128152757Y-70483896D01*
X128146882Y-70485948D01*
X128140659Y-70485942D01*
X128117817Y-70491132D01*
X128100705Y-70499349D01*
X128108725Y-70482721D01*
X128113954Y-70459889D01*
X128113980Y-70429657D01*
X128114000Y-70429481D01*
X128114000Y-70406622D01*
X128114057Y-70340670D01*
X128114000Y-70340419D01*
X128114000Y-66314000D01*
X130703233Y-66314000D01*
X130689166Y-66384721D01*
%TA.AperFunction,Conductor*%
G36*
X130689166Y-66384721D02*
G01*
X130688164Y-66394891D01*
X130688164Y-66643078D01*
X130749086Y-66704000D01*
X131443079Y-66704001D01*
X131443080Y-66704000D01*
X132450914Y-66704001D01*
X132511836Y-66643079D01*
X132511836Y-66394891D01*
X132510834Y-66384721D01*
X132496767Y-66314000D01*
X144586000Y-66314000D01*
X144586001Y-70992231D01*
X144585943Y-71059343D01*
X144591132Y-71082184D01*
X144599349Y-71099296D01*
X144582722Y-71091276D01*
X144559892Y-71086047D01*
X144553663Y-71086041D01*
X144547789Y-71083979D01*
X144524520Y-71081328D01*
X144482721Y-71085979D01*
X144440657Y-71085943D01*
X144417816Y-71091133D01*
X144412208Y-71093826D01*
X144405998Y-71094517D01*
X144383837Y-71102245D01*
X144348463Y-71124435D01*
X144310336Y-71142744D01*
X144292005Y-71157325D01*
X144265618Y-71190319D01*
X143269938Y-72186000D01*
X139006621Y-72186000D01*
X138940657Y-72185943D01*
X138917816Y-72191132D01*
X138895826Y-72201692D01*
X138872043Y-72207117D01*
X138850937Y-72217274D01*
X138832075Y-72232304D01*
X138810334Y-72242744D01*
X138792004Y-72257325D01*
X138776768Y-72276376D01*
X138757688Y-72291580D01*
X138743076Y-72309885D01*
X138732598Y-72331608D01*
X138717519Y-72350464D01*
X138707315Y-72371598D01*
X138701895Y-72395262D01*
X138691276Y-72417278D01*
X138686046Y-72440111D01*
X138686020Y-72470344D01*
X138686000Y-72470520D01*
X138686000Y-72493378D01*
X138685943Y-72559330D01*
X138686000Y-72559581D01*
X138686000Y-72593378D01*
X138685943Y-72659343D01*
X138691132Y-72682184D01*
X138701691Y-72704173D01*
X138707117Y-72727958D01*
X138717275Y-72749064D01*
X138732304Y-72767924D01*
X138742743Y-72789665D01*
X138757325Y-72807997D01*
X138776381Y-72823236D01*
X138791581Y-72842311D01*
X138809886Y-72856924D01*
X138831605Y-72867401D01*
X138850462Y-72882480D01*
X138871596Y-72892685D01*
X138895264Y-72898105D01*
X138917279Y-72908725D01*
X138940112Y-72913954D01*
X138970343Y-72913980D01*
X138970519Y-72914000D01*
X138993379Y-72914000D01*
X139059330Y-72914057D01*
X139059581Y-72914000D01*
X143346453Y-72914000D01*
X143352208Y-72916021D01*
X143375480Y-72918672D01*
X143417466Y-72914000D01*
X143429511Y-72914000D01*
X143441112Y-72912693D01*
X143452450Y-72910107D01*
X143494001Y-72905483D01*
X143516160Y-72897756D01*
X143521628Y-72894326D01*
X143527959Y-72892882D01*
X143549064Y-72882725D01*
X143582146Y-72856363D01*
X143592049Y-72850151D01*
X143601215Y-72842847D01*
X143609480Y-72834582D01*
X143642312Y-72808420D01*
X143656925Y-72790114D01*
X143659699Y-72784363D01*
X144684166Y-71759897D01*
X144689666Y-71757256D01*
X144707997Y-71742675D01*
X144734386Y-71709677D01*
X144742898Y-71701165D01*
X144750179Y-71692036D01*
X144756367Y-71682191D01*
X144782478Y-71649540D01*
X144792684Y-71628407D01*
X144794126Y-71622113D01*
X144797579Y-71616618D01*
X144805320Y-71594513D01*
X144810072Y-71552485D01*
X144812683Y-71541085D01*
X144814000Y-71529438D01*
X144814000Y-71517744D01*
X144818715Y-71476036D01*
X144816104Y-71452758D01*
X144814000Y-71446733D01*
X144814000Y-71417744D01*
X144818715Y-71376036D01*
X144816104Y-71352758D01*
X144802237Y-71313050D01*
X144799269Y-71300037D01*
X144817279Y-71308725D01*
X144840112Y-71313954D01*
X144870343Y-71313980D01*
X144870519Y-71314000D01*
X144893379Y-71314000D01*
X144959330Y-71314057D01*
X144959581Y-71314000D01*
X151009778Y-71314000D01*
X151005936Y-71316218D01*
X150991996Y-71327915D01*
X150945396Y-71383450D01*
X150908444Y-71420402D01*
X150852916Y-71466996D01*
X150841219Y-71480936D01*
X150804975Y-71543713D01*
X150763403Y-71603084D01*
X150755712Y-71619576D01*
X150750980Y-71637234D01*
X150741841Y-71653064D01*
X150735617Y-71670165D01*
X150723032Y-71741542D01*
X150704270Y-71811559D01*
X150702684Y-71829688D01*
X150704889Y-71854889D01*
X150679688Y-71852684D01*
X150661559Y-71854270D01*
X150591554Y-71873028D01*
X150520164Y-71885616D01*
X150503064Y-71891840D01*
X150487233Y-71900980D01*
X150469577Y-71905711D01*
X150453084Y-71913402D01*
X150393719Y-71954970D01*
X150330936Y-71991218D01*
X150316997Y-72002914D01*
X150305591Y-72016507D01*
X150291995Y-72027916D01*
X150245396Y-72083450D01*
X150243114Y-72085732D01*
X150243114Y-71794891D01*
X150242112Y-71784722D01*
X150222819Y-71687726D01*
X150214979Y-71668799D01*
X150157183Y-71582302D01*
X150142698Y-71567817D01*
X150056201Y-71510021D01*
X150037274Y-71502181D01*
X149940278Y-71482888D01*
X149930109Y-71481886D01*
X148919891Y-71481886D01*
X148909722Y-71482888D01*
X148812726Y-71502181D01*
X148793799Y-71510021D01*
X148707302Y-71567817D01*
X148692817Y-71582302D01*
X148635021Y-71668799D01*
X148627181Y-71687726D01*
X148607888Y-71784722D01*
X148606886Y-71794891D01*
X148606886Y-74555109D01*
X148607888Y-74565278D01*
X148627181Y-74662274D01*
X148635021Y-74681201D01*
X148692817Y-74767698D01*
X148707302Y-74782183D01*
X148793799Y-74839979D01*
X148812726Y-74847819D01*
X148909722Y-74867112D01*
X148919891Y-74868114D01*
X149930109Y-74868114D01*
X149940278Y-74867112D01*
X150037274Y-74847819D01*
X150056201Y-74839979D01*
X150142698Y-74782183D01*
X150157183Y-74767698D01*
X150214979Y-74681201D01*
X150222819Y-74662274D01*
X150242112Y-74565278D01*
X150243114Y-74555109D01*
X150243114Y-74491000D01*
X150653725Y-74491000D01*
X150660021Y-74506201D01*
X150717817Y-74592698D01*
X150732302Y-74607183D01*
X150809000Y-74658432D01*
X150809001Y-75456886D01*
X148944891Y-75456886D01*
X148934722Y-75457888D01*
X148837726Y-75477181D01*
X148818799Y-75485021D01*
X148732302Y-75542817D01*
X148717817Y-75557302D01*
X148660021Y-75643799D01*
X148652181Y-75662726D01*
X148632888Y-75759722D01*
X148631886Y-75769891D01*
X148631886Y-76780109D01*
X148632888Y-76790278D01*
X148652181Y-76887274D01*
X148660021Y-76906201D01*
X148717817Y-76992698D01*
X148732302Y-77007183D01*
X148818799Y-77064979D01*
X148837726Y-77072819D01*
X148934722Y-77092112D01*
X148944891Y-77093114D01*
X151705109Y-77093114D01*
X151715278Y-77092112D01*
X151812274Y-77072819D01*
X151831201Y-77064979D01*
X151886001Y-77028363D01*
X151886001Y-77821637D01*
X151831201Y-77785021D01*
X151812274Y-77777181D01*
X151715278Y-77757888D01*
X151705109Y-77756886D01*
X149186620Y-77756886D01*
X148425803Y-76996070D01*
X148402817Y-76961669D01*
X148388331Y-76947183D01*
X148235017Y-76844741D01*
X148216090Y-76836902D01*
X148202073Y-76834114D01*
X148197819Y-76812727D01*
X148189979Y-76793799D01*
X148132183Y-76707302D01*
X148117698Y-76692817D01*
X148031201Y-76635021D01*
X148012274Y-76627181D01*
X147915278Y-76607888D01*
X147905109Y-76606886D01*
X147144891Y-76606886D01*
X147134722Y-76607888D01*
X147037726Y-76627181D01*
X147018799Y-76635021D01*
X146932302Y-76692817D01*
X146917817Y-76707302D01*
X146860021Y-76793799D01*
X146852181Y-76812726D01*
X146832888Y-76909722D01*
X146831886Y-76919891D01*
X146831886Y-77730109D01*
X146832888Y-77740278D01*
X146852181Y-77837274D01*
X146860021Y-77856201D01*
X146917817Y-77942698D01*
X146932302Y-77957183D01*
X147018799Y-78014979D01*
X147037726Y-78022819D01*
X147134722Y-78042112D01*
X147144891Y-78043114D01*
X147905109Y-78043114D01*
X147915278Y-78042112D01*
X147996269Y-78026002D01*
X148631886Y-78661620D01*
X148631886Y-79080109D01*
X148632888Y-79090278D01*
X148652181Y-79187274D01*
X148660021Y-79206201D01*
X148717817Y-79292698D01*
X148732302Y-79307183D01*
X148818799Y-79364979D01*
X148837726Y-79372819D01*
X148863109Y-79377868D01*
X148502939Y-79738038D01*
X148472718Y-79758231D01*
X148458232Y-79772717D01*
X148366841Y-79909492D01*
X148359001Y-79928419D01*
X148358311Y-79931886D01*
X148094891Y-79931886D01*
X148084722Y-79932888D01*
X147987726Y-79952181D01*
X147968799Y-79960021D01*
X147882302Y-80017817D01*
X147867817Y-80032302D01*
X147866000Y-80035021D01*
X147866000Y-79976878D01*
X147872316Y-79904687D01*
X147870730Y-79886559D01*
X147866000Y-79868906D01*
X147866000Y-79543114D01*
X147905109Y-79543114D01*
X147915278Y-79542112D01*
X148012274Y-79522819D01*
X148031201Y-79514979D01*
X148117698Y-79457183D01*
X148132183Y-79442698D01*
X148189979Y-79356201D01*
X148197819Y-79337274D01*
X148217112Y-79240278D01*
X148218114Y-79230109D01*
X148218114Y-78419891D01*
X148217112Y-78409722D01*
X148197819Y-78312726D01*
X148189979Y-78293799D01*
X148132183Y-78207302D01*
X148117698Y-78192817D01*
X148031201Y-78135021D01*
X148012274Y-78127181D01*
X147915278Y-78107888D01*
X147905109Y-78106886D01*
X147144891Y-78106886D01*
X147134722Y-78107888D01*
X147037726Y-78127181D01*
X147018799Y-78135021D01*
X147003522Y-78145229D01*
X147002686Y-78145005D01*
X146984477Y-78143413D01*
X146967299Y-78137160D01*
X146949377Y-78134000D01*
X146931093Y-78134000D01*
X146913441Y-78129270D01*
X146895313Y-78127684D01*
X146877104Y-78129277D01*
X146859098Y-78126102D01*
X146840902Y-78126102D01*
X146822896Y-78129277D01*
X146804687Y-78127684D01*
X146786559Y-78129270D01*
X146768907Y-78134000D01*
X146750622Y-78134000D01*
X146732700Y-78137160D01*
X146715518Y-78143414D01*
X146697314Y-78145007D01*
X146679737Y-78149716D01*
X146663170Y-78157441D01*
X146645162Y-78160617D01*
X146628063Y-78166840D01*
X146612230Y-78175982D01*
X146594577Y-78180712D01*
X146578084Y-78188402D01*
X146564792Y-78197709D01*
X146490278Y-78182888D01*
X146480109Y-78181886D01*
X145793415Y-78181886D01*
X145961681Y-78134906D01*
X145970346Y-78131632D01*
X146173067Y-78033632D01*
X146181016Y-78028875D01*
X146363179Y-77896526D01*
X146370159Y-77890437D01*
X146526007Y-77727921D01*
X146531799Y-77720691D01*
X146656403Y-77533146D01*
X146660823Y-77525005D01*
X146750247Y-77318359D01*
X146753156Y-77309564D01*
X146804729Y-77089682D01*
X146806088Y-77079141D01*
X146813673Y-76789459D01*
X146812867Y-76778862D01*
X146772873Y-76556583D01*
X146770429Y-76547648D01*
X146691943Y-76336604D01*
X146687955Y-76328243D01*
X146573335Y-76134433D01*
X146567930Y-76126910D01*
X146420802Y-75956461D01*
X146414150Y-75950015D01*
X146239163Y-75808313D01*
X146231474Y-75803147D01*
X146116000Y-75739664D01*
X146116000Y-75232327D01*
X146150400Y-75216286D01*
X146165306Y-75205848D01*
X146178231Y-75192923D01*
X146194064Y-75183782D01*
X146208004Y-75172085D01*
X146254603Y-75116551D01*
X146305848Y-75065307D01*
X146316285Y-75050401D01*
X146324010Y-75033834D01*
X146335763Y-75019828D01*
X146344861Y-75004069D01*
X146369656Y-74935945D01*
X146400283Y-74870265D01*
X146404993Y-74852687D01*
X146406586Y-74834482D01*
X146412840Y-74817300D01*
X146416000Y-74799378D01*
X146416000Y-74787995D01*
X146493799Y-74839979D01*
X146512726Y-74847819D01*
X146609722Y-74867112D01*
X146619891Y-74868114D01*
X147630109Y-74868114D01*
X147640278Y-74867112D01*
X147737274Y-74847819D01*
X147756201Y-74839979D01*
X147842698Y-74782183D01*
X147857183Y-74767698D01*
X147914979Y-74681201D01*
X147922819Y-74662274D01*
X147942112Y-74565278D01*
X147943114Y-74555109D01*
X147943114Y-71794891D01*
X147942112Y-71784722D01*
X147922819Y-71687726D01*
X147914979Y-71668799D01*
X147857183Y-71582302D01*
X147842698Y-71567817D01*
X147756201Y-71510021D01*
X147737274Y-71502181D01*
X147640278Y-71482888D01*
X147630109Y-71481886D01*
X146619891Y-71481886D01*
X146609722Y-71482888D01*
X146512726Y-71502181D01*
X146493799Y-71510021D01*
X146407302Y-71567817D01*
X146392817Y-71582302D01*
X146335021Y-71668799D01*
X146327181Y-71687726D01*
X146307888Y-71784722D01*
X146306886Y-71794891D01*
X146306886Y-72659000D01*
X145896275Y-72659000D01*
X145889979Y-72643799D01*
X145832183Y-72557302D01*
X145817698Y-72542817D01*
X145731201Y-72485021D01*
X145712274Y-72477181D01*
X145615278Y-72457888D01*
X145605109Y-72456886D01*
X144844891Y-72456886D01*
X144834722Y-72457888D01*
X144737726Y-72477181D01*
X144718799Y-72485021D01*
X144632303Y-72542817D01*
X144617818Y-72557302D01*
X144616683Y-72559000D01*
X144451878Y-72559000D01*
X144379687Y-72552684D01*
X144361559Y-72554270D01*
X144291553Y-72573028D01*
X144220164Y-72585616D01*
X144203065Y-72591840D01*
X144187233Y-72600980D01*
X144169574Y-72605712D01*
X144153082Y-72613403D01*
X144093715Y-72654973D01*
X144030937Y-72691218D01*
X144016996Y-72702915D01*
X143970401Y-72758444D01*
X143385180Y-73343666D01*
X143312273Y-73319130D01*
X143303265Y-73316967D01*
X143080514Y-73284075D01*
X143071267Y-73283542D01*
X142846212Y-73290614D01*
X142837016Y-73291727D01*
X142616771Y-73338542D01*
X142607917Y-73341265D01*
X142399442Y-73426343D01*
X142391211Y-73430591D01*
X142201097Y-73551241D01*
X142193748Y-73556880D01*
X142028004Y-73709289D01*
X142021769Y-73716140D01*
X141885634Y-73895492D01*
X141880712Y-73903339D01*
X141778489Y-74103964D01*
X141775034Y-74112559D01*
X141709953Y-74328115D01*
X141708075Y-74337186D01*
X141682195Y-74560859D01*
X141681952Y-74570119D01*
X141696091Y-74794841D01*
X141697492Y-74803998D01*
X141751202Y-75022663D01*
X141754202Y-75031427D01*
X141845785Y-75237127D01*
X141850290Y-75245221D01*
X141976852Y-75431451D01*
X141982719Y-75438620D01*
X142140261Y-75599494D01*
X142147304Y-75605510D01*
X142330843Y-75735945D01*
X142338841Y-75740619D01*
X142542577Y-75836489D01*
X142551276Y-75839673D01*
X142768770Y-75897950D01*
X142777895Y-75899543D01*
X143002271Y-75918384D01*
X143011534Y-75918335D01*
X143235701Y-75897146D01*
X143244809Y-75895457D01*
X143461681Y-75834906D01*
X143470346Y-75831632D01*
X143673067Y-75733632D01*
X143681016Y-75728875D01*
X143863179Y-75596526D01*
X143870159Y-75590437D01*
X144026007Y-75427921D01*
X144031799Y-75420691D01*
X144156403Y-75233146D01*
X144160823Y-75225005D01*
X144186538Y-75165581D01*
X144191996Y-75172085D01*
X144205936Y-75183782D01*
X144221769Y-75192923D01*
X144234694Y-75205848D01*
X144249600Y-75216286D01*
X144315281Y-75246913D01*
X144378063Y-75283160D01*
X144395162Y-75289384D01*
X144413172Y-75292560D01*
X144429737Y-75300284D01*
X144447314Y-75304993D01*
X144519507Y-75311309D01*
X144583627Y-75322616D01*
X144584000Y-75326879D01*
X144584000Y-75399378D01*
X144587160Y-75417300D01*
X144593414Y-75434482D01*
X144595007Y-75452687D01*
X144599717Y-75470265D01*
X144630344Y-75535945D01*
X144655139Y-75604069D01*
X144664237Y-75619828D01*
X144675990Y-75633834D01*
X144683715Y-75650401D01*
X144694152Y-75665307D01*
X144745397Y-75716551D01*
X144791996Y-75772085D01*
X144805936Y-75783782D01*
X144806700Y-75784223D01*
X144701097Y-75851241D01*
X144693748Y-75856880D01*
X144528004Y-76009289D01*
X144521769Y-76016140D01*
X144385634Y-76195492D01*
X144380712Y-76203339D01*
X144278489Y-76403964D01*
X144275034Y-76412559D01*
X144209953Y-76628115D01*
X144208075Y-76637186D01*
X144182195Y-76860859D01*
X144181952Y-76870119D01*
X144196091Y-77094841D01*
X144197492Y-77103998D01*
X144251202Y-77322663D01*
X144254202Y-77331427D01*
X144345785Y-77537127D01*
X144350290Y-77545221D01*
X144476852Y-77731451D01*
X144482719Y-77738620D01*
X144640261Y-77899494D01*
X144647304Y-77905510D01*
X144830843Y-78035945D01*
X144838841Y-78040619D01*
X145042577Y-78136489D01*
X145051276Y-78139673D01*
X145268770Y-78197950D01*
X145277895Y-78199543D01*
X145502271Y-78218384D01*
X145511534Y-78218335D01*
X145534623Y-78216153D01*
X145457302Y-78267817D01*
X145442817Y-78282302D01*
X145385021Y-78368799D01*
X145377181Y-78387726D01*
X145357888Y-78484722D01*
X145356886Y-78494891D01*
X145356886Y-79255109D01*
X145357888Y-79265278D01*
X145377181Y-79362274D01*
X145385021Y-79381201D01*
X145442817Y-79467698D01*
X145457302Y-79482183D01*
X145543799Y-79539979D01*
X145562726Y-79547819D01*
X145659722Y-79567112D01*
X145669891Y-79568114D01*
X145834001Y-79568114D01*
X145834000Y-79859721D01*
X145834000Y-79868907D01*
X145829270Y-79886560D01*
X145827684Y-79904688D01*
X145834000Y-79976879D01*
X145834000Y-80049378D01*
X145837160Y-80067300D01*
X145843414Y-80084482D01*
X145845007Y-80102687D01*
X145849717Y-80120266D01*
X145857442Y-80136831D01*
X145860616Y-80154834D01*
X145866840Y-80171935D01*
X145889582Y-80211326D01*
X145905139Y-80254069D01*
X145914237Y-80269828D01*
X145925990Y-80283834D01*
X145933715Y-80300401D01*
X145944152Y-80315307D01*
X145957078Y-80328232D01*
X145966218Y-80344064D01*
X145977916Y-80358005D01*
X146012759Y-80387241D01*
X146041995Y-80422084D01*
X146055936Y-80433782D01*
X146071768Y-80442922D01*
X146084693Y-80455848D01*
X146099599Y-80466285D01*
X146116166Y-80474010D01*
X146130172Y-80485763D01*
X146145931Y-80494861D01*
X146188676Y-80510419D01*
X146228063Y-80533160D01*
X146245162Y-80539383D01*
X146263170Y-80542559D01*
X146279737Y-80550284D01*
X146297314Y-80554993D01*
X146315518Y-80556586D01*
X146332700Y-80562840D01*
X146350622Y-80566000D01*
X146396109Y-80566000D01*
X146409304Y-80568327D01*
X147274977Y-81434000D01*
X147043023Y-81434000D01*
X145711964Y-80102941D01*
X145691769Y-80072717D01*
X145677283Y-80058231D01*
X145540507Y-79966840D01*
X145521580Y-79959001D01*
X145405938Y-79935999D01*
X145405938Y-79935998D01*
X145360243Y-79926909D01*
X145339757Y-79926909D01*
X145304107Y-79934000D01*
X145120870Y-79934000D01*
X145115278Y-79932888D01*
X145105109Y-79931886D01*
X144866000Y-79931886D01*
X144866000Y-79568114D01*
X144980109Y-79568114D01*
X144990278Y-79567112D01*
X145087274Y-79547819D01*
X145106201Y-79539979D01*
X145192698Y-79482183D01*
X145207183Y-79467698D01*
X145264979Y-79381201D01*
X145272819Y-79362274D01*
X145292112Y-79265278D01*
X145293114Y-79255109D01*
X145293114Y-78494891D01*
X145292112Y-78484722D01*
X145272819Y-78387726D01*
X145264979Y-78368799D01*
X145207183Y-78282302D01*
X145192698Y-78267817D01*
X145106201Y-78210021D01*
X145087274Y-78202181D01*
X144990278Y-78182888D01*
X144980109Y-78181886D01*
X144169891Y-78181886D01*
X144159722Y-78182888D01*
X144062726Y-78202181D01*
X144043799Y-78210021D01*
X143957302Y-78267817D01*
X143952426Y-78272693D01*
X142668114Y-76988381D01*
X142668114Y-76819891D01*
X142667112Y-76809722D01*
X142647819Y-76712726D01*
X142639979Y-76693799D01*
X142582183Y-76607302D01*
X142567698Y-76592817D01*
X142481201Y-76535021D01*
X142462274Y-76527181D01*
X142365278Y-76507888D01*
X142355109Y-76506886D01*
X141644891Y-76506886D01*
X141634722Y-76507888D01*
X141537726Y-76527181D01*
X141518799Y-76535021D01*
X141432302Y-76592817D01*
X141417817Y-76607302D01*
X141360021Y-76693799D01*
X141352181Y-76712726D01*
X141332888Y-76809722D01*
X141331886Y-76819891D01*
X141331886Y-77280109D01*
X141332888Y-77290278D01*
X141352181Y-77387274D01*
X141360021Y-77406201D01*
X141417817Y-77492698D01*
X141432302Y-77507183D01*
X141518799Y-77564979D01*
X141537726Y-77572819D01*
X141634722Y-77592112D01*
X141644891Y-77593114D01*
X141813381Y-77593114D01*
X143424199Y-79203933D01*
X143447183Y-79238331D01*
X143461669Y-79252817D01*
X143504584Y-79281492D01*
X143614983Y-79355259D01*
X143633909Y-79363098D01*
X143814757Y-79399071D01*
X143835243Y-79399071D01*
X143875820Y-79391000D01*
X143891569Y-79391000D01*
X143934001Y-79454503D01*
X143934000Y-79931886D01*
X143694891Y-79931886D01*
X143684722Y-79932888D01*
X143587726Y-79952181D01*
X143568799Y-79960021D01*
X143482302Y-80017817D01*
X143467817Y-80032302D01*
X143410021Y-80118799D01*
X143402181Y-80137726D01*
X143382888Y-80234722D01*
X143381886Y-80244891D01*
X143381886Y-80501824D01*
X143328182Y-80507800D01*
X143311675Y-80507800D01*
X143300075Y-80509106D01*
X143284479Y-80512663D01*
X143229617Y-80518769D01*
X143218114Y-80522781D01*
X143218114Y-80044891D01*
X143217112Y-80034722D01*
X143197819Y-79937726D01*
X143189979Y-79918799D01*
X143132183Y-79832303D01*
X143117698Y-79817818D01*
X143116000Y-79816683D01*
X143116000Y-79700622D01*
X143112840Y-79682701D01*
X143044861Y-79495931D01*
X143035762Y-79480171D01*
X142908004Y-79327915D01*
X142894064Y-79316218D01*
X142721936Y-79216840D01*
X142704836Y-79210616D01*
X142509099Y-79176102D01*
X142490901Y-79176102D01*
X142295164Y-79210616D01*
X142278064Y-79216840D01*
X142105936Y-79316218D01*
X142091996Y-79327915D01*
X141964238Y-79480171D01*
X141955139Y-79495931D01*
X141887160Y-79682701D01*
X141884000Y-79700622D01*
X141884000Y-79746557D01*
X141815278Y-79732888D01*
X141805109Y-79731886D01*
X140994891Y-79731886D01*
X140984722Y-79732888D01*
X140887726Y-79752181D01*
X140868799Y-79760021D01*
X140782302Y-79817817D01*
X140767817Y-79832302D01*
X140710021Y-79918799D01*
X140702181Y-79937726D01*
X140682888Y-80034722D01*
X140681886Y-80044891D01*
X140681886Y-80955109D01*
X140682888Y-80965278D01*
X140685239Y-80977100D01*
X140619507Y-80988691D01*
X140547314Y-80995007D01*
X140529737Y-80999716D01*
X140513172Y-81007440D01*
X140495162Y-81010616D01*
X140478063Y-81016840D01*
X140415281Y-81053087D01*
X140349600Y-81083714D01*
X140334694Y-81094152D01*
X140321769Y-81107077D01*
X140305936Y-81116218D01*
X140291996Y-81127915D01*
X140245397Y-81183449D01*
X140194152Y-81234693D01*
X140183715Y-81249599D01*
X140175990Y-81266166D01*
X140164237Y-81280172D01*
X140155139Y-81295931D01*
X140130344Y-81364055D01*
X140099717Y-81429735D01*
X140095007Y-81447313D01*
X140093414Y-81465518D01*
X140087160Y-81482700D01*
X140084000Y-81500622D01*
X140084000Y-81573121D01*
X140077684Y-81645312D01*
X140079270Y-81663440D01*
X140084000Y-81681093D01*
X140084000Y-81699378D01*
X140087160Y-81717299D01*
X140111956Y-81785425D01*
X140130712Y-81855423D01*
X140138402Y-81871916D01*
X140148885Y-81886888D01*
X140155139Y-81904069D01*
X140164238Y-81919829D01*
X140199695Y-81962086D01*
X140105936Y-82016218D01*
X140091996Y-82027915D01*
X139964238Y-82180171D01*
X139955139Y-82195931D01*
X139887160Y-82382701D01*
X139884000Y-82400622D01*
X139884000Y-82599378D01*
X139887160Y-82617299D01*
X139955139Y-82804069D01*
X139964238Y-82819829D01*
X139978497Y-82836822D01*
X139971000Y-82842975D01*
X139970999Y-83468079D01*
X139971000Y-83468080D01*
X139970999Y-84400914D01*
X140031921Y-84461836D01*
X140080109Y-84461836D01*
X140090279Y-84460834D01*
X140261408Y-84426794D01*
X140280334Y-84418955D01*
X140429680Y-84319166D01*
X140444166Y-84304680D01*
X140468598Y-84268114D01*
X140684000Y-84268114D01*
X140684000Y-84299378D01*
X140687160Y-84317299D01*
X140755139Y-84504069D01*
X140764238Y-84519829D01*
X140788514Y-84548761D01*
X140697046Y-84530566D01*
X140621000Y-84592976D01*
X140620999Y-85471000D01*
X140429000Y-85470999D01*
X140429001Y-84599086D01*
X140368079Y-84538164D01*
X140319891Y-84538164D01*
X140309721Y-84539166D01*
X140138592Y-84573206D01*
X140119666Y-84581045D01*
X140090864Y-84600290D01*
X139945648Y-84455074D01*
X139940419Y-84444184D01*
X139925838Y-84425852D01*
X139878846Y-84388272D01*
X139866163Y-84375589D01*
X139857037Y-84368310D01*
X139842311Y-84359055D01*
X139795788Y-84321850D01*
X139779000Y-84313743D01*
X139779001Y-83781921D01*
X139779000Y-83781920D01*
X139779001Y-82849086D01*
X139718079Y-82788164D01*
X139669891Y-82788164D01*
X139659721Y-82789166D01*
X139615530Y-82797956D01*
X139612840Y-82782701D01*
X139607310Y-82767507D01*
X139664979Y-82681201D01*
X139672819Y-82662274D01*
X139692112Y-82565278D01*
X139693114Y-82555109D01*
X139693114Y-81744891D01*
X139692112Y-81734722D01*
X139672819Y-81637726D01*
X139664979Y-81618799D01*
X139607183Y-81532302D01*
X139592698Y-81517817D01*
X139587368Y-81514255D01*
X139729680Y-81419166D01*
X139744166Y-81404680D01*
X139843955Y-81255334D01*
X139851794Y-81236408D01*
X139885834Y-81065279D01*
X139886836Y-81055109D01*
X139886836Y-80806922D01*
X139825914Y-80746000D01*
X138800000Y-80746000D01*
X138291187Y-80745999D01*
X138289000Y-80744538D01*
X138289000Y-80721922D01*
X138228078Y-80661000D01*
X135954086Y-80661000D01*
X135934504Y-80680582D01*
X135909099Y-80676102D01*
X135890901Y-80676102D01*
X135695164Y-80710616D01*
X135678064Y-80716840D01*
X135505936Y-80816218D01*
X135491996Y-80827915D01*
X135364238Y-80980171D01*
X135355139Y-80995931D01*
X135333302Y-81055928D01*
X134567600Y-80290226D01*
X134567600Y-77337314D01*
X134604000Y-77300914D01*
X134604000Y-76556922D01*
X134796000Y-76556922D01*
X134796000Y-77300914D01*
X134856922Y-77361836D01*
X134955109Y-77361836D01*
X134965279Y-77360834D01*
X135136408Y-77326794D01*
X135155334Y-77318955D01*
X135304680Y-77219166D01*
X135319166Y-77204680D01*
X135418955Y-77055334D01*
X135426794Y-77036408D01*
X135460834Y-76865279D01*
X135461836Y-76855109D01*
X135461836Y-76556922D01*
X135400914Y-76496000D01*
X134856922Y-76496000D01*
X134796000Y-76556922D01*
X134604000Y-76556922D01*
X134604000Y-76304000D01*
X135400914Y-76304000D01*
X135461836Y-76243078D01*
X135461836Y-76017600D01*
X136177025Y-76017600D01*
X136581886Y-76422461D01*
X136581886Y-76855109D01*
X136582888Y-76865278D01*
X136602181Y-76962274D01*
X136610021Y-76981201D01*
X136667817Y-77067698D01*
X136682302Y-77082183D01*
X136768799Y-77139979D01*
X136787726Y-77147819D01*
X136884722Y-77167112D01*
X136894891Y-77168114D01*
X137282401Y-77168114D01*
X137282401Y-77421886D01*
X136399891Y-77421886D01*
X136389722Y-77422888D01*
X136292726Y-77442181D01*
X136273799Y-77450021D01*
X136187302Y-77507817D01*
X136172817Y-77522302D01*
X136115021Y-77608799D01*
X136107181Y-77627726D01*
X136087888Y-77724722D01*
X136086886Y-77734891D01*
X136086886Y-78195109D01*
X136087888Y-78205278D01*
X136104740Y-78290000D01*
X136087888Y-78374722D01*
X136086886Y-78384891D01*
X136086886Y-78845109D01*
X136087888Y-78855278D01*
X136104740Y-78940000D01*
X136087888Y-79024722D01*
X136086886Y-79034891D01*
X136086886Y-79495109D01*
X136087888Y-79505278D01*
X136104740Y-79590000D01*
X136087888Y-79674722D01*
X136086886Y-79684891D01*
X136086886Y-79946402D01*
X136050320Y-79970834D01*
X136035834Y-79985320D01*
X135936045Y-80134666D01*
X135928206Y-80153592D01*
X135894166Y-80324721D01*
X135893164Y-80334891D01*
X135893164Y-80408078D01*
X135954086Y-80469000D01*
X138191000Y-80469000D01*
X138191000Y-80493078D01*
X138251922Y-80554000D01*
X138843078Y-80554000D01*
X138904000Y-80493078D01*
X138904001Y-80157681D01*
X138935762Y-80119829D01*
X138944861Y-80104069D01*
X139012840Y-79917299D01*
X139016000Y-79899378D01*
X139016000Y-79799086D01*
X139096000Y-79799086D01*
X139096000Y-80493078D01*
X139156922Y-80554000D01*
X139825914Y-80554001D01*
X139886836Y-80493079D01*
X139886836Y-80244891D01*
X139885834Y-80234721D01*
X139851794Y-80063592D01*
X139843955Y-80044666D01*
X139744166Y-79895320D01*
X139729680Y-79880834D01*
X139580334Y-79781045D01*
X139561408Y-79773206D01*
X139390279Y-79739166D01*
X139380109Y-79738164D01*
X139156922Y-79738164D01*
X139096000Y-79799086D01*
X139016000Y-79799086D01*
X139016000Y-79700622D01*
X139012840Y-79682701D01*
X138944861Y-79495931D01*
X138935762Y-79480171D01*
X138918491Y-79459588D01*
X139035762Y-79319829D01*
X139044861Y-79304069D01*
X139112840Y-79117299D01*
X139116000Y-79099378D01*
X139116000Y-78900622D01*
X139112840Y-78882701D01*
X139044861Y-78695931D01*
X139035762Y-78680171D01*
X138908004Y-78527915D01*
X138894064Y-78516218D01*
X138721936Y-78416840D01*
X138704836Y-78410616D01*
X138666041Y-78403775D01*
X138666284Y-78402713D01*
X138667600Y-78391068D01*
X138667600Y-78373603D01*
X138674316Y-78314191D01*
X138671706Y-78290915D01*
X138667600Y-78279157D01*
X138667600Y-77856921D01*
X139138164Y-77856921D01*
X139138164Y-77930109D01*
X139139166Y-77940279D01*
X139173206Y-78111408D01*
X139181045Y-78130334D01*
X139280834Y-78279680D01*
X139295320Y-78294166D01*
X139444666Y-78393955D01*
X139463592Y-78401794D01*
X139634721Y-78435834D01*
X139644891Y-78436836D01*
X139843078Y-78436836D01*
X139904000Y-78375914D01*
X140095999Y-78375914D01*
X140156921Y-78436836D01*
X140355109Y-78436836D01*
X140365279Y-78435834D01*
X140536408Y-78401794D01*
X140555334Y-78393955D01*
X140704680Y-78294166D01*
X140719166Y-78279680D01*
X140818955Y-78130334D01*
X140826794Y-78111408D01*
X140860834Y-77940279D01*
X140861836Y-77930109D01*
X140861836Y-77856922D01*
X140800914Y-77796000D01*
X140156922Y-77795999D01*
X140096000Y-77856921D01*
X140095999Y-78375914D01*
X139904000Y-78375914D01*
X139904001Y-77856922D01*
X139843079Y-77796000D01*
X139199086Y-77795999D01*
X139138164Y-77856921D01*
X138667600Y-77856921D01*
X138667600Y-77471217D01*
X138668065Y-77469891D01*
X139138164Y-77469891D01*
X139138164Y-77543078D01*
X139199086Y-77604000D01*
X139843078Y-77604001D01*
X139904000Y-77543079D01*
X139904000Y-77543078D01*
X140095999Y-77543078D01*
X140156921Y-77604000D01*
X140800914Y-77604001D01*
X140861836Y-77543079D01*
X140861836Y-77469891D01*
X140860834Y-77459721D01*
X140826794Y-77288592D01*
X140818955Y-77269666D01*
X140719166Y-77120320D01*
X140704680Y-77105834D01*
X140555334Y-77006045D01*
X140536408Y-76998206D01*
X140365279Y-76964166D01*
X140355109Y-76963164D01*
X140156922Y-76963164D01*
X140096000Y-77024086D01*
X140095999Y-77543078D01*
X139904000Y-77543078D01*
X139904001Y-77024086D01*
X139843079Y-76963164D01*
X139644891Y-76963164D01*
X139634721Y-76964166D01*
X139463592Y-76998206D01*
X139444666Y-77006045D01*
X139295320Y-77105834D01*
X139280834Y-77120320D01*
X139181045Y-77269666D01*
X139173206Y-77288592D01*
X139139166Y-77459721D01*
X139138164Y-77469891D01*
X138668065Y-77469891D01*
X138671602Y-77459822D01*
X138674253Y-77436550D01*
X138667600Y-77376765D01*
X138667600Y-77358811D01*
X138666293Y-77347210D01*
X138662422Y-77330240D01*
X138655835Y-77271050D01*
X138648108Y-77248891D01*
X138641441Y-77238263D01*
X138638634Y-77225958D01*
X138628477Y-77204853D01*
X138599200Y-77168114D01*
X138905109Y-77168114D01*
X138915278Y-77167112D01*
X139012274Y-77147819D01*
X139031201Y-77139979D01*
X139117698Y-77082183D01*
X139132183Y-77067698D01*
X139189979Y-76981201D01*
X139197819Y-76962274D01*
X139217112Y-76865278D01*
X139218114Y-76855109D01*
X139218114Y-76817600D01*
X139401048Y-76817600D01*
X139417817Y-76842697D01*
X139432302Y-76857183D01*
X139518799Y-76914979D01*
X139537726Y-76922819D01*
X139634722Y-76942112D01*
X139644891Y-76943114D01*
X140355109Y-76943114D01*
X140365278Y-76942112D01*
X140462274Y-76922819D01*
X140481201Y-76914979D01*
X140567698Y-76857183D01*
X140582183Y-76842698D01*
X140639979Y-76756201D01*
X140647819Y-76737274D01*
X140667112Y-76640278D01*
X140668114Y-76630109D01*
X140668114Y-76169891D01*
X140667112Y-76159722D01*
X140647819Y-76062726D01*
X140639979Y-76043799D01*
X140582183Y-75957302D01*
X140567698Y-75942817D01*
X140481201Y-75885021D01*
X140462274Y-75877181D01*
X140365278Y-75857888D01*
X140355109Y-75856886D01*
X139644891Y-75856886D01*
X139634722Y-75857888D01*
X139537726Y-75877181D01*
X139518799Y-75885021D01*
X139432302Y-75942817D01*
X139417817Y-75957303D01*
X139401048Y-75982400D01*
X139218114Y-75982400D01*
X139218114Y-75944891D01*
X139217112Y-75934722D01*
X139197819Y-75837726D01*
X139189979Y-75818799D01*
X139132183Y-75732302D01*
X139117698Y-75717817D01*
X139031201Y-75660021D01*
X139012274Y-75652181D01*
X138915278Y-75632888D01*
X138905109Y-75631886D01*
X138517600Y-75631886D01*
X138517600Y-70539362D01*
X138674997Y-70560923D01*
X138687535Y-70561120D01*
X138870912Y-70541846D01*
X138883136Y-70539046D01*
X139056621Y-70476588D01*
X139067824Y-70470953D01*
X139221403Y-70368915D01*
X139230938Y-70360771D01*
X139355746Y-70225045D01*
X139363064Y-70214861D01*
X139451892Y-70053282D01*
X139456568Y-70041648D01*
X139504363Y-69863280D01*
X139506139Y-69850315D01*
X139508231Y-69650530D01*
X139506727Y-69637531D01*
X139462679Y-69458202D01*
X139458247Y-69446471D01*
X139440857Y-69413208D01*
X139548814Y-69341074D01*
X139563300Y-69326588D01*
X139663089Y-69177242D01*
X139670928Y-69158316D01*
X139704968Y-68987187D01*
X139705970Y-68977017D01*
X139705970Y-68628830D01*
X139645048Y-68567908D01*
X138851055Y-68567907D01*
X138851054Y-68567908D01*
X138598134Y-68567907D01*
X138598134Y-68314986D01*
X138790133Y-68314986D01*
X138851055Y-68375908D01*
X139645048Y-68375909D01*
X139705970Y-68314987D01*
X139705970Y-67966799D01*
X139704968Y-67956629D01*
X139670928Y-67785500D01*
X139663089Y-67766574D01*
X139563300Y-67617228D01*
X139548814Y-67602742D01*
X139399468Y-67502953D01*
X139380542Y-67495114D01*
X139209413Y-67461074D01*
X139199243Y-67460072D01*
X138851056Y-67460072D01*
X138790134Y-67520994D01*
X138790133Y-68314986D01*
X138598134Y-68314986D01*
X138598135Y-67520994D01*
X138537213Y-67460072D01*
X138189025Y-67460072D01*
X138178855Y-67461074D01*
X138007726Y-67495114D01*
X137988800Y-67502953D01*
X137839454Y-67602742D01*
X137824968Y-67617228D01*
X137752329Y-67725941D01*
X137629788Y-67678903D01*
X137617626Y-67675848D01*
X137434693Y-67652738D01*
X137422154Y-67652673D01*
X137238989Y-67673865D01*
X137226796Y-67676792D01*
X137053973Y-67741065D01*
X137042830Y-67746816D01*
X136890328Y-67850457D01*
X136880878Y-67858700D01*
X136788848Y-67960910D01*
X136703781Y-67864422D01*
X136694419Y-67856081D01*
X136543010Y-67750848D01*
X136531928Y-67744980D01*
X136359788Y-67678903D01*
X136347626Y-67675848D01*
X136164693Y-67652738D01*
X136152154Y-67652673D01*
X135968989Y-67673865D01*
X135956796Y-67676792D01*
X135783973Y-67741065D01*
X135772830Y-67746816D01*
X135620328Y-67850457D01*
X135610878Y-67858700D01*
X135518848Y-67960910D01*
X135433781Y-67864422D01*
X135424419Y-67856081D01*
X135273010Y-67750848D01*
X135261928Y-67744980D01*
X135089788Y-67678903D01*
X135077626Y-67675848D01*
X134894693Y-67652738D01*
X134882154Y-67652673D01*
X134698989Y-67673865D01*
X134686796Y-67676792D01*
X134513973Y-67741065D01*
X134502830Y-67746816D01*
X134350328Y-67850457D01*
X134340878Y-67858700D01*
X134248848Y-67960910D01*
X134163781Y-67864422D01*
X134154419Y-67856081D01*
X134003010Y-67750848D01*
X133991928Y-67744980D01*
X133819788Y-67678903D01*
X133807626Y-67675848D01*
X133624693Y-67652738D01*
X133612154Y-67652673D01*
X133428989Y-67673865D01*
X133416796Y-67676792D01*
X133243973Y-67741065D01*
X133232830Y-67746816D01*
X133080328Y-67850457D01*
X133070878Y-67858700D01*
X132947500Y-67995726D01*
X132940289Y-68005985D01*
X132853157Y-68168486D01*
X132848602Y-68180170D01*
X132802747Y-68358763D01*
X132801110Y-68371195D01*
X132799179Y-68555572D01*
X132800555Y-68568037D01*
X132842661Y-68747551D01*
X132846970Y-68759327D01*
X132930680Y-68923616D01*
X132937673Y-68934024D01*
X133058155Y-69073605D01*
X133067430Y-69082044D01*
X133101365Y-69106160D01*
X133080328Y-69120457D01*
X133070878Y-69128700D01*
X132947500Y-69265726D01*
X132940289Y-69275985D01*
X132853157Y-69438486D01*
X132848602Y-69450170D01*
X132802747Y-69628763D01*
X132801110Y-69641195D01*
X132799179Y-69825572D01*
X132800555Y-69838037D01*
X132824660Y-69940807D01*
X132683068Y-70082400D01*
X132305769Y-70082400D01*
X132339979Y-70031201D01*
X132347819Y-70012274D01*
X132367112Y-69915278D01*
X132368114Y-69905109D01*
X132368114Y-69394891D01*
X132367112Y-69384722D01*
X132347819Y-69287726D01*
X132339979Y-69268799D01*
X132282183Y-69182302D01*
X132267698Y-69167817D01*
X132181201Y-69110021D01*
X132162274Y-69102181D01*
X132121380Y-69094047D01*
X132131201Y-69089979D01*
X132217698Y-69032183D01*
X132232183Y-69017698D01*
X132289979Y-68931201D01*
X132297819Y-68912274D01*
X132317112Y-68815278D01*
X132318114Y-68805109D01*
X132318114Y-67994891D01*
X132317112Y-67984722D01*
X132297819Y-67887726D01*
X132289979Y-67868799D01*
X132232183Y-67782302D01*
X132217698Y-67767817D01*
X132131201Y-67710021D01*
X132112274Y-67702181D01*
X132085526Y-67696861D01*
X132186408Y-67676794D01*
X132205334Y-67668955D01*
X132354680Y-67569166D01*
X132369166Y-67554680D01*
X132468955Y-67405334D01*
X132476794Y-67386408D01*
X132510834Y-67215279D01*
X132511836Y-67205109D01*
X132511836Y-66956922D01*
X132450914Y-66896000D01*
X131756921Y-66895999D01*
X131756920Y-66896000D01*
X130749086Y-66895999D01*
X130688164Y-66956921D01*
X130688164Y-67205109D01*
X130689166Y-67215279D01*
X130723206Y-67386408D01*
X130731045Y-67405334D01*
X130830834Y-67554680D01*
X130845320Y-67569166D01*
X130994666Y-67668955D01*
X131013592Y-67676794D01*
X131114474Y-67696861D01*
X131087726Y-67702181D01*
X131068799Y-67710021D01*
X130982302Y-67767817D01*
X130967817Y-67782302D01*
X130910021Y-67868799D01*
X130902181Y-67887726D01*
X130882888Y-67984722D01*
X130881886Y-67994891D01*
X130881886Y-68805109D01*
X130882888Y-68815278D01*
X130902181Y-68912274D01*
X130910021Y-68931201D01*
X130967817Y-69017698D01*
X130982302Y-69032183D01*
X131068799Y-69089979D01*
X131078620Y-69094047D01*
X131037726Y-69102181D01*
X131018799Y-69110021D01*
X130932302Y-69167817D01*
X130917817Y-69182302D01*
X130860021Y-69268799D01*
X130852181Y-69287726D01*
X130832888Y-69384722D01*
X130831886Y-69394891D01*
X130831886Y-69905109D01*
X130832888Y-69915278D01*
X130852181Y-70012274D01*
X130860021Y-70031201D01*
X130899944Y-70090950D01*
X130871051Y-70094165D01*
X130848893Y-70101892D01*
X130838265Y-70108558D01*
X130825957Y-70111366D01*
X130804853Y-70121523D01*
X130757715Y-70159086D01*
X130742919Y-70168367D01*
X130733752Y-70175672D01*
X130721404Y-70188020D01*
X130674642Y-70225284D01*
X130660029Y-70243588D01*
X130654618Y-70254806D01*
X130455074Y-70454352D01*
X130444184Y-70459581D01*
X130425852Y-70474163D01*
X130388274Y-70521152D01*
X130375589Y-70533837D01*
X130368310Y-70542963D01*
X130359050Y-70557696D01*
X130321849Y-70604214D01*
X130311644Y-70625349D01*
X130308844Y-70637574D01*
X130302129Y-70648257D01*
X130294387Y-70670365D01*
X130287615Y-70730266D01*
X130283716Y-70747287D01*
X130282400Y-70758932D01*
X130282400Y-70776396D01*
X130275684Y-70835809D01*
X130278294Y-70859085D01*
X130282400Y-70870843D01*
X130282401Y-71528780D01*
X130278399Y-71540177D01*
X130275747Y-71563450D01*
X130282401Y-71623243D01*
X130282401Y-71641188D01*
X130283707Y-71652790D01*
X130287577Y-71669753D01*
X130294165Y-71728949D01*
X130301893Y-71751109D01*
X130308559Y-71761737D01*
X130311366Y-71774040D01*
X130321524Y-71795146D01*
X130359085Y-71842283D01*
X130368368Y-71857081D01*
X130375672Y-71866247D01*
X130388021Y-71878596D01*
X130425285Y-71925358D01*
X130443589Y-71939971D01*
X130454807Y-71945382D01*
X130554351Y-72044926D01*
X130559580Y-72055816D01*
X130574162Y-72074148D01*
X130621149Y-72111724D01*
X130633836Y-72124411D01*
X130642963Y-72131691D01*
X130657695Y-72140950D01*
X130704213Y-72178151D01*
X130725348Y-72188356D01*
X130737573Y-72191156D01*
X130748256Y-72197871D01*
X130770364Y-72205613D01*
X130830265Y-72212385D01*
X130847286Y-72216284D01*
X130858931Y-72217600D01*
X130876396Y-72217600D01*
X130935809Y-72224316D01*
X130959085Y-72221706D01*
X130970843Y-72217600D01*
X132227025Y-72217600D01*
X132382400Y-72372975D01*
X132382401Y-73158407D01*
X132382400Y-73158415D01*
X132382400Y-73319024D01*
X132371588Y-73329836D01*
X132364309Y-73338962D01*
X132355050Y-73353693D01*
X132354180Y-73354781D01*
X132344184Y-73359581D01*
X132325852Y-73374163D01*
X132288274Y-73421152D01*
X132275589Y-73433837D01*
X132268310Y-73442963D01*
X132259050Y-73457696D01*
X132221849Y-73504214D01*
X132211644Y-73525349D01*
X132208844Y-73537574D01*
X132202129Y-73548257D01*
X132194387Y-73570365D01*
X132187615Y-73630266D01*
X132183716Y-73647287D01*
X132182400Y-73658932D01*
X132182400Y-73676397D01*
X132175684Y-73735809D01*
X132178294Y-73759085D01*
X132182400Y-73770843D01*
X132182400Y-75096000D01*
X129968114Y-75096000D01*
X129968114Y-74844891D01*
X129967112Y-74834722D01*
X129947819Y-74737726D01*
X129939979Y-74718799D01*
X129882183Y-74632302D01*
X129867698Y-74617817D01*
X129781201Y-74560021D01*
X129762274Y-74552181D01*
X129665278Y-74532888D01*
X129655109Y-74531886D01*
X128744891Y-74531886D01*
X128734722Y-74532888D01*
X128637726Y-74552181D01*
X128618799Y-74560021D01*
X128532302Y-74617817D01*
X128517817Y-74632302D01*
X128460021Y-74718799D01*
X128452181Y-74737726D01*
X128432888Y-74834722D01*
X128431886Y-74844891D01*
X128431886Y-74877538D01*
X128368114Y-74941310D01*
X128368114Y-74844891D01*
X128367112Y-74834722D01*
X128347819Y-74737726D01*
X128339979Y-74718799D01*
X128282183Y-74632302D01*
X128267698Y-74617817D01*
X128181201Y-74560021D01*
X128162274Y-74552181D01*
X128065278Y-74532888D01*
X128055109Y-74531886D01*
X127144891Y-74531886D01*
X127134722Y-74532888D01*
X127037726Y-74552181D01*
X127018799Y-74560021D01*
X126932302Y-74617817D01*
X126917817Y-74632302D01*
X126860021Y-74718799D01*
X126852181Y-74737726D01*
X126832888Y-74834722D01*
X126831886Y-74844891D01*
X126831886Y-75096000D01*
X126693114Y-75096000D01*
X126693114Y-74544891D01*
X126692112Y-74534722D01*
X126672819Y-74437726D01*
X126664979Y-74418799D01*
X126607183Y-74332302D01*
X126592698Y-74317817D01*
X126506201Y-74260021D01*
X126487274Y-74252181D01*
X126390278Y-74232888D01*
X126380109Y-74231886D01*
X125619891Y-74231886D01*
X125609722Y-74232888D01*
X125512726Y-74252181D01*
X125493799Y-74260021D01*
X125407302Y-74317817D01*
X125392817Y-74332302D01*
X125359180Y-74382642D01*
X125309113Y-74378262D01*
X125290984Y-74379848D01*
X125227385Y-74396890D01*
X125204887Y-74400856D01*
X125235834Y-74245279D01*
X125236836Y-74235109D01*
X125236836Y-73996732D01*
X125359897Y-74018431D01*
X125392817Y-74067698D01*
X125407302Y-74082183D01*
X125493799Y-74139979D01*
X125512726Y-74147819D01*
X125609722Y-74167112D01*
X125619891Y-74168114D01*
X126380109Y-74168114D01*
X126390278Y-74167112D01*
X126487274Y-74147819D01*
X126506201Y-74139979D01*
X126592698Y-74082183D01*
X126607183Y-74067698D01*
X126662856Y-73984378D01*
X126673206Y-74036408D01*
X126681045Y-74055334D01*
X126780834Y-74204680D01*
X126795320Y-74219166D01*
X126944666Y-74318955D01*
X126963592Y-74326794D01*
X127134721Y-74360834D01*
X127144891Y-74361836D01*
X127443078Y-74361836D01*
X127504000Y-74300914D01*
X127695999Y-74300914D01*
X127756921Y-74361836D01*
X128055109Y-74361836D01*
X128065279Y-74360834D01*
X128236408Y-74326794D01*
X128255334Y-74318955D01*
X128404680Y-74219166D01*
X128419166Y-74204680D01*
X128514255Y-74062368D01*
X128517817Y-74067698D01*
X128532302Y-74082183D01*
X128618799Y-74139979D01*
X128637726Y-74147819D01*
X128734722Y-74167112D01*
X128744891Y-74168114D01*
X129655109Y-74168114D01*
X129665278Y-74167112D01*
X129762274Y-74147819D01*
X129781201Y-74139979D01*
X129867698Y-74082183D01*
X129882183Y-74067698D01*
X129939979Y-73981201D01*
X129947819Y-73962274D01*
X129967112Y-73865278D01*
X129968114Y-73855109D01*
X129968114Y-73344891D01*
X129967112Y-73334722D01*
X129947819Y-73237726D01*
X129939979Y-73218799D01*
X129882183Y-73132302D01*
X129867698Y-73117817D01*
X129781201Y-73060021D01*
X129762274Y-73052181D01*
X129665278Y-73032888D01*
X129655109Y-73031886D01*
X129616000Y-73031886D01*
X129616000Y-73000622D01*
X129612840Y-72982701D01*
X129544861Y-72795931D01*
X129535762Y-72780171D01*
X129408004Y-72627915D01*
X129394064Y-72616218D01*
X129221936Y-72516840D01*
X129204836Y-72510616D01*
X129009099Y-72476102D01*
X128990901Y-72476102D01*
X128795164Y-72510616D01*
X128778064Y-72516840D01*
X128605936Y-72616218D01*
X128591996Y-72627915D01*
X128464238Y-72780171D01*
X128455139Y-72795931D01*
X128391134Y-72971783D01*
X128255334Y-72881045D01*
X128236408Y-72873206D01*
X128065279Y-72839166D01*
X128055109Y-72838164D01*
X127756922Y-72838164D01*
X127696000Y-72899086D01*
X127696000Y-73400000D01*
X127695999Y-74300914D01*
X127504000Y-74300914D01*
X127504000Y-73400000D01*
X127504001Y-72899086D01*
X127443079Y-72838164D01*
X127144891Y-72838164D01*
X127134721Y-72839166D01*
X126963592Y-72873206D01*
X126944666Y-72881045D01*
X126795320Y-72980834D01*
X126780834Y-72995320D01*
X126693114Y-73126603D01*
X126693114Y-73044891D01*
X126692112Y-73034722D01*
X126672819Y-72937726D01*
X126664979Y-72918799D01*
X126616000Y-72845498D01*
X126616000Y-72700622D01*
X126612840Y-72682701D01*
X126544861Y-72495931D01*
X126535762Y-72480171D01*
X126408004Y-72327915D01*
X126394064Y-72316218D01*
X126221936Y-72216840D01*
X126204836Y-72210616D01*
X126009099Y-72176102D01*
X125990901Y-72176102D01*
X125795164Y-72210616D01*
X125778064Y-72216840D01*
X125605936Y-72316218D01*
X125591996Y-72327915D01*
X125511836Y-72423446D01*
X125511836Y-72256922D01*
X125450914Y-72196000D01*
X124504000Y-72196000D01*
X124504000Y-71274086D01*
X124696000Y-71274086D01*
X124696000Y-71943078D01*
X124756922Y-72004000D01*
X125450914Y-72004000D01*
X125511836Y-71943078D01*
X125511836Y-71719891D01*
X125510834Y-71709721D01*
X125476794Y-71538592D01*
X125468955Y-71519666D01*
X125369166Y-71370320D01*
X125354680Y-71355834D01*
X125205334Y-71256045D01*
X125186408Y-71248206D01*
X125015279Y-71214166D01*
X125005109Y-71213164D01*
X124756922Y-71213164D01*
X124696000Y-71274086D01*
X124504000Y-71274086D01*
X124443078Y-71213164D01*
X124194891Y-71213164D01*
X124184721Y-71214166D01*
X124013592Y-71248206D01*
X123994666Y-71256045D01*
X123845320Y-71355834D01*
X123830834Y-71370320D01*
X123735744Y-71512633D01*
X123732183Y-71507303D01*
X123717698Y-71492818D01*
X123716000Y-71491683D01*
X123716000Y-71400622D01*
X123712840Y-71382701D01*
X123644861Y-71195931D01*
X123635762Y-71180171D01*
X123508004Y-71027915D01*
X123494064Y-71016218D01*
X123321936Y-70916840D01*
X123304836Y-70910616D01*
X123109099Y-70876102D01*
X123090901Y-70876102D01*
X122895164Y-70910616D01*
X122878064Y-70916840D01*
X122705936Y-71016218D01*
X122691996Y-71027915D01*
X122564238Y-71180171D01*
X122555139Y-71195931D01*
X122487160Y-71382701D01*
X122484000Y-71400622D01*
X122484000Y-71477319D01*
X122295164Y-71510616D01*
X122278064Y-71516840D01*
X122105936Y-71616218D01*
X122091996Y-71627915D01*
X121964238Y-71780171D01*
X121955139Y-71795931D01*
X121887160Y-71982701D01*
X121884000Y-72000622D01*
X121884000Y-72199378D01*
X121887160Y-72217299D01*
X121955139Y-72404069D01*
X121964238Y-72419829D01*
X122091996Y-72572085D01*
X122105936Y-72583782D01*
X122234770Y-72658164D01*
X122169891Y-72658164D01*
X122159721Y-72659166D01*
X121988592Y-72693206D01*
X121969666Y-72701045D01*
X121820320Y-72800834D01*
X121805834Y-72815320D01*
X121706045Y-72964666D01*
X121698206Y-72983592D01*
X121664166Y-73154721D01*
X121663164Y-73164891D01*
X121663164Y-73543078D01*
X121724086Y-73604000D01*
X122343079Y-73604001D01*
X122343080Y-73604000D01*
X122596000Y-73604001D01*
X122595999Y-74680914D01*
X122656921Y-74741836D01*
X122830109Y-74741836D01*
X122840279Y-74740834D01*
X123011408Y-74706794D01*
X123030334Y-74698955D01*
X123179680Y-74599166D01*
X123194166Y-74584680D01*
X123218598Y-74548114D01*
X123681402Y-74548114D01*
X123705834Y-74584680D01*
X123720320Y-74599166D01*
X123869666Y-74698955D01*
X123888592Y-74706794D01*
X124059721Y-74740834D01*
X124069891Y-74741836D01*
X124243078Y-74741836D01*
X124304000Y-74680914D01*
X124304001Y-73856921D01*
X124304000Y-73856920D01*
X124304001Y-72834000D01*
X124496000Y-72834000D01*
X124495999Y-73543079D01*
X124496000Y-73543080D01*
X124495999Y-74680914D01*
X124556921Y-74741836D01*
X124730109Y-74741836D01*
X124740279Y-74740834D01*
X124763302Y-74736254D01*
X124447671Y-75051886D01*
X124069891Y-75051886D01*
X124059722Y-75052888D01*
X123962726Y-75072181D01*
X123943798Y-75080021D01*
X123919885Y-75096000D01*
X122980115Y-75096000D01*
X122956202Y-75080021D01*
X122937274Y-75072181D01*
X122840278Y-75052888D01*
X122830109Y-75051886D01*
X122169891Y-75051886D01*
X122159722Y-75052888D01*
X122062726Y-75072181D01*
X122043798Y-75080021D01*
X122019885Y-75096000D01*
X121156922Y-75096000D01*
X121096000Y-75156922D01*
X121096000Y-77101128D01*
X120980514Y-77084075D01*
X120971267Y-77083542D01*
X120746212Y-77090614D01*
X120737016Y-77091727D01*
X120516771Y-77138542D01*
X120507917Y-77141265D01*
X120299442Y-77226343D01*
X120291211Y-77230591D01*
X120101097Y-77351241D01*
X120093748Y-77356880D01*
X119928004Y-77509289D01*
X119921769Y-77516140D01*
X119785634Y-77695492D01*
X119780712Y-77703339D01*
X119678489Y-77903964D01*
X119675034Y-77912559D01*
X119609953Y-78128115D01*
X119608075Y-78137186D01*
X119582195Y-78360859D01*
X119581952Y-78370119D01*
X119596091Y-78594841D01*
X119597492Y-78603998D01*
X119651202Y-78822663D01*
X119654202Y-78831427D01*
X119745785Y-79037127D01*
X119750290Y-79045221D01*
X119876852Y-79231451D01*
X119882719Y-79238620D01*
X120040261Y-79399494D01*
X120047304Y-79405510D01*
X120230843Y-79535945D01*
X120238841Y-79540619D01*
X120339880Y-79588164D01*
X120144891Y-79588164D01*
X120134721Y-79589166D01*
X119963592Y-79623206D01*
X119944666Y-79631045D01*
X119795320Y-79730834D01*
X119780834Y-79745320D01*
X119681045Y-79894666D01*
X119673206Y-79913592D01*
X119639166Y-80084721D01*
X119638164Y-80094891D01*
X119638164Y-80443078D01*
X119699086Y-80504000D01*
X120746000Y-80504000D01*
X120746000Y-81550914D01*
X120806922Y-81611836D01*
X121096000Y-81611836D01*
X121096000Y-81688164D01*
X120806922Y-81688164D01*
X120746000Y-81749086D01*
X120746000Y-83650914D01*
X120806922Y-83711836D01*
X121096000Y-83711836D01*
X121096000Y-83788164D01*
X120806922Y-83788164D01*
X120746000Y-83849086D01*
X120746000Y-85750914D01*
X120806922Y-85811836D01*
X120849132Y-85811836D01*
X120785634Y-85895492D01*
X120780712Y-85903339D01*
X120678489Y-86103964D01*
X120675034Y-86112559D01*
X120609953Y-86328115D01*
X120608075Y-86337186D01*
X120582195Y-86560859D01*
X120581952Y-86570119D01*
X120596091Y-86794841D01*
X120597492Y-86803998D01*
X120651202Y-87022663D01*
X120654202Y-87031427D01*
X120745785Y-87237127D01*
X120750290Y-87245221D01*
X120876852Y-87431451D01*
X120882719Y-87438620D01*
X121040261Y-87599494D01*
X121047304Y-87605510D01*
X121230843Y-87735945D01*
X121238841Y-87740619D01*
X121442577Y-87836489D01*
X121451276Y-87839673D01*
X121668770Y-87897950D01*
X121677895Y-87899543D01*
X121902271Y-87918384D01*
X121911534Y-87918335D01*
X122135701Y-87897146D01*
X122144809Y-87895457D01*
X122361681Y-87834906D01*
X122370346Y-87831632D01*
X122573067Y-87733632D01*
X122581016Y-87728875D01*
X122763179Y-87596526D01*
X122770159Y-87590437D01*
X122926007Y-87427921D01*
X122931799Y-87420691D01*
X123056403Y-87233146D01*
X123060823Y-87225005D01*
X123150247Y-87018359D01*
X123153156Y-87009564D01*
X123204729Y-86789682D01*
X123206088Y-86779141D01*
X123213673Y-86489459D01*
X123212867Y-86478862D01*
X123172873Y-86256583D01*
X123170429Y-86247648D01*
X123091943Y-86036604D01*
X123087955Y-86028243D01*
X122973335Y-85834433D01*
X122967930Y-85826910D01*
X122820802Y-85656461D01*
X122814150Y-85650015D01*
X122774756Y-85618114D01*
X123096960Y-85618114D01*
X123447455Y-85968610D01*
X123378489Y-86103964D01*
X123375034Y-86112559D01*
X123309953Y-86328115D01*
X123308075Y-86337186D01*
X123282195Y-86560859D01*
X123281952Y-86570119D01*
X123296091Y-86794841D01*
X123297492Y-86803998D01*
X123351202Y-87022663D01*
X123354202Y-87031427D01*
X123445785Y-87237127D01*
X123450290Y-87245221D01*
X123576852Y-87431451D01*
X123582719Y-87438620D01*
X123740261Y-87599494D01*
X123747304Y-87605510D01*
X123930843Y-87735945D01*
X123938841Y-87740619D01*
X124142577Y-87836489D01*
X124151276Y-87839673D01*
X124368770Y-87897950D01*
X124377895Y-87899543D01*
X124602271Y-87918384D01*
X124611534Y-87918335D01*
X124835701Y-87897146D01*
X124844809Y-87895457D01*
X125061681Y-87834906D01*
X125070346Y-87831632D01*
X125273067Y-87733632D01*
X125281016Y-87728875D01*
X125463179Y-87596526D01*
X125470159Y-87590437D01*
X125626007Y-87427921D01*
X125631799Y-87420691D01*
X125756403Y-87233146D01*
X125760823Y-87225005D01*
X125850247Y-87018359D01*
X125853156Y-87009564D01*
X125904729Y-86789682D01*
X125906088Y-86779141D01*
X125911561Y-86570119D01*
X125981952Y-86570119D01*
X125996091Y-86794841D01*
X125997492Y-86803998D01*
X126051202Y-87022663D01*
X126054202Y-87031427D01*
X126145785Y-87237127D01*
X126150290Y-87245221D01*
X126276852Y-87431451D01*
X126282719Y-87438620D01*
X126440261Y-87599494D01*
X126447304Y-87605510D01*
X126630843Y-87735945D01*
X126638841Y-87740619D01*
X126842577Y-87836489D01*
X126851276Y-87839673D01*
X127068770Y-87897950D01*
X127077895Y-87899543D01*
X127302271Y-87918384D01*
X127311534Y-87918335D01*
X127535701Y-87897146D01*
X127544809Y-87895457D01*
X127761681Y-87834906D01*
X127770346Y-87831632D01*
X127973067Y-87733632D01*
X127981016Y-87728875D01*
X128163179Y-87596526D01*
X128170159Y-87590437D01*
X128326007Y-87427921D01*
X128331799Y-87420691D01*
X128456403Y-87233146D01*
X128460823Y-87225005D01*
X128550247Y-87018359D01*
X128553156Y-87009564D01*
X128604729Y-86789682D01*
X128606088Y-86779141D01*
X128613673Y-86489459D01*
X128612867Y-86478862D01*
X128572873Y-86256583D01*
X128570429Y-86247648D01*
X128491943Y-86036604D01*
X128487955Y-86028243D01*
X128373335Y-85834433D01*
X128367930Y-85826910D01*
X128220802Y-85656461D01*
X128214150Y-85650015D01*
X128039163Y-85508313D01*
X128031474Y-85503147D01*
X127834161Y-85394672D01*
X127825679Y-85390948D01*
X127612273Y-85319130D01*
X127603265Y-85316967D01*
X127380514Y-85284075D01*
X127371267Y-85283542D01*
X127146212Y-85290614D01*
X127137016Y-85291727D01*
X126916771Y-85338542D01*
X126907917Y-85341265D01*
X126699442Y-85426343D01*
X126691211Y-85430591D01*
X126501097Y-85551241D01*
X126493748Y-85556880D01*
X126328004Y-85709289D01*
X126321769Y-85716140D01*
X126185634Y-85895492D01*
X126180712Y-85903339D01*
X126078489Y-86103964D01*
X126075034Y-86112559D01*
X126009953Y-86328115D01*
X126008075Y-86337186D01*
X125982195Y-86560859D01*
X125981952Y-86570119D01*
X125911561Y-86570119D01*
X125913673Y-86489459D01*
X125912867Y-86478862D01*
X125872873Y-86256583D01*
X125870429Y-86247648D01*
X125791943Y-86036604D01*
X125787955Y-86028243D01*
X125673335Y-85834433D01*
X125667930Y-85826910D01*
X125624742Y-85776876D01*
X125677283Y-85741769D01*
X125691769Y-85727283D01*
X125711964Y-85697059D01*
X126240909Y-85168114D01*
X126605109Y-85168114D01*
X126615278Y-85167112D01*
X126712274Y-85147819D01*
X126731201Y-85139979D01*
X126817698Y-85082183D01*
X126832183Y-85067698D01*
X126889979Y-84981201D01*
X126897819Y-84962274D01*
X126909410Y-84904000D01*
X128634001Y-84904000D01*
X128634001Y-85554102D01*
X128626909Y-85589757D01*
X128626909Y-85610244D01*
X128648799Y-85720289D01*
X128659002Y-85771580D01*
X128666841Y-85790507D01*
X128758232Y-85927283D01*
X128772718Y-85941769D01*
X128802939Y-85961962D01*
X130356886Y-87515910D01*
X130356886Y-87755109D01*
X130357888Y-87765278D01*
X130377181Y-87862274D01*
X130385021Y-87881201D01*
X130442817Y-87967698D01*
X130457302Y-87982183D01*
X130543799Y-88039979D01*
X130562726Y-88047819D01*
X130659722Y-88067112D01*
X130669891Y-88068114D01*
X131130109Y-88068114D01*
X131140278Y-88067112D01*
X131237274Y-88047819D01*
X131256201Y-88039979D01*
X131342698Y-87982183D01*
X131357183Y-87967698D01*
X131414979Y-87881201D01*
X131422819Y-87862274D01*
X131442112Y-87765278D01*
X131443114Y-87755109D01*
X131443114Y-87044891D01*
X131442112Y-87034722D01*
X131422819Y-86937726D01*
X131414979Y-86918799D01*
X131357183Y-86832302D01*
X131342698Y-86817817D01*
X131256201Y-86760021D01*
X131237274Y-86752181D01*
X131140278Y-86732888D01*
X131130109Y-86731886D01*
X130890910Y-86731886D01*
X130653915Y-86494891D01*
X132431886Y-86494891D01*
X132431886Y-87005109D01*
X132432888Y-87015278D01*
X132452181Y-87112274D01*
X132460021Y-87131201D01*
X132517817Y-87217698D01*
X132532302Y-87232183D01*
X132618799Y-87289979D01*
X132637726Y-87297819D01*
X132734722Y-87317112D01*
X132744891Y-87318114D01*
X133655109Y-87318114D01*
X133665278Y-87317112D01*
X133762274Y-87297819D01*
X133781201Y-87289979D01*
X133867697Y-87232183D01*
X133882182Y-87217698D01*
X133883317Y-87216000D01*
X134656977Y-87216000D01*
X134956886Y-87515909D01*
X134956886Y-87755109D01*
X134957888Y-87765278D01*
X134977181Y-87862274D01*
X134985021Y-87881201D01*
X135042817Y-87967698D01*
X135057302Y-87982183D01*
X135143799Y-88039979D01*
X135162726Y-88047819D01*
X135259722Y-88067112D01*
X135269891Y-88068114D01*
X135730109Y-88068114D01*
X135740278Y-88067112D01*
X135837274Y-88047819D01*
X135856201Y-88039979D01*
X135942698Y-87982183D01*
X135957183Y-87967698D01*
X136014979Y-87881201D01*
X136022819Y-87862274D01*
X136042112Y-87765278D01*
X136043114Y-87755109D01*
X136043114Y-87044891D01*
X136042112Y-87034722D01*
X136022819Y-86937726D01*
X136014979Y-86918799D01*
X135957183Y-86832302D01*
X135942698Y-86817817D01*
X135856201Y-86760021D01*
X135848718Y-86756921D01*
X138588164Y-86756921D01*
X138588164Y-86980109D01*
X138589166Y-86990279D01*
X138623206Y-87161408D01*
X138631045Y-87180334D01*
X138730834Y-87329680D01*
X138745320Y-87344166D01*
X138894666Y-87443955D01*
X138913592Y-87451794D01*
X139084721Y-87485834D01*
X139094891Y-87486836D01*
X139343078Y-87486836D01*
X139404000Y-87425914D01*
X139404001Y-86756922D01*
X139343079Y-86696000D01*
X138649086Y-86695999D01*
X138588164Y-86756921D01*
X135848718Y-86756921D01*
X135837274Y-86752181D01*
X135740278Y-86732888D01*
X135730109Y-86731886D01*
X135490909Y-86731886D01*
X135211964Y-86452941D01*
X135191769Y-86422717D01*
X135177283Y-86408231D01*
X135040507Y-86316840D01*
X135021580Y-86309001D01*
X134905938Y-86285999D01*
X134905938Y-86285998D01*
X134860243Y-86276909D01*
X134839757Y-86276909D01*
X134804107Y-86284000D01*
X133883317Y-86284000D01*
X133882182Y-86282302D01*
X133867697Y-86267817D01*
X133781201Y-86210021D01*
X133762274Y-86202181D01*
X133665278Y-86182888D01*
X133655109Y-86181886D01*
X132744891Y-86181886D01*
X132734722Y-86182888D01*
X132637726Y-86202181D01*
X132618799Y-86210021D01*
X132532302Y-86267817D01*
X132517817Y-86282302D01*
X132460021Y-86368799D01*
X132452181Y-86387726D01*
X132432888Y-86484722D01*
X132431886Y-86494891D01*
X130653915Y-86494891D01*
X130227138Y-86068114D01*
X130480109Y-86068114D01*
X130490278Y-86067112D01*
X130587274Y-86047819D01*
X130606201Y-86039979D01*
X130692698Y-85982183D01*
X130707183Y-85967698D01*
X130764979Y-85881201D01*
X130772819Y-85862274D01*
X130792112Y-85765278D01*
X130793114Y-85755109D01*
X130793114Y-85261508D01*
X130796842Y-85270508D01*
X130851586Y-85352439D01*
X130888232Y-85407283D01*
X130902718Y-85421769D01*
X130932939Y-85441962D01*
X131006886Y-85515909D01*
X131006886Y-85755109D01*
X131007888Y-85765278D01*
X131027181Y-85862274D01*
X131035021Y-85881201D01*
X131092817Y-85967698D01*
X131107302Y-85982183D01*
X131193799Y-86039979D01*
X131212726Y-86047819D01*
X131309722Y-86067112D01*
X131319891Y-86068114D01*
X131780109Y-86068114D01*
X131790278Y-86067112D01*
X131887274Y-86047819D01*
X131906201Y-86039979D01*
X131992698Y-85982183D01*
X132007183Y-85967698D01*
X132064979Y-85881201D01*
X132072819Y-85862274D01*
X132092112Y-85765278D01*
X132093114Y-85755109D01*
X132093114Y-85044891D01*
X132092112Y-85034722D01*
X132072819Y-84937726D01*
X132064979Y-84918799D01*
X132055091Y-84904000D01*
X132448944Y-84904000D01*
X132432888Y-84984722D01*
X132431886Y-84994891D01*
X132431886Y-85505109D01*
X132432888Y-85515278D01*
X132452181Y-85612274D01*
X132460021Y-85631201D01*
X132517817Y-85717698D01*
X132532302Y-85732183D01*
X132618799Y-85789979D01*
X132637726Y-85797819D01*
X132734722Y-85817112D01*
X132744891Y-85818114D01*
X133655109Y-85818114D01*
X133665278Y-85817112D01*
X133762274Y-85797819D01*
X133781201Y-85789979D01*
X133867698Y-85732183D01*
X133882183Y-85717698D01*
X133939979Y-85631201D01*
X133947819Y-85612274D01*
X133967112Y-85515278D01*
X133968114Y-85505109D01*
X133968114Y-84994891D01*
X133967112Y-84984722D01*
X133951056Y-84904000D01*
X134218717Y-84904000D01*
X134255139Y-85004069D01*
X134264238Y-85019829D01*
X134306886Y-85070656D01*
X134306886Y-85755109D01*
X134307888Y-85765278D01*
X134327181Y-85862274D01*
X134335021Y-85881201D01*
X134392817Y-85967698D01*
X134407302Y-85982183D01*
X134493799Y-86039979D01*
X134512726Y-86047819D01*
X134609722Y-86067112D01*
X134619891Y-86068114D01*
X135080109Y-86068114D01*
X135090278Y-86067112D01*
X135187274Y-86047819D01*
X135206201Y-86039979D01*
X135292698Y-85982183D01*
X135307183Y-85967698D01*
X135364979Y-85881201D01*
X135372819Y-85862274D01*
X135392112Y-85765278D01*
X135393114Y-85755109D01*
X135393114Y-85044891D01*
X135392112Y-85034722D01*
X135372819Y-84937727D01*
X135370791Y-84932830D01*
X135381284Y-84904000D01*
X135644910Y-84904000D01*
X135635021Y-84918799D01*
X135627181Y-84937726D01*
X135607888Y-85034722D01*
X135606886Y-85044891D01*
X135606886Y-85755109D01*
X135607888Y-85765278D01*
X135627181Y-85862274D01*
X135635021Y-85881201D01*
X135692817Y-85967698D01*
X135707302Y-85982183D01*
X135793799Y-86039979D01*
X135812726Y-86047819D01*
X135909722Y-86067112D01*
X135919891Y-86068114D01*
X136380109Y-86068114D01*
X136390278Y-86067112D01*
X136487274Y-86047819D01*
X136506201Y-86039979D01*
X136592698Y-85982183D01*
X136607183Y-85967698D01*
X136664979Y-85881201D01*
X136672819Y-85862274D01*
X136692112Y-85765278D01*
X136693114Y-85755109D01*
X136693114Y-85044891D01*
X136692112Y-85034722D01*
X136672819Y-84937726D01*
X136664979Y-84918799D01*
X136616000Y-84845498D01*
X136616000Y-84443023D01*
X136700909Y-84358114D01*
X137860109Y-84358114D01*
X137870278Y-84357112D01*
X137957135Y-84339836D01*
X137959085Y-84342283D01*
X137968368Y-84357081D01*
X137975672Y-84366247D01*
X137988021Y-84378596D01*
X138025285Y-84425358D01*
X138043589Y-84439971D01*
X138054807Y-84445382D01*
X138535731Y-84926306D01*
X138514166Y-85034721D01*
X138513164Y-85044891D01*
X138513164Y-85218078D01*
X138574086Y-85279000D01*
X139321000Y-85279001D01*
X139320999Y-85471000D01*
X138574086Y-85470999D01*
X138513164Y-85531921D01*
X138513164Y-85705109D01*
X138514166Y-85715279D01*
X138548206Y-85886408D01*
X138556045Y-85905334D01*
X138631742Y-86018623D01*
X138631045Y-86019666D01*
X138623206Y-86038592D01*
X138589166Y-86209721D01*
X138588164Y-86219891D01*
X138588164Y-86443078D01*
X138649086Y-86504000D01*
X139343079Y-86504001D01*
X139343080Y-86504000D01*
X139596000Y-86504001D01*
X139595999Y-87425914D01*
X139656921Y-87486836D01*
X139905109Y-87486836D01*
X139915279Y-87485834D01*
X140086408Y-87451794D01*
X140105334Y-87443955D01*
X140254680Y-87344166D01*
X140269166Y-87329680D01*
X140364256Y-87187367D01*
X140367817Y-87192697D01*
X140382302Y-87207182D01*
X140384000Y-87208317D01*
X140384000Y-87299378D01*
X140387160Y-87317299D01*
X140455139Y-87504069D01*
X140464238Y-87519829D01*
X140591996Y-87672085D01*
X140605936Y-87683782D01*
X140778064Y-87783160D01*
X140795164Y-87789384D01*
X140990901Y-87823898D01*
X141009099Y-87823898D01*
X141204836Y-87789384D01*
X141221936Y-87783160D01*
X141394064Y-87683782D01*
X141408004Y-87672085D01*
X141535762Y-87519829D01*
X141544861Y-87504069D01*
X141612840Y-87317299D01*
X141616000Y-87299378D01*
X141616000Y-87222681D01*
X141804836Y-87189384D01*
X141821936Y-87183160D01*
X141994064Y-87083782D01*
X142008004Y-87072085D01*
X142135762Y-86919829D01*
X142144861Y-86904069D01*
X142212840Y-86717299D01*
X142216000Y-86699378D01*
X142216000Y-86500622D01*
X142212840Y-86482701D01*
X142144861Y-86295931D01*
X142135762Y-86280171D01*
X142008004Y-86127915D01*
X141994064Y-86116218D01*
X141821936Y-86016840D01*
X141804836Y-86010616D01*
X141691000Y-85990543D01*
X141691000Y-85720870D01*
X141692112Y-85715278D01*
X141693114Y-85705109D01*
X141693114Y-85470119D01*
X142081952Y-85470119D01*
X142096091Y-85694841D01*
X142097492Y-85703998D01*
X142151202Y-85922663D01*
X142154202Y-85931427D01*
X142245785Y-86137127D01*
X142250290Y-86145221D01*
X142376852Y-86331451D01*
X142382719Y-86338620D01*
X142540261Y-86499494D01*
X142547304Y-86505510D01*
X142730843Y-86635945D01*
X142738841Y-86640619D01*
X142942577Y-86736489D01*
X142951276Y-86739673D01*
X143168770Y-86797950D01*
X143177895Y-86799543D01*
X143402271Y-86818384D01*
X143411534Y-86818335D01*
X143635701Y-86797146D01*
X143644809Y-86795457D01*
X143861681Y-86734906D01*
X143870346Y-86731632D01*
X144073067Y-86633632D01*
X144081016Y-86628875D01*
X144263179Y-86496526D01*
X144270159Y-86490437D01*
X144426007Y-86327921D01*
X144431799Y-86320691D01*
X144556403Y-86133146D01*
X144560823Y-86125005D01*
X144650247Y-85918359D01*
X144653156Y-85909564D01*
X144699476Y-85712077D01*
X144751202Y-85922663D01*
X144754202Y-85931427D01*
X144845785Y-86137127D01*
X144850290Y-86145221D01*
X144976852Y-86331451D01*
X144982719Y-86338620D01*
X145140261Y-86499494D01*
X145147304Y-86505510D01*
X145330843Y-86635945D01*
X145338841Y-86640619D01*
X145542577Y-86736489D01*
X145551276Y-86739673D01*
X145768770Y-86797950D01*
X145777895Y-86799543D01*
X146002271Y-86818384D01*
X146011534Y-86818335D01*
X146235701Y-86797146D01*
X146244809Y-86795457D01*
X146461681Y-86734906D01*
X146470346Y-86731632D01*
X146673067Y-86633632D01*
X146681016Y-86628875D01*
X146863179Y-86496526D01*
X146870159Y-86490437D01*
X147026007Y-86327921D01*
X147031799Y-86320691D01*
X147156403Y-86133146D01*
X147160823Y-86125005D01*
X147250247Y-85918359D01*
X147253156Y-85909564D01*
X147304729Y-85689682D01*
X147306088Y-85679141D01*
X147313673Y-85389459D01*
X147312867Y-85378862D01*
X147272873Y-85156583D01*
X147270429Y-85147648D01*
X147191943Y-84936604D01*
X147187955Y-84928243D01*
X147073335Y-84734433D01*
X147067930Y-84726910D01*
X146920802Y-84556461D01*
X146914150Y-84550015D01*
X146739163Y-84408313D01*
X146731474Y-84403147D01*
X146534161Y-84294672D01*
X146525679Y-84290948D01*
X146312273Y-84219130D01*
X146303265Y-84216967D01*
X146080514Y-84184075D01*
X146071267Y-84183542D01*
X145846212Y-84190614D01*
X145837016Y-84191727D01*
X145616771Y-84238542D01*
X145607917Y-84241265D01*
X145399442Y-84326343D01*
X145391211Y-84330591D01*
X145201097Y-84451241D01*
X145193748Y-84456880D01*
X145028004Y-84609289D01*
X145021769Y-84616140D01*
X144885634Y-84795492D01*
X144880712Y-84803339D01*
X144778489Y-85003964D01*
X144775034Y-85012559D01*
X144709953Y-85228115D01*
X144708075Y-85237186D01*
X144699974Y-85307203D01*
X144672873Y-85156583D01*
X144670429Y-85147648D01*
X144591943Y-84936604D01*
X144587955Y-84928243D01*
X144473335Y-84734433D01*
X144467930Y-84726910D01*
X144320802Y-84556461D01*
X144314150Y-84550015D01*
X144139163Y-84408313D01*
X144131474Y-84403147D01*
X143934161Y-84294672D01*
X143925679Y-84290948D01*
X143712273Y-84219130D01*
X143703265Y-84216967D01*
X143480514Y-84184075D01*
X143471267Y-84183542D01*
X143246212Y-84190614D01*
X143237016Y-84191727D01*
X143016771Y-84238542D01*
X143007917Y-84241265D01*
X142799442Y-84326343D01*
X142791211Y-84330591D01*
X142601097Y-84451241D01*
X142593748Y-84456880D01*
X142428004Y-84609289D01*
X142421769Y-84616140D01*
X142285634Y-84795492D01*
X142280712Y-84803339D01*
X142178489Y-85003964D01*
X142175034Y-85012559D01*
X142109953Y-85228115D01*
X142108075Y-85237186D01*
X142082195Y-85460859D01*
X142081952Y-85470119D01*
X141693114Y-85470119D01*
X141693114Y-85044891D01*
X141692112Y-85034722D01*
X141672819Y-84937726D01*
X141664979Y-84918799D01*
X141607183Y-84832302D01*
X141592698Y-84817817D01*
X141532072Y-84777308D01*
X141694064Y-84683782D01*
X141708004Y-84672085D01*
X141835762Y-84519829D01*
X141844861Y-84504069D01*
X141912840Y-84317299D01*
X141916000Y-84299378D01*
X141916000Y-84100622D01*
X141912840Y-84082701D01*
X141898244Y-84042600D01*
X144603783Y-84042600D01*
X144615178Y-84046602D01*
X144638450Y-84049253D01*
X144698235Y-84042600D01*
X144716189Y-84042600D01*
X144727790Y-84041293D01*
X144744760Y-84037422D01*
X144803949Y-84030835D01*
X144826108Y-84023108D01*
X144836735Y-84016442D01*
X144849041Y-84013635D01*
X144870147Y-84003477D01*
X144917292Y-83965910D01*
X144932080Y-83956633D01*
X144941247Y-83949328D01*
X144953590Y-83936985D01*
X145000359Y-83899716D01*
X145014972Y-83881410D01*
X145020383Y-83870192D01*
X145744928Y-83145647D01*
X145755816Y-83140419D01*
X145774147Y-83125838D01*
X145811717Y-83078858D01*
X145824411Y-83066164D01*
X145831690Y-83057038D01*
X145840951Y-83042305D01*
X145878151Y-82995788D01*
X145888355Y-82974654D01*
X145891156Y-82962424D01*
X145897870Y-82951742D01*
X145905612Y-82929636D01*
X145912384Y-82869744D01*
X145916284Y-82852713D01*
X145917600Y-82841068D01*
X145917600Y-82823600D01*
X145924316Y-82764191D01*
X145921706Y-82740915D01*
X145917600Y-82729157D01*
X145917600Y-82171217D01*
X145921602Y-82159822D01*
X145924253Y-82136550D01*
X145917600Y-82076765D01*
X145917600Y-82058811D01*
X145916293Y-82047210D01*
X145912422Y-82030240D01*
X145905835Y-81971050D01*
X145898108Y-81948891D01*
X145891441Y-81938263D01*
X145888634Y-81925958D01*
X145878477Y-81904853D01*
X145840909Y-81857708D01*
X145831632Y-81842918D01*
X145824328Y-81833753D01*
X145811984Y-81821409D01*
X145774716Y-81774642D01*
X145756412Y-81760029D01*
X145745192Y-81754617D01*
X145645648Y-81655074D01*
X145640419Y-81644184D01*
X145625838Y-81625852D01*
X145578846Y-81588272D01*
X145566163Y-81575589D01*
X145557037Y-81568310D01*
X145542311Y-81559055D01*
X145495788Y-81521850D01*
X145474655Y-81511645D01*
X145462425Y-81508844D01*
X145451740Y-81502128D01*
X145429634Y-81494387D01*
X145418114Y-81493085D01*
X145418114Y-81244891D01*
X145417112Y-81234722D01*
X145400260Y-81150000D01*
X145407015Y-81116038D01*
X146488036Y-82197059D01*
X146508231Y-82227283D01*
X146522717Y-82241769D01*
X146659493Y-82333160D01*
X146678420Y-82340999D01*
X146794062Y-82364002D01*
X146839756Y-82373091D01*
X146860243Y-82373091D01*
X146895892Y-82366000D01*
X147781886Y-82366000D01*
X147781886Y-82555109D01*
X147782888Y-82565278D01*
X147802181Y-82662274D01*
X147810021Y-82681201D01*
X147867817Y-82767698D01*
X147882302Y-82782183D01*
X147968799Y-82839979D01*
X147987726Y-82847819D01*
X148084722Y-82867112D01*
X148094891Y-82868114D01*
X149505109Y-82868114D01*
X149515278Y-82867112D01*
X149612274Y-82847819D01*
X149631201Y-82839979D01*
X149717698Y-82782183D01*
X149732183Y-82767698D01*
X149789979Y-82681201D01*
X149797819Y-82662274D01*
X149817112Y-82565278D01*
X149818114Y-82555109D01*
X149818114Y-82244891D01*
X149817112Y-82234722D01*
X149800260Y-82150000D01*
X149817112Y-82065278D01*
X149818114Y-82055109D01*
X149818114Y-82031655D01*
X149915901Y-82048898D01*
X149934099Y-82048898D01*
X150129836Y-82014384D01*
X150146936Y-82008160D01*
X150319064Y-81908782D01*
X150333004Y-81897085D01*
X150460762Y-81744829D01*
X150469861Y-81729069D01*
X150537840Y-81542299D01*
X150541000Y-81524378D01*
X150541000Y-81325622D01*
X150537840Y-81307701D01*
X150469861Y-81120931D01*
X150460762Y-81105171D01*
X150333004Y-80952915D01*
X150319064Y-80941218D01*
X150146936Y-80841840D01*
X150129836Y-80835616D01*
X149934099Y-80801102D01*
X149915901Y-80801102D01*
X149818114Y-80818345D01*
X149818114Y-80744891D01*
X149817112Y-80734722D01*
X149800260Y-80650000D01*
X149817112Y-80565278D01*
X149818114Y-80555109D01*
X149818114Y-80244891D01*
X149817112Y-80234722D01*
X149797819Y-80137726D01*
X149789979Y-80118799D01*
X149732183Y-80032302D01*
X149717698Y-80017817D01*
X149631201Y-79960021D01*
X149612274Y-79952181D01*
X149607743Y-79951280D01*
X150165909Y-79393114D01*
X151705109Y-79393114D01*
X151715278Y-79392112D01*
X151812274Y-79372819D01*
X151831201Y-79364979D01*
X151886001Y-79328363D01*
X151886001Y-81869936D01*
X145569938Y-88186000D01*
X119414000Y-88186000D01*
X119414000Y-84956922D01*
X119638164Y-84956922D01*
X119638164Y-85305109D01*
X119639166Y-85315279D01*
X119673206Y-85486408D01*
X119681045Y-85505334D01*
X119780834Y-85654680D01*
X119795320Y-85669166D01*
X119944666Y-85768955D01*
X119963592Y-85776794D01*
X120134721Y-85810834D01*
X120144891Y-85811836D01*
X120493078Y-85811836D01*
X120554000Y-85750914D01*
X120554000Y-84956922D01*
X120493078Y-84896000D01*
X119699086Y-84896000D01*
X119638164Y-84956922D01*
X119414000Y-84956922D01*
X119414000Y-84294891D01*
X119638164Y-84294891D01*
X119638164Y-84643078D01*
X119699086Y-84704000D01*
X120493078Y-84704000D01*
X120554000Y-84643078D01*
X120554000Y-83849086D01*
X120493078Y-83788164D01*
X120144891Y-83788164D01*
X120134721Y-83789166D01*
X119963592Y-83823206D01*
X119944666Y-83831045D01*
X119795320Y-83930834D01*
X119780834Y-83945320D01*
X119681045Y-84094666D01*
X119673206Y-84113592D01*
X119639166Y-84284721D01*
X119638164Y-84294891D01*
X119414000Y-84294891D01*
X119414000Y-82856922D01*
X119638164Y-82856922D01*
X119638164Y-83205109D01*
X119639166Y-83215279D01*
X119673206Y-83386408D01*
X119681045Y-83405334D01*
X119780834Y-83554680D01*
X119795320Y-83569166D01*
X119944666Y-83668955D01*
X119963592Y-83676794D01*
X120134721Y-83710834D01*
X120144891Y-83711836D01*
X120493078Y-83711836D01*
X120554000Y-83650914D01*
X120554000Y-82856922D01*
X120493078Y-82796000D01*
X119699086Y-82796000D01*
X119638164Y-82856922D01*
X119414000Y-82856922D01*
X119414000Y-82194891D01*
X119638164Y-82194891D01*
X119638164Y-82543078D01*
X119699086Y-82604000D01*
X120493078Y-82604000D01*
X120554000Y-82543078D01*
X120554000Y-81749086D01*
X120493078Y-81688164D01*
X120144891Y-81688164D01*
X120134721Y-81689166D01*
X119963592Y-81723206D01*
X119944666Y-81731045D01*
X119795320Y-81830834D01*
X119780834Y-81845320D01*
X119681045Y-81994666D01*
X119673206Y-82013592D01*
X119639166Y-82184721D01*
X119638164Y-82194891D01*
X119414000Y-82194891D01*
X119414000Y-80756922D01*
X119638164Y-80756922D01*
X119638164Y-81105109D01*
X119639166Y-81115279D01*
X119673206Y-81286408D01*
X119681045Y-81305334D01*
X119780834Y-81454680D01*
X119795320Y-81469166D01*
X119944666Y-81568955D01*
X119963592Y-81576794D01*
X120134721Y-81610834D01*
X120144891Y-81611836D01*
X120493078Y-81611836D01*
X120554000Y-81550914D01*
X120554000Y-80756922D01*
X120493078Y-80696000D01*
X119699086Y-80696000D01*
X119638164Y-80756922D01*
X119414000Y-80756922D01*
X119414000Y-73856921D01*
X121663164Y-73856921D01*
X121663164Y-74235109D01*
X121664166Y-74245279D01*
X121698206Y-74416408D01*
X121706045Y-74435334D01*
X121805834Y-74584680D01*
X121820320Y-74599166D01*
X121969666Y-74698955D01*
X121988592Y-74706794D01*
X122159721Y-74740834D01*
X122169891Y-74741836D01*
X122343078Y-74741836D01*
X122404000Y-74680914D01*
X122404001Y-73856922D01*
X122343079Y-73796000D01*
X121724086Y-73795999D01*
X121663164Y-73856921D01*
X119414000Y-73856921D01*
X119414000Y-70714000D01*
X127793378Y-70714000D01*
X127859342Y-70714057D01*
X127882183Y-70708868D01*
X127900830Y-70699914D01*
X127897993Y-70712300D01*
X127883979Y-70752209D01*
X127881328Y-70775480D01*
X127886000Y-70817466D01*
X127886000Y-70846453D01*
X127883979Y-70852208D01*
X127881328Y-70875480D01*
X127886000Y-70917466D01*
X127886000Y-70929511D01*
X127887307Y-70941112D01*
X127889893Y-70952450D01*
X127894517Y-70994001D01*
X127902244Y-71016160D01*
X127905674Y-71021628D01*
X127907118Y-71027959D01*
X127917275Y-71049063D01*
X127943637Y-71082146D01*
X127949851Y-71092052D01*
X127957154Y-71101216D01*
X127965418Y-71109480D01*
X127991581Y-71142312D01*
X128009887Y-71156925D01*
X128015636Y-71159698D01*
X129740103Y-72884166D01*
X129742744Y-72889666D01*
X129757325Y-72907997D01*
X129790323Y-72934386D01*
X129798835Y-72942898D01*
X129807962Y-72950178D01*
X129817807Y-72956365D01*
X129850461Y-72982479D01*
X129871596Y-72992685D01*
X129877884Y-72994125D01*
X129883379Y-72997579D01*
X129905487Y-73005320D01*
X129947510Y-73010071D01*
X129958913Y-73012683D01*
X129970561Y-73014000D01*
X129982262Y-73014000D01*
X130023964Y-73018714D01*
X130047240Y-73016104D01*
X130053265Y-73014000D01*
X131993378Y-73014000D01*
X132059342Y-73014057D01*
X132082183Y-73008868D01*
X132104173Y-72998308D01*
X132127956Y-72992883D01*
X132149062Y-72982726D01*
X132167924Y-72967696D01*
X132189666Y-72957256D01*
X132207998Y-72942674D01*
X132223231Y-72923624D01*
X132242310Y-72908422D01*
X132256924Y-72890116D01*
X132267402Y-72868393D01*
X132282480Y-72849538D01*
X132292685Y-72828405D01*
X132298105Y-72804740D01*
X132308725Y-72782721D01*
X132313954Y-72759889D01*
X132313980Y-72729657D01*
X132314000Y-72729481D01*
X132314000Y-72706622D01*
X132314057Y-72640670D01*
X132314000Y-72640419D01*
X132314000Y-72606622D01*
X132314057Y-72540657D01*
X132308868Y-72517817D01*
X132298308Y-72495824D01*
X132292883Y-72472042D01*
X132282726Y-72450937D01*
X132267696Y-72432075D01*
X132257256Y-72410334D01*
X132242674Y-72392002D01*
X132223624Y-72376769D01*
X132208422Y-72357690D01*
X132190116Y-72343076D01*
X132168393Y-72332598D01*
X132149538Y-72317520D01*
X132128405Y-72307315D01*
X132104740Y-72301895D01*
X132082721Y-72291275D01*
X132059889Y-72286046D01*
X132029657Y-72286020D01*
X132029481Y-72286000D01*
X132006622Y-72286000D01*
X131940671Y-72285943D01*
X131940420Y-72286000D01*
X130130063Y-72286000D01*
X128434582Y-70590520D01*
X128408420Y-70557688D01*
X128390114Y-70543075D01*
X128352222Y-70524799D01*
X128316619Y-70502422D01*
X128294513Y-70494680D01*
X128288331Y-70493981D01*
X128282721Y-70491275D01*
X128259888Y-70486046D01*
X128217823Y-70486010D01*
X128176037Y-70481285D01*
X128152757Y-70483896D01*
X128146882Y-70485948D01*
X128140659Y-70485942D01*
X128117817Y-70491132D01*
X128100705Y-70499349D01*
X128108725Y-70482721D01*
X128113954Y-70459889D01*
X128113980Y-70429657D01*
X128114000Y-70429481D01*
X128114000Y-70406622D01*
X128114057Y-70340670D01*
X128114000Y-70340419D01*
X128114000Y-66314000D01*
X130703233Y-66314000D01*
X130689166Y-66384721D01*
G37*
%TD.AperFunction*%
%TD*%
M02*
