%TF.GenerationSoftware,KiCad,Pcbnew,(5.99.0-2195-g476558ece)*%
%TF.CreationDate,2021-12-21T14:22:00-08:00*%
%TF.ProjectId,wwu_pico1,7777755f-7069-4636-9f31-2e6b69636164,rev?*%
%TF.SameCoordinates,Original*%
%TF.FileFunction,Legend,Top*%
%TF.FilePolarity,Positive*%
%FSLAX46Y46*%
G04 Gerber Fmt 4.6, Leading zero omitted, Abs format (unit mm)*
G04 Created by KiCad (PCBNEW (5.99.0-2195-g476558ece)) date 2021-12-21 14:22:00*
%MOMM*%
%LPD*%
G01*
G04 APERTURE LIST*
%ADD10C,0.150000*%
%ADD11C,0.100000*%
%ADD12C,0.120000*%
G04 APERTURE END LIST*
D10*
%TO.C,J7*%
X128666666Y-86216666D02*
X128666666Y-86716666D01*
X128633333Y-86816666D01*
X128566666Y-86883333D01*
X128466666Y-86916666D01*
X128400000Y-86916666D01*
X128933333Y-86216666D02*
X129400000Y-86216666D01*
X129100000Y-86916666D01*
%TO.C,J6*%
X122966666Y-87216666D02*
X122966666Y-87716666D01*
X122933333Y-87816666D01*
X122866666Y-87883333D01*
X122766666Y-87916666D01*
X122700000Y-87916666D01*
X123600000Y-87216666D02*
X123466666Y-87216666D01*
X123400000Y-87250000D01*
X123366666Y-87283333D01*
X123300000Y-87383333D01*
X123266666Y-87516666D01*
X123266666Y-87783333D01*
X123300000Y-87850000D01*
X123333333Y-87883333D01*
X123400000Y-87916666D01*
X123533333Y-87916666D01*
X123600000Y-87883333D01*
X123633333Y-87850000D01*
X123666666Y-87783333D01*
X123666666Y-87616666D01*
X123633333Y-87550000D01*
X123600000Y-87516666D01*
X123533333Y-87483333D01*
X123400000Y-87483333D01*
X123333333Y-87516666D01*
X123300000Y-87550000D01*
X123266666Y-87616666D01*
%TO.C,J5*%
X143166666Y-86916666D02*
X143166666Y-87416666D01*
X143133333Y-87516666D01*
X143066666Y-87583333D01*
X142966666Y-87616666D01*
X142900000Y-87616666D01*
X143833333Y-86916666D02*
X143500000Y-86916666D01*
X143466666Y-87250000D01*
X143500000Y-87216666D01*
X143566666Y-87183333D01*
X143733333Y-87183333D01*
X143800000Y-87216666D01*
X143833333Y-87250000D01*
X143866666Y-87316666D01*
X143866666Y-87483333D01*
X143833333Y-87550000D01*
X143800000Y-87583333D01*
X143733333Y-87616666D01*
X143566666Y-87616666D01*
X143500000Y-87583333D01*
X143466666Y-87550000D01*
%TO.C,J4*%
X120266666Y-87216666D02*
X120266666Y-87716666D01*
X120233333Y-87816666D01*
X120166666Y-87883333D01*
X120066666Y-87916666D01*
X120000000Y-87916666D01*
X120900000Y-87450000D02*
X120900000Y-87916666D01*
X120733333Y-87183333D02*
X120566666Y-87683333D01*
X121000000Y-87683333D01*
%TO.C,J3*%
X145266666Y-86916666D02*
X145266666Y-87416666D01*
X145233333Y-87516666D01*
X145166666Y-87583333D01*
X145066666Y-87616666D01*
X145000000Y-87616666D01*
X145533333Y-86916666D02*
X145966666Y-86916666D01*
X145733333Y-87183333D01*
X145833333Y-87183333D01*
X145900000Y-87216666D01*
X145933333Y-87250000D01*
X145966666Y-87316666D01*
X145966666Y-87483333D01*
X145933333Y-87550000D01*
X145900000Y-87583333D01*
X145833333Y-87616666D01*
X145633333Y-87616666D01*
X145566666Y-87583333D01*
X145533333Y-87550000D01*
%TO.C,J2*%
X120266666Y-76416666D02*
X120266666Y-76916666D01*
X120233333Y-77016666D01*
X120166666Y-77083333D01*
X120066666Y-77116666D01*
X120000000Y-77116666D01*
X120566666Y-76483333D02*
X120600000Y-76450000D01*
X120666666Y-76416666D01*
X120833333Y-76416666D01*
X120900000Y-76450000D01*
X120933333Y-76483333D01*
X120966666Y-76550000D01*
X120966666Y-76616666D01*
X120933333Y-76716666D01*
X120533333Y-77116666D01*
X120966666Y-77116666D01*
%TO.C,Y1*%
X140816666Y-79183333D02*
X140816666Y-79516666D01*
X140583333Y-78816666D02*
X140816666Y-79183333D01*
X141050000Y-78816666D01*
X141650000Y-79516666D02*
X141250000Y-79516666D01*
X141450000Y-79516666D02*
X141450000Y-78816666D01*
X141383333Y-78916666D01*
X141316666Y-78983333D01*
X141250000Y-79016666D01*
D11*
%TO.C,U5*%
X138071428Y-85457142D02*
X138557142Y-85457142D01*
X138614285Y-85428571D01*
X138642857Y-85400000D01*
X138671428Y-85342857D01*
X138671428Y-85228571D01*
X138642857Y-85171428D01*
X138614285Y-85142857D01*
X138557142Y-85114285D01*
X138071428Y-85114285D01*
X138071428Y-84542857D02*
X138071428Y-84828571D01*
X138357142Y-84857142D01*
X138328571Y-84828571D01*
X138300000Y-84771428D01*
X138300000Y-84628571D01*
X138328571Y-84571428D01*
X138357142Y-84542857D01*
X138414285Y-84514285D01*
X138557142Y-84514285D01*
X138614285Y-84542857D01*
X138642857Y-84571428D01*
X138671428Y-84628571D01*
X138671428Y-84771428D01*
X138642857Y-84828571D01*
X138614285Y-84857142D01*
D10*
%TO.C,U4*%
X146538095Y-83452380D02*
X146538095Y-84261904D01*
X146585714Y-84357142D01*
X146633333Y-84404761D01*
X146728571Y-84452380D01*
X146919047Y-84452380D01*
X147014285Y-84404761D01*
X147061904Y-84357142D01*
X147109523Y-84261904D01*
X147109523Y-83452380D01*
X148014285Y-83785714D02*
X148014285Y-84452380D01*
X147776190Y-83404761D02*
X147538095Y-84119047D01*
X148157142Y-84119047D01*
D11*
%TO.C,U3*%
X123419047Y-78826190D02*
X123419047Y-79230952D01*
X123442857Y-79278571D01*
X123466666Y-79302380D01*
X123514285Y-79326190D01*
X123609523Y-79326190D01*
X123657142Y-79302380D01*
X123680952Y-79278571D01*
X123704761Y-79230952D01*
X123704761Y-78826190D01*
X123895238Y-78826190D02*
X124204761Y-78826190D01*
X124038095Y-79016666D01*
X124109523Y-79016666D01*
X124157142Y-79040476D01*
X124180952Y-79064285D01*
X124204761Y-79111904D01*
X124204761Y-79230952D01*
X124180952Y-79278571D01*
X124157142Y-79302380D01*
X124109523Y-79326190D01*
X123966666Y-79326190D01*
X123919047Y-79302380D01*
X123895238Y-79278571D01*
D10*
%TO.C,U2*%
X135452380Y-77061904D02*
X136261904Y-77061904D01*
X136357142Y-77014285D01*
X136404761Y-76966666D01*
X136452380Y-76871428D01*
X136452380Y-76680952D01*
X136404761Y-76585714D01*
X136357142Y-76538095D01*
X136261904Y-76490476D01*
X135452380Y-76490476D01*
X135547619Y-76061904D02*
X135500000Y-76014285D01*
X135452380Y-75919047D01*
X135452380Y-75680952D01*
X135500000Y-75585714D01*
X135547619Y-75538095D01*
X135642857Y-75490476D01*
X135738095Y-75490476D01*
X135880952Y-75538095D01*
X136452380Y-76109523D01*
X136452380Y-75490476D01*
%TO.C,U1*%
X120766666Y-75333333D02*
X121333333Y-75333333D01*
X121400000Y-75300000D01*
X121433333Y-75266666D01*
X121466666Y-75200000D01*
X121466666Y-75066666D01*
X121433333Y-75000000D01*
X121400000Y-74966666D01*
X121333333Y-74933333D01*
X120766666Y-74933333D01*
X121466666Y-74233333D02*
X121466666Y-74633333D01*
X121466666Y-74433333D02*
X120766666Y-74433333D01*
X120866666Y-74500000D01*
X120933333Y-74566666D01*
X120966666Y-74633333D01*
%TO.C,R7*%
X138383333Y-75516666D02*
X138150000Y-75183333D01*
X137983333Y-75516666D02*
X137983333Y-74816666D01*
X138250000Y-74816666D01*
X138316666Y-74850000D01*
X138350000Y-74883333D01*
X138383333Y-74950000D01*
X138383333Y-75050000D01*
X138350000Y-75116666D01*
X138316666Y-75150000D01*
X138250000Y-75183333D01*
X137983333Y-75183333D01*
X138616666Y-74816666D02*
X139083333Y-74816666D01*
X138783333Y-75516666D01*
%TO.C,R6*%
X129216666Y-72416666D02*
X128883333Y-72650000D01*
X129216666Y-72816666D02*
X128516666Y-72816666D01*
X128516666Y-72550000D01*
X128550000Y-72483333D01*
X128583333Y-72450000D01*
X128650000Y-72416666D01*
X128750000Y-72416666D01*
X128816666Y-72450000D01*
X128850000Y-72483333D01*
X128883333Y-72550000D01*
X128883333Y-72816666D01*
X128516666Y-71816666D02*
X128516666Y-71950000D01*
X128550000Y-72016666D01*
X128583333Y-72050000D01*
X128683333Y-72116666D01*
X128816666Y-72150000D01*
X129083333Y-72150000D01*
X129150000Y-72116666D01*
X129183333Y-72083333D01*
X129216666Y-72016666D01*
X129216666Y-71883333D01*
X129183333Y-71816666D01*
X129150000Y-71783333D01*
X129083333Y-71750000D01*
X128916666Y-71750000D01*
X128850000Y-71783333D01*
X128816666Y-71816666D01*
X128783333Y-71883333D01*
X128783333Y-72016666D01*
X128816666Y-72083333D01*
X128850000Y-72116666D01*
X128916666Y-72150000D01*
%TO.C,R5*%
X127916666Y-72416666D02*
X127583333Y-72650000D01*
X127916666Y-72816666D02*
X127216666Y-72816666D01*
X127216666Y-72550000D01*
X127250000Y-72483333D01*
X127283333Y-72450000D01*
X127350000Y-72416666D01*
X127450000Y-72416666D01*
X127516666Y-72450000D01*
X127550000Y-72483333D01*
X127583333Y-72550000D01*
X127583333Y-72816666D01*
X127216666Y-71783333D02*
X127216666Y-72116666D01*
X127550000Y-72150000D01*
X127516666Y-72116666D01*
X127483333Y-72050000D01*
X127483333Y-71883333D01*
X127516666Y-71816666D01*
X127550000Y-71783333D01*
X127616666Y-71750000D01*
X127783333Y-71750000D01*
X127850000Y-71783333D01*
X127883333Y-71816666D01*
X127916666Y-71883333D01*
X127916666Y-72050000D01*
X127883333Y-72116666D01*
X127850000Y-72150000D01*
%TO.C,R4*%
X127433333Y-84716666D02*
X127200000Y-84383333D01*
X127033333Y-84716666D02*
X127033333Y-84016666D01*
X127300000Y-84016666D01*
X127366666Y-84050000D01*
X127400000Y-84083333D01*
X127433333Y-84150000D01*
X127433333Y-84250000D01*
X127400000Y-84316666D01*
X127366666Y-84350000D01*
X127300000Y-84383333D01*
X127033333Y-84383333D01*
X128033333Y-84250000D02*
X128033333Y-84716666D01*
X127866666Y-83983333D02*
X127700000Y-84483333D01*
X128133333Y-84483333D01*
%TO.C,R3*%
X129416666Y-85266666D02*
X129083333Y-85500000D01*
X129416666Y-85666666D02*
X128716666Y-85666666D01*
X128716666Y-85400000D01*
X128750000Y-85333333D01*
X128783333Y-85300000D01*
X128850000Y-85266666D01*
X128950000Y-85266666D01*
X129016666Y-85300000D01*
X129050000Y-85333333D01*
X129083333Y-85400000D01*
X129083333Y-85666666D01*
X128716666Y-85033333D02*
X128716666Y-84600000D01*
X128983333Y-84833333D01*
X128983333Y-84733333D01*
X129016666Y-84666666D01*
X129050000Y-84633333D01*
X129116666Y-84600000D01*
X129283333Y-84600000D01*
X129350000Y-84633333D01*
X129383333Y-84666666D01*
X129416666Y-84733333D01*
X129416666Y-84933333D01*
X129383333Y-85000000D01*
X129350000Y-85033333D01*
%TO.C,R2*%
X133083333Y-88016666D02*
X132850000Y-87683333D01*
X132683333Y-88016666D02*
X132683333Y-87316666D01*
X132950000Y-87316666D01*
X133016666Y-87350000D01*
X133050000Y-87383333D01*
X133083333Y-87450000D01*
X133083333Y-87550000D01*
X133050000Y-87616666D01*
X133016666Y-87650000D01*
X132950000Y-87683333D01*
X132683333Y-87683333D01*
X133350000Y-87383333D02*
X133383333Y-87350000D01*
X133450000Y-87316666D01*
X133616666Y-87316666D01*
X133683333Y-87350000D01*
X133716666Y-87383333D01*
X133750000Y-87450000D01*
X133750000Y-87516666D01*
X133716666Y-87616666D01*
X133316666Y-88016666D01*
X133750000Y-88016666D01*
%TO.C,R1*%
X130516666Y-70516666D02*
X130183333Y-70750000D01*
X130516666Y-70916666D02*
X129816666Y-70916666D01*
X129816666Y-70650000D01*
X129850000Y-70583333D01*
X129883333Y-70550000D01*
X129950000Y-70516666D01*
X130050000Y-70516666D01*
X130116666Y-70550000D01*
X130150000Y-70583333D01*
X130183333Y-70650000D01*
X130183333Y-70916666D01*
X130516666Y-69850000D02*
X130516666Y-70250000D01*
X130516666Y-70050000D02*
X129816666Y-70050000D01*
X129916666Y-70116666D01*
X129983333Y-70183333D01*
X130016666Y-70250000D01*
%TO.C,Q4*%
X140354761Y-75597619D02*
X140259523Y-75550000D01*
X140164285Y-75454761D01*
X140021428Y-75311904D01*
X139926190Y-75264285D01*
X139830952Y-75264285D01*
X139878571Y-75502380D02*
X139783333Y-75454761D01*
X139688095Y-75359523D01*
X139640476Y-75169047D01*
X139640476Y-74835714D01*
X139688095Y-74645238D01*
X139783333Y-74550000D01*
X139878571Y-74502380D01*
X140069047Y-74502380D01*
X140164285Y-74550000D01*
X140259523Y-74645238D01*
X140307142Y-74835714D01*
X140307142Y-75169047D01*
X140259523Y-75359523D01*
X140164285Y-75454761D01*
X140069047Y-75502380D01*
X139878571Y-75502380D01*
X141164285Y-74835714D02*
X141164285Y-75502380D01*
X140926190Y-74454761D02*
X140688095Y-75169047D01*
X141307142Y-75169047D01*
%TO.C,Q3*%
X125604761Y-79947619D02*
X125509523Y-79900000D01*
X125414285Y-79804761D01*
X125271428Y-79661904D01*
X125176190Y-79614285D01*
X125080952Y-79614285D01*
X125128571Y-79852380D02*
X125033333Y-79804761D01*
X124938095Y-79709523D01*
X124890476Y-79519047D01*
X124890476Y-79185714D01*
X124938095Y-78995238D01*
X125033333Y-78900000D01*
X125128571Y-78852380D01*
X125319047Y-78852380D01*
X125414285Y-78900000D01*
X125509523Y-78995238D01*
X125557142Y-79185714D01*
X125557142Y-79519047D01*
X125509523Y-79709523D01*
X125414285Y-79804761D01*
X125319047Y-79852380D01*
X125128571Y-79852380D01*
X125890476Y-78852380D02*
X126509523Y-78852380D01*
X126176190Y-79233333D01*
X126319047Y-79233333D01*
X126414285Y-79280952D01*
X126461904Y-79328571D01*
X126509523Y-79423809D01*
X126509523Y-79661904D01*
X126461904Y-79757142D01*
X126414285Y-79804761D01*
X126319047Y-79852380D01*
X126033333Y-79852380D01*
X125938095Y-79804761D01*
X125890476Y-79757142D01*
%TO.C,Q2*%
X128733333Y-87983333D02*
X128666666Y-87950000D01*
X128600000Y-87883333D01*
X128500000Y-87783333D01*
X128433333Y-87750000D01*
X128366666Y-87750000D01*
X128400000Y-87916666D02*
X128333333Y-87883333D01*
X128266666Y-87816666D01*
X128233333Y-87683333D01*
X128233333Y-87450000D01*
X128266666Y-87316666D01*
X128333333Y-87250000D01*
X128400000Y-87216666D01*
X128533333Y-87216666D01*
X128600000Y-87250000D01*
X128666666Y-87316666D01*
X128700000Y-87450000D01*
X128700000Y-87683333D01*
X128666666Y-87816666D01*
X128600000Y-87883333D01*
X128533333Y-87916666D01*
X128400000Y-87916666D01*
X128966666Y-87283333D02*
X129000000Y-87250000D01*
X129066666Y-87216666D01*
X129233333Y-87216666D01*
X129300000Y-87250000D01*
X129333333Y-87283333D01*
X129366666Y-87350000D01*
X129366666Y-87416666D01*
X129333333Y-87516666D01*
X128933333Y-87916666D01*
X129366666Y-87916666D01*
%TO.C,Q1*%
X137633333Y-87983333D02*
X137566666Y-87950000D01*
X137500000Y-87883333D01*
X137400000Y-87783333D01*
X137333333Y-87750000D01*
X137266666Y-87750000D01*
X137300000Y-87916666D02*
X137233333Y-87883333D01*
X137166666Y-87816666D01*
X137133333Y-87683333D01*
X137133333Y-87450000D01*
X137166666Y-87316666D01*
X137233333Y-87250000D01*
X137300000Y-87216666D01*
X137433333Y-87216666D01*
X137500000Y-87250000D01*
X137566666Y-87316666D01*
X137600000Y-87450000D01*
X137600000Y-87683333D01*
X137566666Y-87816666D01*
X137500000Y-87883333D01*
X137433333Y-87916666D01*
X137300000Y-87916666D01*
X138266666Y-87916666D02*
X137866666Y-87916666D01*
X138066666Y-87916666D02*
X138066666Y-87216666D01*
X138000000Y-87316666D01*
X137933333Y-87383333D01*
X137866666Y-87416666D01*
%TO.C,L2*%
X148727380Y-73341666D02*
X148727380Y-73817857D01*
X147727380Y-73817857D01*
X147822619Y-73055952D02*
X147775000Y-73008333D01*
X147727380Y-72913095D01*
X147727380Y-72675000D01*
X147775000Y-72579761D01*
X147822619Y-72532142D01*
X147917857Y-72484523D01*
X148013095Y-72484523D01*
X148155952Y-72532142D01*
X148727380Y-73103571D01*
X148727380Y-72484523D01*
%TO.C,L1*%
X150158333Y-77877380D02*
X149682142Y-77877380D01*
X149682142Y-76877380D01*
X151015476Y-77877380D02*
X150444047Y-77877380D01*
X150729761Y-77877380D02*
X150729761Y-76877380D01*
X150634523Y-77020238D01*
X150539285Y-77115476D01*
X150444047Y-77163095D01*
%TO.C,J1*%
X140666666Y-68552380D02*
X140666666Y-69266666D01*
X140619047Y-69409523D01*
X140523809Y-69504761D01*
X140380952Y-69552380D01*
X140285714Y-69552380D01*
X141666666Y-69552380D02*
X141095238Y-69552380D01*
X141380952Y-69552380D02*
X141380952Y-68552380D01*
X141285714Y-68695238D01*
X141190476Y-68790476D01*
X141095238Y-68838095D01*
%TO.C,FB1*%
X130966666Y-76350000D02*
X130733333Y-76350000D01*
X130733333Y-76716666D02*
X130733333Y-76016666D01*
X131066666Y-76016666D01*
X131566666Y-76350000D02*
X131666666Y-76383333D01*
X131700000Y-76416666D01*
X131733333Y-76483333D01*
X131733333Y-76583333D01*
X131700000Y-76650000D01*
X131666666Y-76683333D01*
X131600000Y-76716666D01*
X131333333Y-76716666D01*
X131333333Y-76016666D01*
X131566666Y-76016666D01*
X131633333Y-76050000D01*
X131666666Y-76083333D01*
X131700000Y-76150000D01*
X131700000Y-76216666D01*
X131666666Y-76283333D01*
X131633333Y-76316666D01*
X131566666Y-76350000D01*
X131333333Y-76350000D01*
X132400000Y-76716666D02*
X132000000Y-76716666D01*
X132200000Y-76716666D02*
X132200000Y-76016666D01*
X132133333Y-76116666D01*
X132066666Y-76183333D01*
X132000000Y-76216666D01*
%TO.C,D4*%
X122216666Y-85316666D02*
X121516666Y-85316666D01*
X121516666Y-85150000D01*
X121550000Y-85050000D01*
X121616666Y-84983333D01*
X121683333Y-84950000D01*
X121816666Y-84916666D01*
X121916666Y-84916666D01*
X122050000Y-84950000D01*
X122116666Y-84983333D01*
X122183333Y-85050000D01*
X122216666Y-85150000D01*
X122216666Y-85316666D01*
X121750000Y-84316666D02*
X122216666Y-84316666D01*
X121483333Y-84483333D02*
X121983333Y-84650000D01*
X121983333Y-84216666D01*
%TO.C,D3*%
X122216666Y-83216666D02*
X121516666Y-83216666D01*
X121516666Y-83050000D01*
X121550000Y-82950000D01*
X121616666Y-82883333D01*
X121683333Y-82850000D01*
X121816666Y-82816666D01*
X121916666Y-82816666D01*
X122050000Y-82850000D01*
X122116666Y-82883333D01*
X122183333Y-82950000D01*
X122216666Y-83050000D01*
X122216666Y-83216666D01*
X121516666Y-82583333D02*
X121516666Y-82150000D01*
X121783333Y-82383333D01*
X121783333Y-82283333D01*
X121816666Y-82216666D01*
X121850000Y-82183333D01*
X121916666Y-82150000D01*
X122083333Y-82150000D01*
X122150000Y-82183333D01*
X122183333Y-82216666D01*
X122216666Y-82283333D01*
X122216666Y-82483333D01*
X122183333Y-82550000D01*
X122150000Y-82583333D01*
%TO.C,D2*%
X122216666Y-81116666D02*
X121516666Y-81116666D01*
X121516666Y-80950000D01*
X121550000Y-80850000D01*
X121616666Y-80783333D01*
X121683333Y-80750000D01*
X121816666Y-80716666D01*
X121916666Y-80716666D01*
X122050000Y-80750000D01*
X122116666Y-80783333D01*
X122183333Y-80850000D01*
X122216666Y-80950000D01*
X122216666Y-81116666D01*
X121583333Y-80450000D02*
X121550000Y-80416666D01*
X121516666Y-80350000D01*
X121516666Y-80183333D01*
X121550000Y-80116666D01*
X121583333Y-80083333D01*
X121650000Y-80050000D01*
X121716666Y-80050000D01*
X121816666Y-80083333D01*
X122216666Y-80483333D01*
X122216666Y-80050000D01*
%TO.C,D1*%
X130516666Y-68116666D02*
X129816666Y-68116666D01*
X129816666Y-67950000D01*
X129850000Y-67850000D01*
X129916666Y-67783333D01*
X129983333Y-67750000D01*
X130116666Y-67716666D01*
X130216666Y-67716666D01*
X130350000Y-67750000D01*
X130416666Y-67783333D01*
X130483333Y-67850000D01*
X130516666Y-67950000D01*
X130516666Y-68116666D01*
X130516666Y-67050000D02*
X130516666Y-67450000D01*
X130516666Y-67250000D02*
X129816666Y-67250000D01*
X129916666Y-67316666D01*
X129983333Y-67383333D01*
X130016666Y-67450000D01*
%TO.C,C12*%
X144750000Y-72250000D02*
X144716666Y-72283333D01*
X144616666Y-72316666D01*
X144550000Y-72316666D01*
X144450000Y-72283333D01*
X144383333Y-72216666D01*
X144350000Y-72150000D01*
X144316666Y-72016666D01*
X144316666Y-71916666D01*
X144350000Y-71783333D01*
X144383333Y-71716666D01*
X144450000Y-71650000D01*
X144550000Y-71616666D01*
X144616666Y-71616666D01*
X144716666Y-71650000D01*
X144750000Y-71683333D01*
X145416666Y-72316666D02*
X145016666Y-72316666D01*
X145216666Y-72316666D02*
X145216666Y-71616666D01*
X145150000Y-71716666D01*
X145083333Y-71783333D01*
X145016666Y-71816666D01*
X145683333Y-71683333D02*
X145716666Y-71650000D01*
X145783333Y-71616666D01*
X145950000Y-71616666D01*
X146016666Y-71650000D01*
X146050000Y-71683333D01*
X146083333Y-71750000D01*
X146083333Y-71816666D01*
X146050000Y-71916666D01*
X145650000Y-72316666D01*
X146083333Y-72316666D01*
%TO.C,C11*%
X150850000Y-75300000D02*
X150816666Y-75333333D01*
X150716666Y-75366666D01*
X150650000Y-75366666D01*
X150550000Y-75333333D01*
X150483333Y-75266666D01*
X150450000Y-75200000D01*
X150416666Y-75066666D01*
X150416666Y-74966666D01*
X150450000Y-74833333D01*
X150483333Y-74766666D01*
X150550000Y-74700000D01*
X150650000Y-74666666D01*
X150716666Y-74666666D01*
X150816666Y-74700000D01*
X150850000Y-74733333D01*
X151516666Y-75366666D02*
X151116666Y-75366666D01*
X151316666Y-75366666D02*
X151316666Y-74666666D01*
X151250000Y-74766666D01*
X151183333Y-74833333D01*
X151116666Y-74866666D01*
X152183333Y-75366666D02*
X151783333Y-75366666D01*
X151983333Y-75366666D02*
X151983333Y-74666666D01*
X151916666Y-74766666D01*
X151850000Y-74833333D01*
X151783333Y-74866666D01*
%TO.C,C10*%
X147750000Y-76250000D02*
X147783333Y-76283333D01*
X147816666Y-76383333D01*
X147816666Y-76450000D01*
X147783333Y-76550000D01*
X147716666Y-76616666D01*
X147650000Y-76650000D01*
X147516666Y-76683333D01*
X147416666Y-76683333D01*
X147283333Y-76650000D01*
X147216666Y-76616666D01*
X147150000Y-76550000D01*
X147116666Y-76450000D01*
X147116666Y-76383333D01*
X147150000Y-76283333D01*
X147183333Y-76250000D01*
X147816666Y-75583333D02*
X147816666Y-75983333D01*
X147816666Y-75783333D02*
X147116666Y-75783333D01*
X147216666Y-75850000D01*
X147283333Y-75916666D01*
X147316666Y-75983333D01*
X147116666Y-75150000D02*
X147116666Y-75083333D01*
X147150000Y-75016666D01*
X147183333Y-74983333D01*
X147250000Y-74950000D01*
X147383333Y-74916666D01*
X147550000Y-74916666D01*
X147683333Y-74950000D01*
X147750000Y-74983333D01*
X147783333Y-75016666D01*
X147816666Y-75083333D01*
X147816666Y-75150000D01*
X147783333Y-75216666D01*
X147750000Y-75250000D01*
X147683333Y-75283333D01*
X147550000Y-75316666D01*
X147383333Y-75316666D01*
X147250000Y-75283333D01*
X147183333Y-75250000D01*
X147150000Y-75216666D01*
X147116666Y-75150000D01*
%TO.C,C9*%
X137883333Y-86850000D02*
X137850000Y-86883333D01*
X137750000Y-86916666D01*
X137683333Y-86916666D01*
X137583333Y-86883333D01*
X137516666Y-86816666D01*
X137483333Y-86750000D01*
X137450000Y-86616666D01*
X137450000Y-86516666D01*
X137483333Y-86383333D01*
X137516666Y-86316666D01*
X137583333Y-86250000D01*
X137683333Y-86216666D01*
X137750000Y-86216666D01*
X137850000Y-86250000D01*
X137883333Y-86283333D01*
X138216666Y-86916666D02*
X138350000Y-86916666D01*
X138416666Y-86883333D01*
X138450000Y-86850000D01*
X138516666Y-86750000D01*
X138550000Y-86616666D01*
X138550000Y-86350000D01*
X138516666Y-86283333D01*
X138483333Y-86250000D01*
X138416666Y-86216666D01*
X138283333Y-86216666D01*
X138216666Y-86250000D01*
X138183333Y-86283333D01*
X138150000Y-86350000D01*
X138150000Y-86516666D01*
X138183333Y-86583333D01*
X138216666Y-86616666D01*
X138283333Y-86650000D01*
X138416666Y-86650000D01*
X138483333Y-86616666D01*
X138516666Y-86583333D01*
X138550000Y-86516666D01*
%TO.C,C8*%
X142983333Y-79200000D02*
X142950000Y-79233333D01*
X142850000Y-79266666D01*
X142783333Y-79266666D01*
X142683333Y-79233333D01*
X142616666Y-79166666D01*
X142583333Y-79100000D01*
X142550000Y-78966666D01*
X142550000Y-78866666D01*
X142583333Y-78733333D01*
X142616666Y-78666666D01*
X142683333Y-78600000D01*
X142783333Y-78566666D01*
X142850000Y-78566666D01*
X142950000Y-78600000D01*
X142983333Y-78633333D01*
X143383333Y-78866666D02*
X143316666Y-78833333D01*
X143283333Y-78800000D01*
X143250000Y-78733333D01*
X143250000Y-78700000D01*
X143283333Y-78633333D01*
X143316666Y-78600000D01*
X143383333Y-78566666D01*
X143516666Y-78566666D01*
X143583333Y-78600000D01*
X143616666Y-78633333D01*
X143650000Y-78700000D01*
X143650000Y-78733333D01*
X143616666Y-78800000D01*
X143583333Y-78833333D01*
X143516666Y-78866666D01*
X143383333Y-78866666D01*
X143316666Y-78900000D01*
X143283333Y-78933333D01*
X143250000Y-79000000D01*
X143250000Y-79133333D01*
X143283333Y-79200000D01*
X143316666Y-79233333D01*
X143383333Y-79266666D01*
X143516666Y-79266666D01*
X143583333Y-79233333D01*
X143616666Y-79200000D01*
X143650000Y-79133333D01*
X143650000Y-79000000D01*
X143616666Y-78933333D01*
X143583333Y-78900000D01*
X143516666Y-78866666D01*
%TO.C,C7*%
X129750000Y-77516666D02*
X129783333Y-77550000D01*
X129816666Y-77650000D01*
X129816666Y-77716666D01*
X129783333Y-77816666D01*
X129716666Y-77883333D01*
X129650000Y-77916666D01*
X129516666Y-77950000D01*
X129416666Y-77950000D01*
X129283333Y-77916666D01*
X129216666Y-77883333D01*
X129150000Y-77816666D01*
X129116666Y-77716666D01*
X129116666Y-77650000D01*
X129150000Y-77550000D01*
X129183333Y-77516666D01*
X129116666Y-77283333D02*
X129116666Y-76816666D01*
X129816666Y-77116666D01*
%TO.C,C6*%
X139550000Y-79366666D02*
X139583333Y-79400000D01*
X139616666Y-79500000D01*
X139616666Y-79566666D01*
X139583333Y-79666666D01*
X139516666Y-79733333D01*
X139450000Y-79766666D01*
X139316666Y-79800000D01*
X139216666Y-79800000D01*
X139083333Y-79766666D01*
X139016666Y-79733333D01*
X138950000Y-79666666D01*
X138916666Y-79566666D01*
X138916666Y-79500000D01*
X138950000Y-79400000D01*
X138983333Y-79366666D01*
X138916666Y-78766666D02*
X138916666Y-78900000D01*
X138950000Y-78966666D01*
X138983333Y-79000000D01*
X139083333Y-79066666D01*
X139216666Y-79100000D01*
X139483333Y-79100000D01*
X139550000Y-79066666D01*
X139583333Y-79033333D01*
X139616666Y-78966666D01*
X139616666Y-78833333D01*
X139583333Y-78766666D01*
X139550000Y-78733333D01*
X139483333Y-78700000D01*
X139316666Y-78700000D01*
X139250000Y-78733333D01*
X139216666Y-78766666D01*
X139183333Y-78833333D01*
X139183333Y-78966666D01*
X139216666Y-79033333D01*
X139250000Y-79066666D01*
X139316666Y-79100000D01*
%TO.C,C5*%
X129483333Y-76500000D02*
X129450000Y-76533333D01*
X129350000Y-76566666D01*
X129283333Y-76566666D01*
X129183333Y-76533333D01*
X129116666Y-76466666D01*
X129083333Y-76400000D01*
X129050000Y-76266666D01*
X129050000Y-76166666D01*
X129083333Y-76033333D01*
X129116666Y-75966666D01*
X129183333Y-75900000D01*
X129283333Y-75866666D01*
X129350000Y-75866666D01*
X129450000Y-75900000D01*
X129483333Y-75933333D01*
X130116666Y-75866666D02*
X129783333Y-75866666D01*
X129750000Y-76200000D01*
X129783333Y-76166666D01*
X129850000Y-76133333D01*
X130016666Y-76133333D01*
X130083333Y-76166666D01*
X130116666Y-76200000D01*
X130150000Y-76266666D01*
X130150000Y-76433333D01*
X130116666Y-76500000D01*
X130083333Y-76533333D01*
X130016666Y-76566666D01*
X129850000Y-76566666D01*
X129783333Y-76533333D01*
X129750000Y-76500000D01*
%TO.C,C3*%
X126450000Y-72116666D02*
X126483333Y-72150000D01*
X126516666Y-72250000D01*
X126516666Y-72316666D01*
X126483333Y-72416666D01*
X126416666Y-72483333D01*
X126350000Y-72516666D01*
X126216666Y-72550000D01*
X126116666Y-72550000D01*
X125983333Y-72516666D01*
X125916666Y-72483333D01*
X125850000Y-72416666D01*
X125816666Y-72316666D01*
X125816666Y-72250000D01*
X125850000Y-72150000D01*
X125883333Y-72116666D01*
X125816666Y-71883333D02*
X125816666Y-71450000D01*
X126083333Y-71683333D01*
X126083333Y-71583333D01*
X126116666Y-71516666D01*
X126150000Y-71483333D01*
X126216666Y-71450000D01*
X126383333Y-71450000D01*
X126450000Y-71483333D01*
X126483333Y-71516666D01*
X126516666Y-71583333D01*
X126516666Y-71783333D01*
X126483333Y-71850000D01*
X126450000Y-71883333D01*
%TO.C,C2*%
X128050000Y-81016666D02*
X128083333Y-81050000D01*
X128116666Y-81150000D01*
X128116666Y-81216666D01*
X128083333Y-81316666D01*
X128016666Y-81383333D01*
X127950000Y-81416666D01*
X127816666Y-81450000D01*
X127716666Y-81450000D01*
X127583333Y-81416666D01*
X127516666Y-81383333D01*
X127450000Y-81316666D01*
X127416666Y-81216666D01*
X127416666Y-81150000D01*
X127450000Y-81050000D01*
X127483333Y-81016666D01*
X127483333Y-80750000D02*
X127450000Y-80716666D01*
X127416666Y-80650000D01*
X127416666Y-80483333D01*
X127450000Y-80416666D01*
X127483333Y-80383333D01*
X127550000Y-80350000D01*
X127616666Y-80350000D01*
X127716666Y-80383333D01*
X128116666Y-80783333D01*
X128116666Y-80350000D01*
%TO.C,C1*%
X121483333Y-72350000D02*
X121450000Y-72383333D01*
X121350000Y-72416666D01*
X121283333Y-72416666D01*
X121183333Y-72383333D01*
X121116666Y-72316666D01*
X121083333Y-72250000D01*
X121050000Y-72116666D01*
X121050000Y-72016666D01*
X121083333Y-71883333D01*
X121116666Y-71816666D01*
X121183333Y-71750000D01*
X121283333Y-71716666D01*
X121350000Y-71716666D01*
X121450000Y-71750000D01*
X121483333Y-71783333D01*
X122150000Y-72416666D02*
X121750000Y-72416666D01*
X121950000Y-72416666D02*
X121950000Y-71716666D01*
X121883333Y-71816666D01*
X121816666Y-71883333D01*
X121750000Y-71916666D01*
D12*
%TO.C,Y1*%
X143100000Y-79850000D02*
X140800000Y-79850000D01*
X140800000Y-79850000D02*
X140800000Y-82550000D01*
D11*
%TO.C,U5*%
X138841421Y-83100000D02*
G75*
G03*
X138841421Y-83100000I-141421J0D01*
G01*
X138850000Y-85550000D02*
X138850000Y-83450000D01*
X141550000Y-83450000D02*
X141550000Y-85550000D01*
X138950000Y-83450000D02*
X138850000Y-83450000D01*
X141550000Y-83450000D02*
X141450000Y-83450000D01*
X138950000Y-85550000D02*
X138850000Y-85550000D01*
X141550000Y-85550000D02*
X141450000Y-85550000D01*
D10*
%TO.C,U4*%
X144925000Y-79950000D02*
X143700000Y-79950000D01*
X144925000Y-83075000D02*
X148275000Y-83075000D01*
X144925000Y-79725000D02*
X148275000Y-79725000D01*
X144925000Y-83075000D02*
X144925000Y-82775000D01*
X148275000Y-83075000D02*
X148275000Y-82775000D01*
X148275000Y-79725000D02*
X148275000Y-80025000D01*
X144925000Y-79725000D02*
X144925000Y-79950000D01*
D11*
%TO.C,U3*%
X122830000Y-78520000D02*
X123030000Y-78720000D01*
X122980000Y-77630000D02*
X122980000Y-77730000D01*
X124620000Y-78470000D02*
X124620000Y-78570000D01*
X124620000Y-77630000D02*
X124620000Y-77730000D01*
X124520000Y-78570000D02*
X124620000Y-78570000D01*
X124520000Y-77630000D02*
X124620000Y-77630000D01*
X122980000Y-77630000D02*
X123080000Y-77630000D01*
D10*
%TO.C,U2*%
X131955000Y-84340000D02*
X136405000Y-84340000D01*
X130430000Y-77440000D02*
X136405000Y-77440000D01*
D12*
%TO.C,U1*%
X121840000Y-73900000D02*
X121840000Y-75700000D01*
X125060000Y-75700000D02*
X125060000Y-73250000D01*
%TO.C,R7*%
X137400000Y-75720000D02*
X138400000Y-75720000D01*
X138400000Y-77080000D02*
X137400000Y-77080000D01*
%TO.C,R6*%
X128520000Y-74850000D02*
X128520000Y-73850000D01*
X129880000Y-73850000D02*
X129880000Y-74850000D01*
%TO.C,R5*%
X128280000Y-73850000D02*
X128280000Y-74850000D01*
X126920000Y-74850000D02*
X126920000Y-73850000D01*
%TO.C,R4*%
X126100000Y-85080000D02*
X125100000Y-85080000D01*
X125100000Y-83720000D02*
X126100000Y-83720000D01*
%TO.C,R3*%
X129780000Y-82700000D02*
X129780000Y-83700000D01*
X128420000Y-83700000D02*
X128420000Y-82700000D01*
%TO.C,R2*%
X133880000Y-85500000D02*
X133880000Y-86500000D01*
X132520000Y-86500000D02*
X132520000Y-85500000D01*
%TO.C,R1*%
X130920000Y-70900000D02*
X130920000Y-69900000D01*
X132280000Y-69900000D02*
X132280000Y-70900000D01*
%TO.C,Q4*%
X141730000Y-77550000D02*
X141730000Y-78210000D01*
X141730000Y-75890000D02*
X141730000Y-76550000D01*
X141730000Y-75890000D02*
X139700000Y-75890000D01*
X140320000Y-78210000D02*
X141730000Y-78210000D01*
%TO.C,Q3*%
X125100000Y-82530000D02*
X124440000Y-82530000D01*
X126760000Y-82530000D02*
X126100000Y-82530000D01*
X126760000Y-82530000D02*
X126760000Y-80500000D01*
X124440000Y-81120000D02*
X124440000Y-82530000D01*
%TO.C,Q2*%
X130400000Y-87130000D02*
X129740000Y-87130000D01*
X132060000Y-87130000D02*
X131400000Y-87130000D01*
X132060000Y-87130000D02*
X132060000Y-85100000D01*
X129740000Y-85720000D02*
X129740000Y-87130000D01*
%TO.C,Q1*%
X135000000Y-87130000D02*
X134340000Y-87130000D01*
X136660000Y-87130000D02*
X136000000Y-87130000D01*
X136660000Y-87130000D02*
X136660000Y-85100000D01*
X134340000Y-85720000D02*
X134340000Y-87130000D01*
%TO.C,L2*%
X149075000Y-71575000D02*
X147475000Y-71575000D01*
X149075000Y-74775000D02*
X147475000Y-74775000D01*
%TO.C,L1*%
X151925000Y-78225000D02*
X151925000Y-76625000D01*
X148725000Y-78225000D02*
X148725000Y-76625000D01*
%TO.C,J1*%
X132919134Y-67341908D02*
X132919134Y-68164378D01*
X132919134Y-70049438D02*
X132919134Y-70871908D01*
X132919134Y-68779438D02*
X132919134Y-69434378D01*
X137934134Y-67341908D02*
X132919134Y-67341908D01*
X139389134Y-70871908D02*
X132919134Y-70871908D01*
X137934134Y-67341908D02*
X137934134Y-67908437D01*
X137934134Y-69035379D02*
X137934134Y-69178437D01*
X137987605Y-69231908D02*
X138130663Y-69231908D01*
X139257605Y-69231908D02*
X139389134Y-69231908D01*
X139389134Y-69231908D02*
X139389134Y-69434378D01*
X139389134Y-70049438D02*
X139389134Y-70871908D01*
X138694134Y-67341908D02*
X139454134Y-67341908D01*
X139454134Y-67341908D02*
X139454134Y-68471908D01*
%TO.C,FB1*%
X134450000Y-77080000D02*
X133450000Y-77080000D01*
X133450000Y-75720000D02*
X134450000Y-75720000D01*
%TO.C,D4*%
X120000000Y-83950000D02*
X120000000Y-85650000D01*
X120000000Y-85650000D02*
X123150000Y-85650000D01*
X120000000Y-83950000D02*
X123150000Y-83950000D01*
%TO.C,D3*%
X120000000Y-81850000D02*
X120000000Y-83550000D01*
X120000000Y-83550000D02*
X123150000Y-83550000D01*
X120000000Y-81850000D02*
X123150000Y-81850000D01*
%TO.C,D2*%
X120000000Y-79750000D02*
X120000000Y-81450000D01*
X120000000Y-81450000D02*
X123150000Y-81450000D01*
X120000000Y-79750000D02*
X123150000Y-79750000D01*
%TO.C,D1*%
X131100000Y-68900000D02*
X132100000Y-68900000D01*
X132100000Y-68900000D02*
X132100000Y-66800000D01*
X131100000Y-68900000D02*
X131100000Y-66800000D01*
%TO.C,C12*%
X145825000Y-73575000D02*
X145825000Y-74275000D01*
X144625000Y-74275000D02*
X144625000Y-73575000D01*
%TO.C,C11*%
X150725000Y-73575000D02*
X150725000Y-72875000D01*
X151925000Y-72875000D02*
X151925000Y-73575000D01*
%TO.C,C10*%
X148125000Y-77725000D02*
X148125000Y-78425000D01*
X146925000Y-78425000D02*
X146925000Y-77725000D01*
%TO.C,C9*%
X139900000Y-86000000D02*
X140600000Y-86000000D01*
X140600000Y-87200000D02*
X139900000Y-87200000D01*
%TO.C,C8*%
X144975000Y-78275000D02*
X145675000Y-78275000D01*
X145675000Y-79475000D02*
X144975000Y-79475000D01*
%TO.C,C7*%
X128700000Y-79900000D02*
X128700000Y-79200000D01*
X129900000Y-79200000D02*
X129900000Y-79900000D01*
%TO.C,C6*%
X139600000Y-81050000D02*
X139600000Y-81750000D01*
X138400000Y-81750000D02*
X138400000Y-81050000D01*
%TO.C,C5*%
X127800000Y-77000000D02*
X127100000Y-77000000D01*
X127100000Y-75800000D02*
X127800000Y-75800000D01*
%TO.C,C3*%
X125400000Y-74550000D02*
X125400000Y-73850000D01*
X126600000Y-73850000D02*
X126600000Y-74550000D01*
%TO.C,C2*%
X127200000Y-79100000D02*
X127200000Y-78400000D01*
X128400000Y-78400000D02*
X128400000Y-79100000D01*
%TO.C,C1*%
X124200000Y-72700000D02*
X123500000Y-72700000D01*
X123500000Y-71500000D02*
X124200000Y-71500000D01*
%TD*%
M02*
