M48
; DRILL file {KiCad (5.99.0-2195-g476558ece)} date 12/21/21 14:22:04
; FORMAT={-:-/ absolute / inch / decimal}
; #@! TF.CreationDate,2021-12-21T14:22:04-08:00
; #@! TF.GenerationSoftware,Kicad,Pcbnew,(5.99.0-2195-g476558ece)
FMAT,2
INCH
T1C0.0118
T2C0.0256
T3C0.0315
T4C0.0472
%
G90
G05
T1
X4.8228Y-2.8386
X4.8228Y-3.0669
X4.8465Y-2.815
X4.8543Y-3.0394
X4.9213Y-3.1535
X4.937Y-2.8898
X4.9606Y-2.8661
X5.0079Y-3.0709
X5.0669Y-3.0787
X5.0787Y-2.878
X5.1201Y-3.0728
X5.126Y-3.3346
X5.3071Y-3.3346
X5.3504Y-3.2008
X5.4488Y-3.1417
X5.4528Y-3.1102
X5.4724Y-3.2638
X5.5315Y-3.248
X5.5394Y-3.2126
X5.5512Y-3.4331
X5.563Y-3.315
X5.5748Y-3.4094
X5.6102Y-3.1417
X5.6929Y-2.9409
X5.7165Y-2.9646
X5.7402Y-2.9409
X5.7657Y-3.1476
X5.7815Y-3.1004
X5.7815Y-3.126
X5.7972Y-3.1476
X5.9026Y-3.2057
X5.9331Y-2.8543
X5.9606Y-2.8268
T2
X5.2604Y-2.6957
X5.2604Y-2.7457
X5.3104Y-2.6957
X5.3104Y-2.7457
X5.3604Y-2.6957
X5.3604Y-2.7457
X5.4104Y-2.6957
X5.4104Y-2.7457
X5.4604Y-2.6957
X5.4604Y-2.7457
T3
X5.748Y-3.3661
X4.7598Y-3.0866
X5.6457Y-3.3661
X4.7992Y-3.4094
X5.7283Y-3.0276
X5.0118Y-3.4094
X4.9055Y-3.4094
X5.6299Y-2.937
T4
X5.315Y-2.9173
X5.5118Y-2.9173
T0
M30
